<svg width="60" height="60" viewBox="0 0 60 60" fill="none" xmlns="http://www.w3.org/2000/svg">
<g clip-path="url(#clip0_464_2823)">
<path d="M23.7778 20.5088H29.5499C31.1199 20.5088 32.3926 19.2361 32.3926 17.6661V13.6125L23.7778 20.5088Z" fill="#E68E51"/>
<path d="M13.8932 11.303C10.6659 13.049 9.20541 14.6239 8.27863 17.3491C6.01191 24.0144 3.82769 40.6508 3.75092 47.1887C3.67414 53.7267 8.38957 55.8754 13.9038 55.8754C19.4181 55.8754 44.4669 55.9239 49.5277 55.9239C54.1589 55.9239 56.25 53.762 56.25 48.5005C56.25 37.1548 49.304 28.2447 38.6275 28.2447C27.9511 28.2447 18.5001 39.9226 18.5001 39.9226L19.3936 22.0037C19.4353 21.1664 20.1264 20.5089 20.9647 20.5089H23.7779L32.6702 14.7311C34.0845 13.8121 34.4635 11.9083 33.5091 10.5177L30.1333 5.59961C29.2666 4.33691 27.5968 3.92496 26.248 4.65035C22.708 6.55403 16.1964 10.0569 13.8932 11.303Z" fill="#FFCCA8"/>
</g>
<defs>
<clipPath id="clip0_464_2823">
<rect width="60" height="60" fill="white"/>
</clipPath>
</defs>
</svg>
