<svg width="60" height="60" viewBox="0 0 60 60" fill="none" xmlns="http://www.w3.org/2000/svg">
<g clip-path="url(#clip0_464_2832)">
<path d="M30.0002 56.8424C44.8249 56.8424 56.8427 44.8246 56.8427 29.9999C56.8427 15.1753 44.8249 3.15747 30.0002 3.15747C15.1755 3.15747 3.15771 15.1753 3.15771 29.9999C3.15771 44.8246 15.1755 56.8424 30.0002 56.8424Z" fill="#D0D5DA"/>
<path d="M52.3996 30.3389C52.3996 29.1041 52.0416 27.9531 51.4242 26.9833C50.6408 25.7529 50.2142 24.299 50.3666 22.8483C50.499 21.5878 50.2514 20.2774 49.5683 19.0944C48.9518 18.0264 48.0683 17.2094 47.0508 16.6781C45.6543 15.9489 44.6341 14.7217 43.9168 13.319C43.3901 12.2887 42.5721 11.3938 41.4938 10.7716C40.4259 10.1549 39.2522 9.88903 38.1053 9.93761C36.5312 10.0043 35.0342 9.45148 33.7116 8.59526C32.7404 7.96648 31.5847 7.60034 30.3396 7.60034C29.1045 7.60034 27.9535 7.95829 26.9836 8.57588C25.7531 9.35944 24.2991 9.78602 22.8483 9.63364C21.5879 9.50125 20.2776 9.74897 19.0945 10.4321C18.0269 11.0486 17.2101 11.9319 16.6789 12.9491C15.9495 14.3457 14.7224 15.3661 13.3195 16.0833C12.2893 16.61 11.3943 17.4279 10.7717 18.5062C10.1552 19.5741 9.88949 20.7477 9.93809 21.8944C10.0048 23.4686 9.45222 24.9658 8.59596 26.2884C7.96716 27.2597 7.60107 28.4155 7.60107 29.6607C7.60107 30.8957 7.95911 32.0468 8.57673 33.0168C9.36009 34.2471 9.78654 35.701 9.63416 37.1516C9.50174 38.412 9.74936 39.7225 10.4324 40.9061C11.0488 41.9735 11.9322 42.7901 12.9494 43.3213C14.3462 44.0507 15.3666 45.2779 16.084 46.6809C16.6107 47.7112 17.4286 48.6062 18.507 49.2289C19.5748 49.845 20.7483 50.1107 21.895 50.0621C23.4692 49.9954 24.9664 50.5481 26.2891 51.4044C27.2603 52.0332 28.4161 52.3993 29.6611 52.3993C30.8965 52.3993 32.0477 52.0412 33.0176 51.4236C34.2477 50.6403 35.7013 50.2138 37.1516 50.3661C38.4123 50.4985 39.7229 50.2508 40.9062 49.5676C41.9738 48.9515 42.7905 48.0681 43.3218 47.0508C44.0512 45.6541 45.2783 44.6336 46.6813 43.9163C47.7115 43.3895 48.6065 42.5717 49.2291 41.4935C49.8455 40.4256 50.1112 39.2521 50.0626 38.1054C49.9959 36.5312 50.5484 35.0339 51.4047 33.7113C52.0335 32.74 52.3996 31.5842 52.3996 30.3389Z" fill="#03905A"/>
<path d="M26.008 34.1923C28.1196 36.5159 27.9477 40.1112 25.6242 42.2228C23.3007 44.3343 19.7053 44.1625 17.5938 41.8389C15.4822 39.5154 14.0089 34.1098 16.3324 31.9982C18.656 29.8867 23.8964 31.8688 26.008 34.1923Z" fill="white"/>
<path d="M22.3543 41.8402C24.1302 41.8402 25.5699 40.4005 25.5699 38.6246C25.5699 36.8486 24.1302 35.4089 22.3543 35.4089C20.5784 35.4089 19.1387 36.8486 19.1387 38.6246C19.1387 40.4005 20.5784 41.8402 22.3543 41.8402Z" fill="#FFC261"/>
<path d="M26.7861 28.4585C28.8705 32.4226 33.7737 33.9464 37.7378 31.8621C41.7019 29.7777 43.2257 24.8745 41.1413 20.9104L26.7861 28.4585Z" fill="#D14141"/>
<path d="M39.0388 22.0159C40.5127 24.8189 39.4352 28.286 36.6322 29.7599C33.8292 31.2337 30.3621 30.1562 28.8882 27.3532L39.0388 22.0159Z" fill="#F25F5F"/>
<path d="M41.2118 44.2217C43.7173 42.267 44.3361 38.8721 42.594 36.639C41.2229 34.8816 40.2819 36.2744 38.7229 37.8998C38.6318 37.4366 38.4311 36.9697 38.1044 36.5509C37.1651 35.347 36.446 36.0764 35.4583 36.847C34.4705 37.6177 33.588 38.1376 34.5273 39.3416C34.8541 39.7604 35.2581 40.0686 35.6852 40.2697C33.7295 41.3864 32.1496 41.9603 33.5207 43.7177C35.2628 45.9507 38.7063 46.1764 41.2118 44.2217Z" fill="#E5E9EE"/>
<path d="M24.4502 19.5824L22.0961 17.9584C21.4387 17.5049 20.5381 17.6702 20.0846 18.3276L18.4606 20.6816C18.007 21.3391 18.1723 22.2397 18.8297 22.6932L21.1838 24.3172C21.8412 24.7708 22.7418 24.6055 23.1954 23.9481L24.8194 21.594C25.2729 20.9366 25.1076 20.0359 24.4502 19.5824Z" fill="#FFD361"/>
<path d="M37.9606 17.424L37.6495 15.5809C37.5626 15.0662 37.0749 14.7194 36.5602 14.8062L34.7171 15.1174C34.2023 15.2042 33.8555 15.6919 33.9424 16.2067L34.2535 18.0498C34.3404 18.5645 34.8281 18.9113 35.3428 18.8245L37.1859 18.5134C37.7007 18.4265 38.0475 17.9388 37.9606 17.424Z" fill="#FFD361"/>
</g>
<defs>
<clipPath id="clip0_464_2832">
<rect width="60" height="60" fill="white"/>
</clipPath>
</defs>
</svg>
