<svg width="16" height="16" viewBox="0 0 16 16" fill="none" xmlns="http://www.w3.org/2000/svg">
<path d="M3.33334 12.6667H4.26667L10.0167 6.91671L9.08334 5.98337L3.33334 11.7334V12.6667ZM12.8667 5.95004L10.0333 3.15004L10.9667 2.21671C11.2222 1.96115 11.5362 1.83337 11.9087 1.83337C12.2811 1.83337 12.5949 1.96115 12.85 2.21671L13.7833 3.15004C14.0389 3.4056 14.1722 3.71404 14.1833 4.07537C14.1944 4.43671 14.0722 4.74493 13.8167 5.00004L12.8667 5.95004ZM2.66667 14C2.47778 14 2.31934 13.936 2.19134 13.808C2.06334 13.68 1.99956 13.5218 2 13.3334V11.45C2 11.3612 2.01667 11.2749 2.05 11.1914C2.08334 11.1078 2.13334 11.0329 2.2 10.9667L9.06667 4.10004L11.9 6.93337L5.03334 13.8C4.96667 13.8667 4.89178 13.9167 4.80867 13.95C4.72556 13.9834 4.63934 14 4.55 14H2.66667ZM9.55 6.45004L9.08334 5.98337L10.0167 6.91671L9.55 6.45004Z" fill="#A6A4A0"/>
</svg>
