<svg width="40" height="40" viewBox="0 0 40 40" fill="none" xmlns="http://www.w3.org/2000/svg">
<path d="M14.7915 35.1668L28.8331 21.1668C28.9998 21.0002 29.1181 20.8196 29.1881 20.6252C29.2581 20.4307 29.2926 20.2224 29.2915 20.0002C29.2915 19.7779 29.257 19.5696 29.1881 19.3752C29.1193 19.1807 29.0009 19.0002 28.8331 18.8335L14.7915 4.79183C14.4026 4.40294 13.9165 4.2085 13.3331 4.2085C12.7498 4.2085 12.2498 4.41683 11.8331 4.8335C11.4165 5.25016 11.2081 5.73627 11.2081 6.29183C11.2081 6.84738 11.4165 7.3335 11.8331 7.75016L24.0831 20.0002L11.8331 32.2502C11.4443 32.639 11.2498 33.1185 11.2498 33.6885C11.2498 34.2585 11.4581 34.7513 11.8748 35.1668C12.2915 35.5835 12.7776 35.7918 13.3331 35.7918C13.8887 35.7918 14.3748 35.5835 14.7915 35.1668Z" fill="#D3D3D3"/>
</svg>
