<svg width="24" height="24" viewBox="0 0 24 24" fill="none" xmlns="http://www.w3.org/2000/svg">
<path d="M10.3217 11.8158V17.2895C10.3217 17.7741 10.4828 18.1807 10.805 18.5091C11.1273 18.8375 11.5256 19.0011 12 19C12.4755 19 12.8744 18.8358 13.1966 18.5074C13.5189 18.1789 13.6794 17.773 13.6783 17.2895V11.8158L15.1888 13.3553C15.4965 13.6689 15.8881 13.8257 16.3636 13.8257C16.8392 13.8257 17.2308 13.6689 17.5385 13.3553C17.8462 13.0417 18 12.6425 18 12.1579C18 11.6732 17.8462 11.2741 17.5385 10.9605L13.1748 6.51316C12.8392 6.17105 12.4476 6 12 6C11.5524 6 11.1608 6.17105 10.8252 6.51316L6.46154 10.9605C6.15385 11.2741 6 11.6732 6 12.1579C6 12.6425 6.15385 13.0417 6.46154 13.3553C6.76923 13.6689 7.16084 13.8257 7.63636 13.8257C8.11189 13.8257 8.5035 13.6689 8.81119 13.3553L10.3217 11.8158Z" fill="#008B47"/>
</svg>
