<svg width="56" height="56" viewBox="0 0 56 56" fill="none" xmlns="http://www.w3.org/2000/svg">
<g clip-path="url(#clip0_442_2716)">
<path d="M41.2289 4.3457L38.8213 28.7001L34.8164 28.7L32.6463 15.4192C32.1016 10.2356 35.0607 5.3193 39.8963 3.37416C40.5631 3.10596 41.2803 3.62889 41.2289 4.3457Z" fill="#D5D5D5"/>
<path d="M18.5996 28.7002L16.9841 50.1442C16.9514 51.5445 18.0776 52.6974 19.4784 52.6974H21.7218C23.1227 52.6974 24.2489 51.5445 24.2162 50.1442L22.6045 28.7002H18.5996Z" fill="#767676"/>
<path d="M34.8164 28.7002L33.2009 50.1442C33.1682 51.5445 34.2944 52.6974 35.6952 52.6974H37.9386C39.3395 52.6974 40.4657 51.5445 40.433 50.1442L38.8213 28.7002H34.8164Z" fill="#767676"/>
<path d="M22.5298 27.6387C22.5412 26.1293 23.7209 25.707 23.7209 25.707L23.7141 25.7002C23.7638 25.6761 23.8165 25.6639 23.866 25.6386L26.8176 24.5909C28.4312 23.7661 29.4133 21.715 29.2049 19.6044L27.1236 4.49082C27.0299 3.80995 26.4479 3.30273 25.7606 3.30273C24.994 3.30273 24.3751 3.92925 24.3847 4.6959L24.5477 17.7262C24.5477 18.2111 24.3108 18.6462 23.943 18.833C23.6984 18.9584 23.4186 18.9584 23.1739 18.833C22.8071 18.645 22.5692 18.2111 22.5692 17.7262L22.3476 4.65522C22.3349 3.90464 21.7227 3.30273 20.9719 3.30273H20.2277C19.4769 3.30273 18.8648 3.90464 18.8521 4.65522L18.6303 17.7262C18.6303 18.2111 18.3934 18.6462 18.0246 18.833C17.782 18.9584 17.5011 18.9584 17.2565 18.833C16.8897 18.645 16.6518 18.2111 16.6518 17.7262L16.8156 4.6959C16.8253 3.92925 16.2064 3.30273 15.4398 3.30273C14.7524 3.30273 14.1705 3.80995 14.0768 4.49082L11.9955 19.6044C11.7872 21.715 12.7693 23.7649 14.3819 24.5909L17.3337 25.6386C17.3814 25.6631 17.4321 25.6747 17.4801 25.6979L17.4713 25.707C17.4713 25.707 18.7056 26.1395 18.6688 27.7228L18.5997 28.7H22.6046L22.5298 27.6387Z" fill="#D5D5D5"/>
</g>
<defs>
<clipPath id="clip0_442_2716">
<rect width="56" height="56" fill="white"/>
</clipPath>
</defs>
</svg>
