<svg width="56" height="56" viewBox="0 0 56 56" fill="none" xmlns="http://www.w3.org/2000/svg">
<g clip-path="url(#clip0_442_2691)">
<path d="M51.3657 32.5543C47.7841 40.1268 34.4809 39.206 28.8527 38.8991C23.2244 38.5921 7.05598 34.9082 4.39535 28.9726C3.93666 27.9496 3.66938 26.9372 3.56146 25.9528L3.55273 25.9521L4.13439 33.9314C4.37357 36.8999 5.96822 39.6315 8.52068 41.1659C14.4505 44.7301 24.625 46.866 28.8527 47.0964C34.0018 47.3773 45.5749 48.172 50.2505 42.5067C50.9785 41.6245 51.3847 40.5205 51.4781 39.3807C51.6822 36.8883 52.1071 31.6984 52.2708 29.702C52.0905 30.6788 51.8001 31.6359 51.3657 32.5543Z" fill="#FF8293"/>
<path d="M28.4553 34.8542C32.3501 35.0665 44.3938 35.8574 46.8412 30.6026C49.4663 24.9657 47.1716 17.7944 43.8334 14.6677C40.2159 11.2791 34.4038 12.6186 29.6592 15.8052C25.9313 18.3089 20.1487 18.8892 17.8416 19.0229C16.8256 19.0817 13.1968 19.7177 12.1953 19.8982C7.66775 20.7144 6.61989 23.9752 8.18583 27.4687C10.027 31.5757 24.5606 34.642 28.4553 34.8542ZM37.2781 17.8717C39.8002 17.8717 41.8449 19.4597 41.8449 21.4185C41.8449 23.3777 39.8002 24.9657 37.2781 24.9657C34.756 24.9657 32.7115 23.3777 32.7115 21.4185C32.7115 19.4597 34.756 17.8717 37.2781 17.8717Z" fill="#ED4E61"/>
<path d="M28.8526 38.8987C34.4808 39.2056 47.7839 40.1264 51.3656 32.5539C51.8 31.6355 52.0903 30.6785 52.2706 29.7016C53.5769 22.6264 48.8352 14.4821 46.9469 11.8742C44.7979 8.90671 37.4484 6.76638 30.5922 11.3714C25.2052 14.9893 16.8489 15.8281 13.515 16.0212C12.0468 16.1063 10.5784 16.3616 9.23061 16.9502C5.30798 18.6633 3.13689 22.0799 3.56131 25.9525C3.66924 26.9368 3.93653 27.9492 4.39521 28.9722C7.05584 34.9079 23.2243 38.5918 28.8526 38.8987ZM12.1949 19.8982C13.1965 19.7177 16.8253 19.0817 17.8412 19.0229C20.1484 18.8892 25.931 18.3089 29.6589 15.8052C34.4034 12.6186 40.2155 11.2791 43.8331 14.6677C47.1713 17.7945 49.4659 24.9657 46.8408 30.6026C44.3935 35.8574 32.3498 35.0665 28.455 34.8542C24.5602 34.642 10.0267 31.5757 8.18548 27.4687C6.61954 23.9752 7.6674 20.7144 12.1949 19.8982Z" fill="#FFA7B3"/>
<path d="M37.2776 24.9661C39.7997 24.9661 41.8443 23.3781 41.8443 21.4189C41.8443 19.4601 39.7997 17.8721 37.2776 17.8721C34.7555 17.8721 32.7109 19.4601 32.7109 21.4189C32.7109 23.3781 34.7555 24.9661 37.2776 24.9661Z" fill="#FFA7B3"/>
</g>
<defs>
<clipPath id="clip0_442_2691">
<rect width="56" height="56" fill="white"/>
</clipPath>
</defs>
</svg>
