<svg width="60" height="60" viewBox="0 0 60 60" fill="none" xmlns="http://www.w3.org/2000/svg">
<g clip-path="url(#clip0_464_2804)">
<path d="M45.75 5.25H14.25C9.27944 5.25 5.25 9.27944 5.25 14.25V45.75C5.25 50.7206 9.27944 54.75 14.25 54.75H45.75C50.7206 54.75 54.75 50.7206 54.75 45.75V14.25C54.75 9.27944 50.7206 5.25 45.75 5.25Z" fill="#3D3D3D"/>
<path d="M45.75 5.25H14.25C9.27944 5.25 5.25 9.27944 5.25 14.25V30.75C5.25 35.7206 9.27944 39.75 14.25 39.75H45.75C50.7206 39.75 54.75 35.7206 54.75 30.75V14.25C54.75 9.27944 50.7206 5.25 45.75 5.25Z" fill="#767676"/>
<path d="M27.0002 23.8445H10.9131C10.0847 23.8445 9.41309 24.5161 9.41309 25.3445V30.5963C9.41309 33.8995 12.0909 36.5773 15.394 36.5773H27.0002C27.8286 36.5773 28.5002 35.9057 28.5002 35.0773V25.3445C28.5002 24.5161 27.8286 23.8445 27.0002 23.8445Z" fill="#292929"/>
<path d="M28.5002 19.3446V9.92236C28.5002 9.09394 27.8286 8.42236 27.0002 8.42236H15.3939C12.0908 8.42236 9.41309 11.1001 9.41309 14.4032V19.3446C9.41309 20.173 10.0847 20.8446 10.9131 20.8446H27.0002C27.8286 20.8446 28.5002 20.173 28.5002 19.3446Z" fill="#292929"/>
<path d="M44.6063 8.42236H33C32.1716 8.42236 31.5 9.09394 31.5 9.92236V35.0774C31.5 35.9058 32.1716 36.5774 33 36.5774H44.6062C47.9094 36.5774 50.5871 33.8997 50.5871 30.5965V14.4031C50.5871 11.1 47.9094 8.42236 44.6063 8.42236Z" fill="#E5E8EB"/>
<path d="M24.7349 14.5569C25.9365 14.5569 26.9107 13.5828 26.9107 12.3811C26.9107 11.1795 25.9365 10.2053 24.7349 10.2053C23.5332 10.2053 22.5591 11.1795 22.5591 12.3811C22.5591 13.5828 23.5332 14.5569 24.7349 14.5569Z" fill="#EC6700"/>
<path d="M24.7349 19.5657C25.9365 19.5657 26.9107 18.5916 26.9107 17.3899C26.9107 16.1882 25.9365 15.2141 24.7349 15.2141C23.5332 15.2141 22.5591 16.1882 22.5591 17.3899C22.5591 18.5916 23.5332 19.5657 24.7349 19.5657Z" fill="#EC6700"/>
<path d="M21.6169 12.1236C21.6169 11.0642 20.758 10.2053 19.6986 10.2053C18.6391 10.2053 17.7803 11.0642 17.7803 12.1236V17.6474C17.7803 18.7068 18.6391 19.5657 19.6986 19.5657C20.758 19.5657 21.6169 18.7068 21.6169 17.6474V12.1236Z" fill="#FFCD00"/>
<path d="M26.9106 27.6425V27.5672C26.9106 26.4762 26.0262 25.5918 24.9352 25.5918H14.9771C13.8862 25.5918 13.0017 26.4762 13.0017 27.5672V27.6425C13.0017 28.7335 13.8862 29.6179 14.9771 29.6179H24.9352C26.0262 29.6179 26.9106 28.7335 26.9106 27.6425Z" fill="#03905A"/>
<path d="M26.9106 32.6161V32.5408C26.9106 31.4498 26.0262 30.5654 24.9352 30.5654H14.9771C13.8862 30.5654 13.0017 31.4498 13.0017 32.5408V32.6161C13.0017 33.7071 13.8862 34.5915 14.9771 34.5915H24.9352C26.0262 34.5915 26.9106 33.7071 26.9106 32.6161Z" fill="#03905A"/>
<path d="M16.8385 12.1236C16.8385 11.0642 15.9797 10.2053 14.9202 10.2053C13.8608 10.2053 13.002 11.0642 13.002 12.1236V17.6474C13.002 18.7068 13.8608 19.5657 14.9202 19.5657C15.9797 19.5657 16.8385 18.7068 16.8385 17.6474V12.1236Z" fill="#FFCD00"/>
</g>
<defs>
<clipPath id="clip0_464_2804">
<rect width="60" height="60" fill="white"/>
</clipPath>
</defs>
</svg>
