<svg width="16" height="16" viewBox="0 0 16 16" fill="none" xmlns="http://www.w3.org/2000/svg">
<path d="M4.66651 14C4.29984 14 3.98584 13.8693 3.72451 13.608C3.46317 13.3467 3.33273 13.0329 3.33317 12.6667V4C3.14428 4 2.98584 3.936 2.85784 3.808C2.72984 3.68 2.66606 3.52178 2.66651 3.33334C2.66651 3.14445 2.73051 2.986 2.85851 2.858C2.98651 2.73 3.14473 2.66622 3.33317 2.66667H5.99984C5.99984 2.47778 6.06384 2.31934 6.19184 2.19134C6.31984 2.06334 6.47806 1.99956 6.66651 2H9.33317C9.52206 2 9.68051 2.064 9.80851 2.192C9.93651 2.32 10.0003 2.47822 9.99984 2.66667H12.6665C12.8554 2.66667 13.0138 2.73067 13.1418 2.85867C13.2698 2.98667 13.3336 3.14489 13.3332 3.33334C13.3332 3.52222 13.2692 3.68067 13.1412 3.80867C13.0132 3.93667 12.855 4.00045 12.6665 4V12.6667C12.6665 13.0333 12.5358 13.3473 12.2745 13.6087C12.0132 13.87 11.6994 14.0004 11.3332 14H4.66651ZM4.66651 4V12.6667H11.3332V4H4.66651ZM5.99984 10.6667C5.99984 10.8556 6.06384 11.014 6.19184 11.142C6.31984 11.27 6.47806 11.3338 6.66651 11.3333C6.8554 11.3333 7.01384 11.2693 7.14184 11.1413C7.26984 11.0133 7.33362 10.8551 7.33317 10.6667V6C7.33317 5.81111 7.26917 5.65267 7.14117 5.52467C7.01317 5.39667 6.85495 5.33289 6.66651 5.33334C6.47762 5.33334 6.31917 5.39734 6.19117 5.52534C6.06317 5.65334 5.9994 5.81156 5.99984 6V10.6667ZM8.66651 10.6667C8.66651 10.8556 8.73051 11.014 8.85851 11.142C8.98651 11.27 9.14473 11.3338 9.33317 11.3333C9.52206 11.3333 9.68051 11.2693 9.80851 11.1413C9.93651 11.0133 10.0003 10.8551 9.99984 10.6667V6C9.99984 5.81111 9.93584 5.65267 9.80784 5.52467C9.67984 5.39667 9.52162 5.33289 9.33317 5.33334C9.14428 5.33334 8.98584 5.39734 8.85784 5.52534C8.72984 5.65334 8.66606 5.81156 8.66651 6V10.6667Z" fill="#A6A4A0"/>
</svg>
