<svg width="56" height="56" viewBox="0 0 56 56" fill="none" xmlns="http://www.w3.org/2000/svg">
<g clip-path="url(#clip0_442_2708)">
<path d="M2.82278 53.0074L4.04254 54.2271C4.98788 55.1725 6.52449 55.1596 7.45391 54.1986L18.8627 42.402C19.3907 41.8561 19.3834 40.9877 18.8464 40.4507L16.5992 38.2035C16.0622 37.6665 15.1938 37.6592 14.6479 38.1872L2.85128 49.596C1.89028 50.5254 1.87744 52.062 2.82278 53.0074Z" fill="#767676"/>
<path d="M10.6533 42.0539L14.6479 38.1872C15.1938 37.6592 16.0622 37.6665 16.5992 38.2035L18.8465 40.4507C19.3835 40.9877 19.3907 41.8561 18.8628 42.402L14.9978 46.3983L10.6533 42.0539Z" fill="#767676"/>
<path d="M30.2037 48.4992C42.6272 48.4992 52.6984 38.4279 52.6984 26.0045C52.6984 13.581 42.6272 3.50977 30.2037 3.50977C17.7802 3.50977 7.70898 13.581 7.70898 26.0045C7.70898 38.4279 17.7802 48.4992 30.2037 48.4992Z" fill="#3D3D3D"/>
<path d="M14.8581 21.0246C15.4924 16.6884 19.0636 13.2058 23.4119 12.6606C24.7852 12.4884 26.1114 12.5977 27.3418 12.9378C29.2189 13.4567 31.1874 13.4569 33.0644 12.938C34.2929 12.5983 35.6169 12.4888 36.9879 12.6597C41.3954 13.2092 44.9938 16.7794 45.5706 21.1834C46.0408 24.7733 44.5915 28.0446 42.1095 30.1293C40.8148 31.2168 39.8826 32.6838 39.3037 34.2725C37.9144 38.0853 34.2635 40.8086 29.9696 40.8086C25.5197 40.8086 21.7611 37.8836 20.4942 33.8523C20.009 32.3084 19.1069 30.9055 17.9216 29.8035C15.6355 27.678 14.3509 24.4913 14.8581 21.0246Z" fill="white"/>
<path d="M30.2032 33.3106C34.2385 33.3106 37.5098 30.0393 37.5098 26.0039C37.5098 21.9686 34.2385 18.6973 30.2032 18.6973C26.1678 18.6973 22.8965 21.9686 22.8965 26.0039C22.8965 30.0393 26.1678 33.3106 30.2032 33.3106Z" fill="#FFCD00"/>
</g>
<defs>
<clipPath id="clip0_442_2708">
<rect width="56" height="56" fill="white"/>
</clipPath>
</defs>
</svg>
