<svg width="56" height="56" viewBox="0 0 56 56" fill="none" xmlns="http://www.w3.org/2000/svg">
<g clip-path="url(#clip0_442_2677)">
<path d="M46.1127 39.0735C46.7401 38.8447 47.2976 38.4152 47.6577 37.792C48.0309 37.1456 48.1195 36.4188 47.9827 35.7404C48.5606 35.4062 49.0353 34.8865 49.2815 34.2102C49.5366 33.5088 49.4977 32.7777 49.2454 32.1333C49.7565 31.7039 50.1336 31.1096 50.2589 30.4008C50.3882 29.6657 50.2233 28.9524 49.8627 28.3617C50.2913 27.85 50.5596 27.1994 50.5596 26.4796C50.5596 25.7332 50.273 25.0595 49.8155 24.5403C50.1491 23.962 50.3001 23.2746 50.1751 22.5657C50.0455 21.8307 49.6465 21.217 49.1057 20.7851C49.3336 20.1576 49.3629 19.4544 49.1168 18.7781C48.8614 18.0767 48.3619 17.5417 47.7544 17.2103C47.8696 16.5527 47.7768 15.8551 47.417 15.2318C47.0438 14.5854 46.4587 14.1452 45.803 13.9244C45.8024 13.2569 45.5895 12.5859 45.1269 12.0345C44.6472 11.4628 43.9946 11.1309 43.3103 11.0273C43.1938 10.3699 42.8678 9.7462 42.3164 9.28354C41.7448 8.80375 41.0445 8.5902 40.3527 8.60696C40.1238 7.97986 39.6944 7.42217 39.0711 7.06229C38.4247 6.68907 37.6979 6.60041 37.0195 6.73708C36.6854 6.15922 36.1658 5.68452 35.4892 5.43837C34.7879 5.18307 34.0567 5.22199 33.4126 5.47432C32.9829 4.96334 32.3888 4.58613 31.68 4.46113C30.9449 4.33154 30.2317 4.49676 29.641 4.85716C29.1294 4.42847 28.4786 4.16016 27.7587 4.16016C27.0122 4.16016 26.3385 4.44676 25.8194 4.90427C25.241 4.57094 24.5536 4.4197 23.8448 4.54471C23.11 4.67429 22.496 5.07347 22.0643 5.61422C21.4367 5.38637 20.7336 5.35693 20.0572 5.60308C19.3559 5.85831 18.8208 6.35802 18.4894 6.96552C17.8319 6.85012 17.1344 6.94316 16.5109 7.30303C15.8645 7.67624 15.4245 8.26126 15.2036 8.91703C14.5361 8.91755 13.8652 9.13032 13.3136 9.59297C12.7419 10.0728 12.4099 10.7254 12.3063 11.4096C11.6491 11.526 11.0253 11.852 10.5627 12.4034C10.083 12.9751 9.86933 13.6754 9.88609 14.3672C9.25899 14.596 8.70149 15.0254 8.34141 15.6487C7.9682 16.2951 7.87954 17.0218 8.01639 17.7002C7.43853 18.0345 6.96376 18.5542 6.71761 19.2305C6.46218 19.9319 6.5011 20.663 6.75344 21.3074C6.24259 21.7368 5.86525 22.3311 5.74024 23.0399C5.6106 23.7749 5.77582 24.4881 6.1364 25.0788C5.70751 25.5905 5.43945 26.2413 5.43945 26.961C5.43945 27.7075 5.72581 28.3812 6.1833 28.9003C5.85003 29.4787 5.69873 30.1661 5.824 30.8749C5.95339 31.61 6.35265 32.2237 6.8934 32.6555C6.66555 33.283 6.63591 33.9862 6.88231 34.6625C7.13747 35.3639 7.63724 35.899 8.24475 36.2304C8.12927 36.8878 8.22232 37.5856 8.58213 38.2088C8.95534 38.8553 9.54043 39.2954 10.1961 39.5163C10.1967 40.1838 10.4096 40.8547 10.8722 41.4061C11.3519 41.9779 12.0045 42.3098 12.6888 42.4134L46.1127 39.0735Z" fill="#EBEBEB"/>
<path d="M21.5654 44.9775H34.4342V49.5485C34.4342 50.8137 33.407 51.8409 32.1418 51.8409H23.8578C22.5926 51.8409 21.5654 50.8137 21.5654 49.5485L21.5654 44.9775Z" fill="#767676"/>
<path fill-rule="evenodd" clip-rule="evenodd" d="M50.9176 23.1006C52.2495 23.1006 53.3177 24.2453 53.1893 25.5709C51.9476 38.3892 41.1439 48.4091 27.9998 48.4091C14.8558 48.4091 4.05201 38.3892 2.81029 25.5709C2.68187 24.2453 3.7501 23.1006 5.08197 23.1006H50.9176Z" fill="#BABABA"/>
</g>
<defs>
<clipPath id="clip0_442_2677">
<rect width="56" height="56" fill="white"/>
</clipPath>
</defs>
</svg>
