<svg width="24" height="24" viewBox="0 0 24 24" fill="none" xmlns="http://www.w3.org/2000/svg">
<rect width="24" height="24" rx="8" fill="#6BB64A"/>
<path d="M8.25 18C7.90625 18 7.61188 17.8787 7.36688 17.636C7.12188 17.3933 6.99958 17.102 7 16.7619V10.5714C7 10.231 7.1225 9.93938 7.3675 9.69671C7.6125 9.45405 7.90667 9.33292 8.25 9.33333H8.875V8.09524C8.875 7.23889 9.17979 6.50883 9.78938 5.90505C10.399 5.30127 11.1358 4.99959 12 5C12.8646 5 13.6017 5.30189 14.2112 5.90567C14.8208 6.50944 15.1254 7.2393 15.125 8.09524V9.33333H15.75C16.0937 9.33333 16.3881 9.45467 16.6331 9.69733C16.8781 9.94 17.0004 10.2314 17 10.5714V16.7619C17 17.1024 16.8775 17.394 16.6325 17.6366C16.3875 17.8793 16.0933 18.0004 15.75 18H8.25ZM12 14.9048C12.3438 14.9048 12.6381 14.7834 12.8831 14.5408C13.1281 14.2981 13.2504 14.0067 13.25 13.6667C13.25 13.3262 13.1275 13.0346 12.8825 12.792C12.6375 12.5493 12.3433 12.4282 12 12.4286C11.6563 12.4286 11.3619 12.5499 11.1169 12.7926C10.8719 13.0352 10.7496 13.3266 10.75 13.6667C10.75 14.0071 10.8725 14.2987 11.1175 14.5414C11.3625 14.784 11.6567 14.9052 12 14.9048ZM10.125 9.33333H13.875V8.09524C13.875 7.57937 13.6927 7.14087 13.3281 6.77976C12.9635 6.41865 12.5208 6.2381 12 6.2381C11.4792 6.2381 11.0365 6.41865 10.6719 6.77976C10.3073 7.14087 10.125 7.57937 10.125 8.09524V9.33333Z" fill="white"/>
</svg>
