<svg width="60" height="60" viewBox="0 0 60 60" fill="none" xmlns="http://www.w3.org/2000/svg">
<g clip-path="url(#clip0_464_2851)">
<path d="M45.308 15.4461L44.9087 15.0371C43.9069 14.0106 42.7943 13.1639 41.6193 12.4597C35.4463 8.7613 27.336 9.49702 21.9444 14.7598L9.77418 26.6401C6.88808 29.4574 8.04191 35.4918 12.1761 41.201L13.2889 40.1145C10.2704 35.583 9.52278 30.9456 11.8039 28.7191C14.6976 25.8941 21.353 28.0189 26.6691 33.4652C31.9852 38.9111 33.949 45.6157 31.0552 48.4403C28.7284 50.7115 23.97 49.7777 19.431 46.4957L18.3627 47.5383C23.9705 51.809 29.9753 53.108 32.8613 50.2911L45.031 38.4112C50.4227 33.148 51.3541 25.0577 47.8057 18.7973C47.1302 17.6053 46.31 16.4726 45.308 15.4461Z" fill="#F77F00"/>
<path d="M21.1143 37.444L22.334 38.6931C23.7055 40.0983 23.6783 42.3494 22.2733 43.7208L19.4309 46.4956C23.9699 49.7776 28.7284 50.7114 31.0551 48.4402C33.9489 45.6156 31.9851 38.911 26.669 33.4651C21.3529 28.0188 14.6976 25.894 11.8039 28.719C9.52273 30.9456 10.2703 35.5829 13.2888 40.1144L16.0868 37.3832C17.4919 36.0117 19.7428 36.0388 21.1143 37.444Z" fill="#E32939"/>
<path d="M58.5 13.6649C58.47 16.1101 56.46 18.0602 54.015 18.0301L51.225 18.0001V18.0151L48.63 17.9851L47.805 18.7951C47.13 17.6101 46.305 16.4701 45.315 15.4502L44.91 15.0301C43.905 14.0099 42.795 13.1701 41.625 12.4652L42.45 11.6401L42.495 9.04514L42.525 6.26999C42.555 3.82517 44.55 1.8751 46.995 1.90513C49.44 1.93516 51.405 3.93028 51.375 6.3751L51.345 9.15025L54.135 9.18028C56.565 9.21031 58.53 11.2201 58.5 13.6649Z" fill="#D0D5DA"/>
<path d="M22.2748 43.7249L19.4249 46.5L18.3598 47.5349L17.5499 48.345L17.5048 50.94H17.4898L17.4599 53.7301C17.4298 56.1749 15.4199 58.125 12.9749 58.095C10.5299 58.065 8.57981 56.0698 8.60984 53.625L8.63987 50.8352L5.86481 50.7898C3.43481 50.7598 1.46982 48.765 1.49985 46.3199C1.52988 43.875 3.53984 41.9099 5.98484 41.94L8.74488 41.985L11.3399 42.015L12.1799 41.205L13.2898 40.11L16.0798 37.3799C17.4898 36.015 19.7398 36.0451 21.1199 37.44L22.3349 38.7001C23.6999 40.095 23.6848 42.345 22.2748 43.7249Z" fill="#D0D5DA"/>
</g>
<defs>
<clipPath id="clip0_464_2851">
<rect width="60" height="60" fill="white"/>
</clipPath>
</defs>
</svg>
