<svg width="40" height="40" viewBox="0 0 40 40" fill="none" xmlns="http://www.w3.org/2000/svg">
<path d="M25.2085 35.1668L11.1669 21.1668C11.0002 21.0002 10.8819 20.8196 10.8119 20.6252C10.7419 20.4307 10.7074 20.2224 10.7085 20.0002C10.7085 19.7779 10.743 19.5696 10.8119 19.3752C10.8807 19.1807 10.9991 19.0002 11.1669 18.8335L25.2085 4.79183C25.5974 4.40294 26.0835 4.2085 26.6669 4.2085C27.2502 4.2085 27.7502 4.41683 28.1669 4.8335C28.5835 5.25016 28.7919 5.73627 28.7919 6.29183C28.7919 6.84738 28.5835 7.3335 28.1669 7.75016L15.9169 20.0002L28.1669 32.2502C28.5557 32.639 28.7502 33.1185 28.7502 33.6885C28.7502 34.2585 28.5419 34.7513 28.1252 35.1668C27.7085 35.5835 27.2224 35.7918 26.6669 35.7918C26.1113 35.7918 25.6252 35.5835 25.2085 35.1668Z" fill="#D3D3D3"/>
</svg>
