<svg width="168" height="80" viewBox="0 0 168 80" fill="none" xmlns="http://www.w3.org/2000/svg">
<rect width="80" height="80" rx="8" fill="white"/>
<g clip-path="url(#clip0_1047_1560)">
<path d="M51 39.0558C58.1492 39.0558 63.9449 35.6988 63.9449 31.5577C63.9449 27.4166 58.1492 24.0596 51 24.0596C43.8508 24.0596 38.0551 27.4166 38.0551 31.5577C38.0551 35.6988 43.8508 39.0558 51 39.0558Z" fill="#BABABA"/>
<path d="M51 36.7193C61.2132 36.7193 69.4927 31.9236 69.4927 26.0077C69.4927 20.0919 61.2132 15.2961 51 15.2961C40.7868 15.2961 32.5073 20.0919 32.5073 26.0077C32.5073 31.9236 40.7868 36.7193 51 36.7193Z" fill="#D9D9D9"/>
<path d="M51 34.8733C58.7061 34.8733 64.9532 31.2548 64.9532 26.7911C64.9532 22.3275 58.7061 18.709 51 18.709C43.2939 18.709 37.0468 22.3275 37.0468 26.7911C37.0468 31.2548 43.2939 34.8733 51 34.8733Z" fill="#EC4F00"/>
<path d="M57.5063 31.0928C57.2856 31.0928 57.084 30.9453 57.0239 30.7227C55.998 26.8946 52.0474 24.6094 48.2197 25.6397C47.9551 25.707 47.6787 25.5528 47.6074 25.2852C47.5361 25.0186 47.6943 24.7451 47.961 24.6729C52.3198 23.5088 56.8213 26.1026 57.9898 30.4629C58.061 30.7305 57.9029 31.0039 57.6362 31.0762C57.5928 31.0869 57.5493 31.0928 57.5063 31.0928Z" fill="#FFAD00"/>
<path d="M56.0215 31.4912C55.8008 31.4912 55.5986 31.3437 55.5391 31.121C55.1489 29.665 54.2134 28.4472 52.9048 27.6913C51.5962 26.9365 50.0732 26.7324 48.6182 27.1249C48.3535 27.1923 48.0776 27.037 48.0059 26.7714C47.9346 26.5038 48.0928 26.2304 48.3594 26.1581C50.0723 25.7021 51.8643 25.9355 53.4048 26.8251C54.9448 27.7148 56.0459 29.1484 56.5049 30.8612C56.5762 31.1288 56.418 31.4023 56.1514 31.4745C56.1079 31.4853 56.0645 31.4912 56.0215 31.4912Z" fill="#FFAD00"/>
<path d="M54.5361 31.8886C54.3154 31.8886 54.1133 31.7411 54.0537 31.5175C53.4673 29.3281 51.2119 28.0195 49.0161 28.6103C48.749 28.6757 48.4751 28.5234 48.4038 28.2558C48.3325 27.9892 48.4907 27.7158 48.7573 27.6435C51.4814 26.9169 54.29 28.5351 55.0195 31.2597C55.0908 31.5263 54.9326 31.7997 54.666 31.872C54.6226 31.8827 54.5791 31.8886 54.5361 31.8886Z" fill="#FFAD00"/>
<path d="M41.6289 26.1249C41.5439 26.1249 41.458 26.1034 41.3794 26.0575C41.1401 25.9198 41.0581 25.6142 41.1963 25.3749C43.2739 21.7773 47.8906 20.538 51.4897 22.6171C51.729 22.7548 51.811 23.0605 51.6729 23.2997C51.5347 23.539 51.2275 23.62 50.9897 23.4824C47.8687 21.6826 43.8638 22.7558 42.0625 25.8749C41.9697 26.0351 41.8018 26.1249 41.6289 26.1249Z" fill="#FFAD00"/>
<path d="M42.8477 26.8289C42.7627 26.8289 42.6768 26.8074 42.5981 26.7615C42.3589 26.6238 42.2769 26.3182 42.415 26.0789C44.106 23.1531 47.8618 22.1463 50.7866 23.8357C51.0259 23.9734 51.1079 24.2791 50.9697 24.5184C50.8311 24.7566 50.5249 24.8397 50.2866 24.701C47.8389 23.2879 44.6963 24.1297 43.2812 26.5789C43.1885 26.7391 43.0205 26.8289 42.8477 26.8289Z" fill="#FFAD00"/>
<path d="M44.3555 27.0955C44.2505 27.0955 44.1445 27.0623 44.0547 26.9949C43.834 26.828 43.7905 26.5145 43.957 26.2938C45.3892 24.3983 48.0239 23.8651 50.083 25.0545C50.3223 25.1922 50.4043 25.4979 50.2661 25.7371C50.1274 25.9754 49.8213 26.0574 49.583 25.9198C47.958 24.9832 45.8833 25.4032 44.7549 26.8973C44.6567 27.0272 44.5068 27.0955 44.3555 27.0955Z" fill="#FFAD00"/>
<path d="M61.7383 27.8652C61.5654 27.8652 61.3975 27.7753 61.3047 27.6152C60.3447 25.9521 58.7944 24.7626 56.9399 24.2656C55.0845 23.7685 53.1489 24.0244 51.4853 24.9833C51.2466 25.121 50.9404 25.039 50.8022 24.8007C50.6641 24.5615 50.7461 24.2558 50.9853 24.1181C52.8799 23.0253 55.085 22.7333 57.1987 23.2997C59.3115 23.8662 61.0772 25.2206 62.1709 27.1152C62.3091 27.3544 62.227 27.6601 61.9878 27.7978C61.9092 27.8437 61.8232 27.8652 61.7383 27.8652Z" fill="#FFAD00"/>
<path d="M60.4062 28.6337C60.2334 28.6337 60.0654 28.5438 59.9727 28.3837C59.2192 27.079 58.0005 26.1454 56.541 25.7538C55.0806 25.3632 53.5591 25.5624 52.2539 26.3153C52.0142 26.453 51.7085 26.372 51.5708 26.1327C51.4326 25.8935 51.5146 25.5878 51.7539 25.4501C53.2891 24.5624 55.0806 24.3251 56.7998 24.788C58.5171 25.2479 59.9517 26.3476 60.8389 27.8837C60.977 28.1229 60.895 28.4286 60.6558 28.5663C60.5771 28.6122 60.4912 28.6337 60.4062 28.6337Z" fill="#FFAD00"/>
<path d="M59.0747 29.4034C58.9019 29.4034 58.7339 29.3136 58.6411 29.1534C57.9087 27.8839 56.543 27.0977 55.0737 27.0977C55.0674 27.0987 55.063 27.1065 55.0542 27.0977C54.7788 27.0977 54.5552 26.8751 54.5542 26.5997C54.5532 26.3165 54.7896 26.0928 55.0737 26.0977C56.8994 26.0977 58.5967 27.0753 59.5073 28.6534C59.6455 28.8927 59.5635 29.1983 59.3242 29.336C59.2456 29.3819 59.1597 29.4034 59.0747 29.4034Z" fill="#FFAD00"/>
<path d="M50.7651 30.9413C50.5923 30.9413 50.4243 30.8515 50.3316 30.6913C49.3716 29.0282 47.8213 27.8388 45.9668 27.3417C44.1113 26.8437 42.1753 27.1005 40.5122 28.0595C40.2734 28.1972 39.9673 28.1151 39.8291 27.8769C39.6909 27.6376 39.7729 27.3319 40.0122 27.1942C41.9062 26.1005 44.1123 25.8095 46.2256 26.3759C48.3384 26.9423 50.104 28.2968 51.1978 30.1913C51.3359 30.4306 51.2539 30.7362 51.0147 30.8739C50.936 30.9198 50.8501 30.9413 50.7651 30.9413Z" fill="#FFAD00"/>
<path d="M49.4336 31.7099C49.2607 31.7099 49.0928 31.62 49 31.4599C48.2466 30.1552 47.0278 29.2216 45.5684 28.83C44.1084 28.4384 42.5864 28.6386 41.2813 29.3915C41.0425 29.5292 40.7358 29.4472 40.5981 29.2089C40.46 28.9696 40.542 28.664 40.7813 28.5263C42.3164 27.6376 44.1079 27.4023 45.8272 27.8642C47.5444 28.3241 48.979 29.4237 49.8662 30.9599C50.0044 31.1991 49.9224 31.5048 49.6831 31.6425C49.6045 31.6884 49.5186 31.7099 49.4336 31.7099Z" fill="#FFAD00"/>
<path d="M46.4341 30.8037C46.3486 30.8037 46.2622 30.7823 46.1831 30.7364C44.9062 29.9922 43.3232 29.9883 42.0503 30.7227C41.811 30.8614 41.5049 30.7783 41.3672 30.5401C41.229 30.3008 41.311 29.9951 41.5503 29.8574C43.1333 28.9424 45.1016 28.9483 46.686 29.8711C46.9248 30.0108 47.0058 30.3164 46.8667 30.5557C46.7739 30.7149 46.6064 30.8037 46.4341 30.8037Z" fill="#FFAD00"/>
<path d="M48.193 31.4165C48.1079 31.5621 48.1682 31.744 48.3234 31.8098C48.758 31.9941 49.6461 32.2828 50.4722 32.0087C51.2983 31.7347 51.8377 30.9724 52.076 30.5649C52.1611 30.4193 52.1007 30.2374 51.9455 30.1715C51.5109 29.9872 50.6228 29.6985 49.7967 29.9726C48.9706 30.2467 48.4312 31.009 48.193 31.4165Z" fill="#036D50"/>
<path d="M61.9458 29.324C62.0426 29.4621 61.9972 29.6485 61.8478 29.7266C61.4331 29.9435 60.5828 30.2975 59.7482 30.0943C58.9137 29.8912 58.3213 29.186 58.0526 28.8027C57.9558 28.6647 58.0012 28.4782 58.1506 28.4001C58.5654 28.1832 59.4156 27.8292 60.2502 28.0324C61.0848 28.2356 61.6772 28.9408 61.9458 29.324Z" fill="#036D50"/>
<path d="M55.0749 24.6277C55.1005 24.481 55.0799 24.3255 54.9996 24.1864C54.9163 24.0422 54.7858 23.944 54.6396 23.8948C54.6395 23.7459 54.592 23.5962 54.4888 23.4732C54.3818 23.3457 54.2362 23.2717 54.0836 23.2485C54.0576 23.102 53.9849 22.9628 53.8619 22.8596C53.7344 22.7526 53.5782 22.7049 53.4238 22.7087C53.3728 22.5688 53.277 22.4444 53.138 22.3641C52.9938 22.2809 52.8317 22.2611 52.6804 22.2916C52.6059 22.1627 52.49 22.0568 52.3391 22.0019C52.1826 21.945 52.0195 21.9536 51.8758 22.0099C51.78 21.896 51.6475 21.8119 51.4894 21.7839C51.3254 21.755 51.1663 21.7919 51.0346 21.8722C50.9204 21.7766 50.7753 21.7168 50.6147 21.7168C50.4482 21.7168 50.2979 21.7807 50.1821 21.8828C50.0531 21.8084 49.8998 21.7747 49.7417 21.8026C49.5778 21.8315 49.4408 21.9206 49.3445 22.0411C49.2045 21.9904 49.0477 21.9837 48.8968 22.0387C48.7404 22.0956 48.6211 22.2071 48.5471 22.3426C48.4005 22.3168 48.2449 22.3376 48.1058 22.4179C47.9616 22.501 47.8635 22.6316 47.8142 22.7779C47.6653 22.7779 47.5157 22.8255 47.3926 22.9286C47.2651 23.0357 47.1911 23.1812 47.168 23.3339C47.0213 23.3598 46.8822 23.4326 46.779 23.5555C46.672 23.6831 46.6244 23.8393 46.6281 23.9936C46.4882 24.0446 46.3639 24.1404 46.2836 24.2794C46.2003 24.4236 46.1805 24.5857 46.2111 24.737C46.0822 24.8116 45.9214 24.9091 45.9214 25.0784L45.9249 25.0933H45.9185C45.9185 26.6065 48.0363 27.8332 50.6486 27.8332C53.261 27.8332 55.3788 26.6065 55.3788 25.0933C55.3788 24.8663 55.2104 24.7016 55.0749 24.6277Z" fill="#CB2C29"/>
</g>
<g clip-path="url(#clip1_1047_1560)">
<path d="M10.3405 34.5302C10.4207 35.9991 11.2193 37.3601 12.5243 38.5088C12.4323 38.1736 12.3712 37.8324 12.3712 37.4823C12.3712 35.6473 13.6889 33.9943 15.7968 32.8161C16.1142 32.4718 16.5174 32.2005 17.0023 32.0704C17.0859 32.0482 17.1691 32.0435 17.2527 32.0298C17.4808 30.857 18.3478 29.857 19.5746 29.5283C21.0006 29.1461 22.4472 29.7991 23.1602 31.0174C23.2741 31.0155 23.3853 31.0074 23.5 31.0074C29.6463 31.0074 34.6288 33.9062 34.6288 37.4823C34.6288 37.8324 34.5677 38.1736 34.4757 38.5088C35.7807 37.3601 36.5792 35.9993 36.6595 34.5305C36.6639 34.4482 36.6808 34.3675 36.6808 34.2844C36.6808 32.9915 36.1253 31.7751 35.1539 30.7064C32.9435 28.2747 28.5571 26.6157 23.5 26.6157C18.4429 26.6157 14.0565 28.2747 11.8461 30.7064C10.8747 31.7752 10.3192 32.9915 10.3192 34.2844C10.3192 34.3675 10.336 34.448 10.3405 34.5302Z" fill="#3D3D3D"/>
<path d="M34.6288 37.4822C34.6288 33.9062 29.6463 31.0073 23.5 31.0073C23.3853 31.0073 23.2741 31.0154 23.1602 31.0174C23.3043 31.2637 23.4292 31.5243 23.506 31.8138C23.5089 31.8242 23.51 31.8347 23.5128 31.8452C23.6112 31.8056 23.706 31.7601 23.811 31.7319C25.2278 31.3523 26.6827 32.1981 27.0607 33.6212L27.0685 33.6522C27.1982 34.1976 26.7651 34.7192 26.2068 34.7192H16.1416C15.5204 34.7192 15.0704 34.0797 15.3233 33.5097C15.4376 33.2521 15.6053 33.0239 15.7968 32.8161C13.6889 33.9942 12.3712 35.6472 12.3712 37.4822C12.3712 37.8324 12.4323 38.1735 12.5243 38.5087C14.8796 40.5815 18.9075 41.953 23.5 41.953C28.0925 41.953 32.1204 40.5815 34.4757 38.5087C34.5677 38.1735 34.6288 37.8324 34.6288 37.4822ZM16.7941 37.472C17.0701 36.7978 17.7306 36.3231 18.5014 36.3231C19.2723 36.3231 19.9328 36.7978 20.2088 37.472C20.3469 37.8093 20.0723 38.1765 19.7093 38.1765H17.2936C16.9306 38.1765 16.656 37.8093 16.7941 37.472ZM27.3679 39.7812H22.8887C22.2591 39.7812 21.84 39.1385 22.0745 38.5516C22.5601 37.3359 23.7444 36.4774 25.1283 36.4774C26.5122 36.4774 27.6965 37.3359 28.1821 38.5516C28.4165 39.1385 27.9975 39.7812 27.3679 39.7812ZM28.728 35.7028C28.365 35.7028 28.0905 35.3355 28.2285 34.9984C28.5046 34.324 29.1651 33.8494 29.9359 33.8494C30.7068 33.8494 31.3672 34.324 31.6433 34.9984C31.7814 35.3355 31.5068 35.7028 31.1437 35.7028H28.728Z" fill="#FFAD00"/>
<path d="M16.1416 34.7192H26.2068C26.7651 34.7192 27.1982 34.1975 27.0685 33.6522L27.0607 33.6212C26.6827 32.198 25.2278 31.3523 23.811 31.7319C23.706 31.7601 23.6112 31.8056 23.5128 31.8451C23.51 31.8347 23.5089 31.8242 23.506 31.8137C23.4292 31.5243 23.3043 31.2636 23.1602 31.0173C22.4472 29.799 21.0006 29.146 19.5746 29.5282C18.3478 29.8569 17.4808 30.8569 17.2527 32.0297C17.1691 32.0434 17.0859 32.0481 17.0023 32.0703C16.5174 32.2004 16.1142 32.4717 15.7968 32.816C15.6053 33.0239 15.4376 33.252 15.3232 33.5097C15.0704 34.0796 15.5204 34.7192 16.1416 34.7192Z" fill="#037F56"/>
<path d="M31.6433 34.9984C31.3673 34.324 30.7068 33.8494 29.9359 33.8494C29.1651 33.8494 28.5046 34.324 28.2286 34.9984C28.0905 35.3355 28.3651 35.7028 28.7281 35.7028H31.1438C31.5068 35.7028 31.7814 35.3355 31.6433 34.9984Z" fill="#F77F00"/>
<path d="M20.2088 37.4721C19.9328 36.7979 19.2723 36.3232 18.5014 36.3232C17.7306 36.3232 17.0701 36.7979 16.7941 37.4721C16.656 37.8094 16.9306 38.1766 17.2936 38.1766H19.7093C20.0723 38.1766 20.3469 37.8094 20.2088 37.4721Z" fill="#F77F00"/>
<path d="M39.6875 34.2843C39.6875 32.3083 38.0926 30.7063 36.1252 30.7063H35.1539C36.1253 31.7751 36.6808 32.9914 36.6808 34.2843C36.6808 34.3674 36.664 34.4479 36.6595 34.5302C36.6729 34.4962 36.6808 34.4746 36.6808 34.4746V37.8063C38.3825 37.5367 39.6875 36.0693 39.6875 34.2843Z" fill="#4E5968"/>
<path d="M10.3405 34.5302C10.336 34.4479 10.3192 34.3674 10.3192 34.2843C10.3192 32.9914 10.8747 31.7751 11.8461 30.7063H10.8748C8.90741 30.7063 7.3125 32.3083 7.3125 34.2843C7.3125 36.0693 8.61753 37.5367 10.3192 37.8063V34.4746C10.3192 34.4746 10.3271 34.4962 10.3405 34.5302Z" fill="#4E5968"/>
<path d="M28.1821 38.5516C27.6965 37.3359 26.5122 36.4773 25.1283 36.4773C23.7444 36.4773 22.5601 37.3358 22.0745 38.5516C21.84 39.1384 22.2591 39.7812 22.8887 39.7812H27.3679C27.9975 39.7812 28.4165 39.1384 28.1821 38.5516Z" fill="#C50010"/>
<path d="M36.6595 34.5302C36.5793 35.999 35.7807 37.36 34.4757 38.5087C32.1204 40.5815 28.0925 41.9529 23.5 41.9529C18.9075 41.9529 14.8796 40.5815 12.5243 38.5087C11.2193 37.36 10.4208 35.9992 10.3405 34.5304C10.3271 34.4964 10.3192 34.4746 10.3192 34.4746V37.8678C10.3192 45.1797 16.2204 51.1071 23.5 51.1071C30.7796 51.1071 36.6808 45.1797 36.6808 37.8678V34.4746C36.6808 34.4746 36.6729 34.4962 36.6595 34.5302Z" fill="#4E5968"/>
</g>
<g clip-path="url(#clip2_1047_1560)">
<path d="M69.9037 47.0851C69.9037 47.7937 69.78 48.4801 69.5438 49.144L69.1725 49.9762C69.1612 49.9987 69.15 50.0102 69.1387 50.0327C69.06 50.1789 68.97 50.325 68.88 50.4714C68.8238 50.5612 68.7675 50.6625 68.7 50.7639C68.5538 50.9663 68.4075 51.1687 68.2387 51.3714C68.2162 51.4049 68.1938 51.4275 68.1712 51.45C67.98 51.6752 67.7888 51.9001 67.575 52.1138C67.395 52.2827 67.1925 52.4514 67.0013 52.62C67.1137 52.1814 67.1925 51.7425 67.1925 51.2926C67.1925 48.5477 64.9425 46.1175 61.4662 44.5539L62.5237 40.8075C62.58 40.6051 62.5237 40.4027 62.4112 40.2225L63.4349 39.2439C65.2575 40.1102 66.7762 41.1676 67.89 42.3824C69.1725 43.7887 69.9037 45.3864 69.9037 47.0851Z" fill="#3D3D3D"/>
<path d="M58.4963 37.6352L50.5087 39.2887C47.6175 39.7839 45.21 41.7076 44.0625 44.3289C40.2825 45.87 37.8075 48.4125 37.8075 51.2926C37.8075 51.7425 37.8863 52.1814 37.9987 52.62C37.8075 52.4514 37.605 52.2827 37.4362 52.1138C36.975 51.6527 36.5925 51.1577 36.255 50.6513L36.3 50.7526C35.9737 50.2689 35.715 49.785 35.5125 49.2675C35.5125 49.2563 35.5013 49.245 35.49 49.2225C35.3663 48.8962 35.2763 48.5589 35.2088 48.2101C35.2088 48.2026 35.205 48.1951 35.1975 48.1876C35.13 47.8275 35.0963 47.4564 35.0963 47.0851C35.0963 45.3863 35.8275 43.7886 37.11 42.3824C40.035 39.1876 45.8175 37.0051 52.5 37.0051C54.615 37.0051 56.6287 37.2413 58.4963 37.6352Z" fill="#3D3D3D"/>
<path d="M67.1952 51.2935C67.1952 48.5494 64.9437 46.1154 61.4627 44.5587L60.5165 47.8831C60.5095 48.333 60.3469 48.7373 60.0611 49.0977C60.3283 49.0317 60.6041 48.9875 60.8917 48.9875C62.3536 48.9875 63.6046 49.8903 64.1176 51.1688C64.3653 51.7863 63.9226 52.4622 63.2575 52.4622H58.5259C57.8608 52.4622 57.4181 51.7863 57.6658 51.1688C57.7801 50.884 57.936 50.6217 58.1178 50.38C53.3866 52.2518 43.2996 51.2518 43.3563 47.6151C43.3746 46.4472 43.6274 45.3381 44.0659 44.3296C40.2833 45.8699 37.8048 48.4121 37.8048 51.2936C37.8048 51.7454 37.8833 52.1854 38.0003 52.618C38.1847 52.7819 38.3526 52.9528 38.5541 53.1093L38.5834 53.1346C39.0041 53.4592 39.4643 53.7652 39.9479 54.058C40.0957 54.147 40.2561 54.2286 40.4094 54.3145C40.7479 54.5051 41.0961 54.6897 41.4604 54.8636C41.6739 54.9655 41.8936 55.0627 42.1153 55.1586C45.015 56.4154 48.5987 57.1713 52.5 57.1713C56.425 57.1713 60.0303 56.4074 62.9392 55.1366C63.115 55.06 63.2919 54.9844 63.4624 54.9039C63.9777 54.6606 64.4779 54.4065 64.9417 54.1313C64.9565 54.1225 64.9693 54.1127 64.9842 54.1039C65.4498 53.8251 65.8816 53.5282 66.2899 53.2203C66.3819 53.1511 66.4697 53.0799 66.5586 53.0094C66.7166 52.8836 66.8508 52.7479 66.9996 52.6182C67.1166 52.1854 67.1952 51.7454 67.1952 51.2935ZM44.5413 52.2065H41.3514C40.8721 52.2065 40.5095 51.7237 40.6918 51.2801C41.0564 50.3938 41.9285 49.7697 42.9464 49.7697C43.9643 49.7697 44.8364 50.3938 45.2009 51.2801C45.3832 51.7237 45.0206 52.2065 44.5413 52.2065ZM49.9771 55.3642C49.4978 55.3642 49.1352 54.8814 49.3175 54.4381C49.682 53.5518 50.5541 52.9277 51.572 52.9277C52.5899 52.9277 53.462 53.5518 53.8265 54.4381C54.0088 54.8814 53.6463 55.3642 53.167 55.3642H49.9771Z" fill="#FFC450"/>
<path d="M53.8265 54.4381C53.462 53.5518 52.5899 52.9277 51.572 52.9277C50.5541 52.9277 49.682 53.5518 49.3175 54.4381C49.1352 54.8814 49.4978 55.3642 49.9771 55.3642H53.1669C53.6463 55.3642 54.0088 54.8814 53.8265 54.4381Z" fill="#FFE3A0"/>
<path d="M42.9464 49.7698C41.9285 49.7698 41.0564 50.3938 40.6918 51.2801C40.5095 51.7237 40.8721 52.2065 41.3514 52.2065H44.5413C45.0206 52.2065 45.3832 51.7237 45.2009 51.2801C44.8363 50.3938 43.9642 49.7698 42.9464 49.7698Z" fill="#036D50"/>
<path d="M67.9687 37.0385C67.9462 38.0287 67.125 38.8161 66.135 38.7936L64.9987 38.7711L63.9525 38.7486L63.435 39.2438L62.4113 40.2224C62.3887 40.1889 62.3775 40.1438 62.3438 40.1101L60.015 37.6799C59.9925 37.6576 59.9588 37.6461 59.925 37.6236L61.4662 36.15L61.4887 35.0923L61.5113 33.9789C61.5338 32.9774 62.355 32.2013 63.345 32.2125C64.3463 32.235 65.1225 33.0563 65.1113 34.0574L65.0775 35.1711L66.2138 35.2049C67.2038 35.2274 67.9913 36.0487 67.9687 37.0385Z" fill="#D5D5D5"/>
<path d="M62.5237 40.8075L61.4662 44.5538L60.5212 47.8838C60.51 48.3337 60.3525 48.7388 60.06 49.0989C59.2725 49.2901 58.5862 49.7515 58.1137 50.3813C53.3887 52.2487 43.2975 51.2475 43.3537 47.6138C43.3763 46.4438 43.6237 45.3413 44.0625 44.3289C45.21 41.7076 47.6175 39.7839 50.5087 39.2887L58.4963 37.6352L59.3175 37.4663C59.5425 37.4212 59.7562 37.4888 59.925 37.6237C59.9587 37.6462 59.9925 37.6577 60.015 37.68L62.3438 40.1102C62.3775 40.1439 62.3887 40.189 62.4113 40.2225C62.5237 40.4027 62.58 40.6051 62.5237 40.8075Z" fill="#F77F00"/>
<path d="M58.1178 50.3801C57.936 50.6218 57.7801 50.8841 57.6658 51.1689C57.4181 51.7863 57.8609 52.4622 58.5259 52.4622H63.2575C63.9226 52.4622 64.3653 51.7863 64.1176 51.1689C63.6047 49.8904 62.3537 48.9875 60.8917 48.9875C60.6041 48.9875 60.3283 49.0318 60.0611 49.0977C59.2725 49.2919 58.5912 49.7503 58.1178 50.3801Z" fill="#C50010"/>
<path d="M69.1711 42.386H67.8885C69.1712 43.7909 69.9048 45.3899 69.9048 47.0898C69.9048 47.7937 69.7783 48.4804 69.5414 49.1434C69.44 49.4274 69.3136 49.7056 69.1703 49.9795C69.1444 50.0297 69.1225 50.0805 69.0953 50.1305L68.3435 51.7939H69.1712C71.769 51.7939 73.875 49.6878 73.875 47.0898C73.875 44.4921 71.769 42.386 69.1711 42.386Z" fill="#4E5968"/>
<path d="M35.5155 49.2717C35.5092 49.2555 35.5001 49.2395 35.4939 49.2231C35.37 48.8907 35.2738 48.5523 35.2082 48.2082L35.1975 48.1832H35.2015L35.2026 48.187C35.1351 47.8264 35.0952 47.4608 35.0952 47.0898C35.0952 45.3899 35.8288 43.7909 37.1115 42.386H35.8289C33.231 42.386 31.125 44.4921 31.125 47.0898C31.125 49.6878 33.231 51.7939 35.8289 51.7939H36.7424L36.295 50.7482C35.9742 50.272 35.7094 49.78 35.5155 49.2717Z" fill="#4E5968"/>
<path d="M69.1413 50.0286C69.0624 50.1766 68.9731 50.3219 68.8827 50.4669C68.8212 50.5655 68.763 50.6647 68.6963 50.7619C68.5542 50.9687 68.4027 51.1731 68.2383 51.3733C68.2161 51.4002 68.1937 51.4271 68.1711 51.4538C67.9832 51.6776 67.7842 51.8976 67.5702 52.1118C67.3959 52.2871 67.1922 52.4502 66.9996 52.6183C66.8508 52.748 66.7166 52.8836 66.5587 53.0094C66.4697 53.08 66.3819 53.1512 66.2899 53.2204C65.8816 53.5283 65.4498 53.8252 64.9842 54.104C64.9694 54.1127 64.9565 54.1226 64.9417 54.1314C64.4779 54.4066 63.9777 54.6607 63.4624 54.904C63.2919 54.9845 63.115 55.06 62.9392 55.1367C60.0304 56.4075 56.4251 57.1713 52.5 57.1713C48.5987 57.1713 45.015 56.4155 42.1153 55.1586C41.8936 55.0628 41.6739 54.9656 41.4604 54.8637C41.0961 54.6898 40.7479 54.5052 40.4094 54.3146C40.2562 54.2286 40.0957 54.1471 39.9479 54.0581C39.4643 53.7653 39.0041 53.4593 38.5834 53.1347L38.5541 53.1094C38.3526 52.9529 38.1848 52.782 38.0003 52.618C37.8107 52.4494 37.6049 52.2876 37.4308 52.113C36.9697 51.6504 36.5887 51.1593 36.2552 50.6548L36.295 50.7482L36.7424 51.7938L38.2703 55.3644H38.29C39.4117 59.7029 44.6979 63.0331 52.5 63.0331C60.3021 63.0331 65.5884 59.7029 66.71 55.3644H66.7295L68.3435 51.7938L69.0953 50.1305L69.1413 50.0286Z" fill="#4E5968"/>
</g>
<g clip-path="url(#clip3_1047_1560)">
<path d="M26 73.0756C33.1521 73.0756 38.95 69.7173 38.95 65.5746C38.95 61.4318 33.1521 58.0735 26 58.0735C18.8479 58.0735 13.05 61.4318 13.05 65.5746C13.05 69.7173 18.8479 73.0756 26 73.0756Z" fill="#BABABA"/>
<path d="M26 70.7383C36.2173 70.7383 44.5 65.9407 44.5 60.0225C44.5 54.1043 36.2173 49.3066 26 49.3066C15.7827 49.3066 7.5 54.1043 7.5 60.0225C7.5 65.9407 15.7827 70.7383 26 70.7383Z" fill="#D9D9D9"/>
<path d="M26 68.8914C33.7092 68.8914 39.9587 65.2715 39.9587 60.8061C39.9587 56.3406 33.7092 52.7207 26 52.7207C18.2908 52.7207 12.0413 56.3406 12.0413 60.8061C12.0413 65.2715 18.2908 68.8914 26 68.8914Z" fill="#995C00"/>
<path d="M23.217 66.4157C23.5084 66.4157 23.7288 66.1221 23.618 65.8526C23.3964 65.3137 22.8662 64.9343 22.2474 64.9343C21.6286 64.9343 21.0984 65.3137 20.8768 65.8526C20.766 66.1221 20.9864 66.4157 21.2778 66.4157H23.217Z" fill="#901A18"/>
<path d="M37.2273 57.5671C37.7322 57.5671 38.0682 57.054 37.8802 56.5854C37.4908 55.6148 36.5411 54.9294 35.4313 54.9294C34.3216 54.9294 33.3719 55.6148 32.9825 56.5854C32.7944 57.054 33.1305 57.5671 33.6354 57.5671H37.2273Z" fill="#F77F00"/>
<path d="M30.5693 66.1992C31.0742 66.1992 31.4103 65.686 31.2223 65.2175C30.8328 64.2469 29.8832 63.5615 28.7734 63.5615C27.6636 63.5615 26.7139 64.2469 26.3245 65.2175C26.1365 65.686 26.4725 66.1992 26.9774 66.1992H30.5693Z" fill="#F77F00"/>
<path d="M37.8007 60.5819C38.0921 60.5819 38.3125 60.2884 38.2017 60.0189C37.9801 59.48 37.4499 59.1006 36.8311 59.1006C36.2123 59.1006 35.6821 59.48 35.4605 60.0189C35.3497 60.2884 35.5701 60.5819 35.8615 60.5819H37.8007Z" fill="#901A18"/>
<path d="M33.3544 62.4755C33.7187 62.4755 33.9942 62.1085 33.8557 61.7717C33.5786 61.098 32.9159 60.6238 32.1424 60.6238C31.3689 60.6238 30.7062 61.098 30.4292 61.7717C30.2906 62.1085 30.5662 62.4755 30.9304 62.4755H33.3544Z" fill="#FFCD00"/>
<path d="M29.9491 56.8716C29.9969 56.5987 29.9584 56.3092 29.809 56.0504C29.6541 55.7821 29.4113 55.5994 29.1391 55.5078C29.1389 55.2307 29.0506 54.9522 28.8585 54.7232C28.6594 54.486 28.3885 54.3482 28.1045 54.3052C28.0561 54.0325 27.9208 53.7735 27.692 53.5814C27.4547 53.3824 27.164 53.2936 26.8768 53.3007C26.7818 53.0403 26.6036 52.8088 26.3449 52.6594C26.0766 52.5046 25.7749 52.4678 25.4933 52.5246C25.3547 52.2846 25.139 52.0876 24.8582 51.9855C24.567 51.8795 24.2635 51.8955 23.9962 52.0004C23.8178 51.7883 23.5712 51.6318 23.277 51.5798C22.9719 51.526 22.6759 51.5946 22.4307 51.7441C22.2183 51.5661 21.9482 51.4548 21.6494 51.4548C21.3396 51.4548 21.0599 51.5738 20.8444 51.7637C20.6044 51.6254 20.319 51.5625 20.0248 51.6145C19.7198 51.6682 19.465 51.834 19.2858 52.0584C19.0253 51.9639 18.7334 51.9515 18.4527 52.0538C18.1616 52.1597 17.9395 52.3672 17.8019 52.6194C17.529 52.5714 17.2395 52.6101 16.9807 52.7595C16.7124 52.9142 16.5298 53.1571 16.4381 53.4294C16.161 53.4294 15.8826 53.5179 15.6536 53.7098C15.4162 53.909 15.2785 54.1799 15.2355 54.464C14.9627 54.5123 14.7037 54.6476 14.5117 54.8764C14.3126 55.1138 14.224 55.4046 14.2309 55.6916C13.9706 55.7865 13.7392 55.9648 13.5898 56.2234C13.4348 56.4917 13.398 56.7935 13.4548 57.075C13.215 57.2138 12.9158 57.3953 12.9158 57.7103C12.9158 57.718 12.9207 57.729 12.9224 57.738H12.9104C12.9104 60.5539 16.8513 62.8365 21.7125 62.8365C26.5738 62.8365 30.5147 60.5539 30.5147 57.738C30.5147 57.3156 30.2013 57.0091 29.9491 56.8716Z" fill="#EBEBEB"/>
</g>
<circle cx="68" cy="12" r="4.35" stroke="#36D399" stroke-width="1.3"/>
<rect x="88" width="80" height="80" rx="8" fill="white"/>
<g clip-path="url(#clip4_1047_1560)">
<path d="M146.792 28.0442C146.662 27.8955 146.541 27.7461 146.418 27.5967C146.415 27.689 146.407 27.7856 146.401 27.8806C146.534 27.9258 146.663 27.9861 146.792 28.0442Z" fill="#FF9C00"/>
<path d="M159.214 33.2014C159.58 35.0911 159.031 37.1221 157.568 38.5854C156.601 39.5518 155.385 40.0962 154.128 40.2651C155.991 40.283 157.626 39.7864 158.829 38.708C158.904 38.6411 158.987 38.5867 159.059 38.5156C160.49 37.0837 161.013 34.9644 160.751 32.5435C160.618 32.6289 160.481 32.7139 160.321 32.7937C159.968 32.9702 159.596 33.1003 159.214 33.2014Z" fill="#FF9C00"/>
<path d="M134.681 19.4125C134.724 19.391 134.758 19.3608 134.802 19.3405C135.119 19.1925 135.445 19.089 135.773 19.0155C136.518 17.4237 138.265 14.2758 140.22 14.8446C140.433 14.9069 140.622 15.0114 140.8 15.1327C141.299 14.6474 141.89 14.3183 142.516 14.1401C140.015 13.8288 137.821 14.3388 136.351 15.8083C136.28 15.8793 136.226 15.9628 136.159 16.0375C135.345 16.946 134.863 18.1007 134.681 19.4125Z" fill="#FF9C00"/>
<path d="M163.264 24.4355C162.009 22.3949 157.928 22.4736 157.928 22.4736C157.928 22.4736 159.066 20.7863 156.711 19.0597C155.697 18.3158 154.509 18.3305 153.485 18.5861C154.276 18.7241 155.035 19.0732 155.646 19.684C157.237 21.2748 157.237 23.8544 155.646 25.4455C155.59 25.5014 155.525 25.54 155.467 25.592C156.665 27.2294 157.409 28.8444 157.629 30.1794C158.467 31.0453 159.001 32.0968 159.214 33.2013C159.596 33.1003 159.968 32.9701 160.321 32.7936C160.481 32.7138 160.618 32.6288 160.751 32.5434C163.234 30.9499 161.264 28.4784 161.264 28.4784C161.264 28.4784 164.52 26.476 163.264 24.4355Z" fill="#036D50"/>
<path d="M141.091 21.6299C141.565 22.6458 141.645 23.7432 141.397 24.7534C142.084 25.116 142.668 25.6848 143.021 26.4429C143.245 26.9221 143.349 27.4243 143.36 27.9212C144.339 27.5618 145.415 27.5449 146.401 27.8806C146.407 27.7857 146.415 27.689 146.418 27.5967C146.452 26.5759 146.323 25.7058 146.087 24.9668C145.52 25.0686 144.939 25.043 144.385 24.8289C142.55 24.1201 141.733 21.8118 142.559 19.6733C142.573 19.6372 142.591 19.6013 142.606 19.5652C142.46 18.073 142.031 15.9717 140.8 15.1328C140.622 15.0115 140.433 14.907 140.22 14.8447C138.265 14.2759 136.518 17.4238 135.773 19.0156C137.895 18.541 140.135 19.5784 141.091 21.6299Z" fill="#036D50"/>
<path d="M144.385 24.8287C144.939 25.0428 145.52 25.0685 146.087 24.9667C147.399 24.7308 148.627 23.7335 149.204 22.2406C150.03 20.1022 149.551 16.9176 147.716 16.2089C145.912 15.5118 143.473 17.4672 142.606 19.5651C142.591 19.6012 142.573 19.6371 142.559 19.6732C141.733 21.8116 142.55 24.12 144.385 24.8287ZM143.77 20.1412C144.209 19.0057 145.485 18.441 146.62 18.8798C147.755 19.3182 148.32 20.5944 147.881 21.7299C147.443 22.8651 146.167 23.4301 145.031 22.9913C143.896 22.5526 143.331 21.2765 143.77 20.1412Z" fill="#FFFEFA"/>
<path d="M149.086 30.1042C149.059 30.1318 149.041 30.1647 149.014 30.1928C149.223 30.6296 149.358 31.0932 149.423 31.5649C149.743 31.5998 150.061 31.6613 150.373 31.7487C150.429 31.6845 150.473 31.613 150.534 31.5517C152.076 30.0092 154.577 30.0092 156.12 31.5517C157.662 33.0942 157.662 35.5952 156.12 37.1376C155.668 37.5898 155.13 37.893 154.561 38.08C154.469 38.8369 154.23 39.5715 153.842 40.2524C153.937 40.2558 154.034 40.2641 154.128 40.2651C155.385 40.0961 156.601 39.5517 157.568 38.5854C159.031 37.122 159.58 35.091 159.214 33.2014C159.001 32.0969 158.467 31.0453 157.629 30.1794C157.606 30.1557 157.591 30.1274 157.568 30.1042C155.226 27.7621 151.428 27.7621 149.086 30.1042Z" fill="#D12030"/>
<path d="M154.561 38.08C155.13 37.8929 155.668 37.5897 156.12 37.1376C157.662 35.5951 157.662 33.0941 156.12 31.5516C154.577 30.0092 152.076 30.0092 150.534 31.5516C150.473 31.6129 150.429 31.6844 150.373 31.7487C151.305 32.0099 152.185 32.5055 152.918 33.2386C154.24 34.5609 154.771 36.3573 154.561 38.08Z" fill="#F56570"/>
<path d="M157.57 30.1C157.59 30.1298 157.61 30.1599 157.63 30.1799C157.41 28.8398 156.67 27.2299 155.47 25.5898C155.52 25.54 155.59 25.4999 155.65 25.4499C157.24 23.85 157.24 21.27 155.65 19.6799C155.04 19.07 154.28 18.7199 153.49 18.5898C153.35 18.56 153.22 18.53 153.09 18.52C153.75 17.03 153.47 15.2299 152.25 13.9999C150.66 12.4099 148.08 12.4099 146.49 13.9999C146.28 14.2199 146.1 14.4499 145.94 14.6899C144.92 13.9899 143.66 13.81 142.52 14.1401C141.89 14.32 141.3 14.6499 140.8 15.1298C142.03 15.9699 142.46 18.07 142.61 19.57C143.47 17.4699 145.91 15.51 147.72 16.2099C149.55 16.9199 150.03 20.1001 149.2 22.2399C148.63 23.7299 147.4 24.7299 146.09 24.9699C146.32 25.7099 146.45 26.58 146.42 27.6C146.54 27.7499 146.66 27.8999 146.79 28.04C146.66 27.9899 146.53 27.9299 146.4 27.8798C145.42 27.54 144.34 27.56 143.36 27.9199C143.35 27.4199 143.24 26.9199 143.02 26.4399C142.67 25.6799 142.08 25.1201 141.4 24.75C141.64 23.7399 141.57 22.6499 141.09 21.6298C140.13 19.58 137.9 18.54 135.77 19.02C135.45 19.0898 135.12 19.1899 134.8 19.3398C134.76 19.3598 134.72 19.3901 134.68 19.4099C134.12 23.4799 136.48 29.0898 141.13 33.7399C141.3 33.9099 141.48 34.07 141.66 34.2399C145.61 37.9799 150.15 40.1098 153.84 40.25C154.23 39.57 154.47 38.8398 154.56 38.08C154.77 36.3598 154.24 34.56 152.92 33.2399C152.18 32.51 151.3 32.01 150.37 31.75C150.06 31.6599 149.74 31.6001 149.42 31.56C149.36 31.0898 149.22 30.6298 149.01 30.1899C149.04 30.1599 149.06 30.1298 149.09 30.1C151.43 27.76 155.23 27.76 157.57 30.1ZM152.68 24.9899L152.92 24.52C153.1 24.1699 153.52 24.04 153.87 24.2099L154.34 24.4599C154.69 24.6298 154.82 25.06 154.64 25.4099L154.4 25.8701C154.23 26.2199 153.8 26.3598 153.45 26.1799L152.98 25.9399C152.64 25.76 152.5 25.3398 152.68 24.9899ZM147.83 28.85C147.46 28.9799 147.06 28.78 146.93 28.4099L146.81 28.05L146.76 27.9099C146.63 27.54 146.83 27.1401 147.19 27.02L147.69 26.8398C148.06 26.7199 148.46 26.9099 148.59 27.28L148.76 27.78C148.89 28.1498 148.7 28.55 148.33 28.6799L147.96 28.8L147.83 28.85Z" fill="#23B169"/>
<path d="M145.031 22.9915C146.167 23.4302 147.443 22.8653 147.881 21.73C148.32 20.5945 147.755 19.3184 146.62 18.8799C145.485 18.4412 144.209 19.0059 143.77 20.1414C143.331 21.2767 143.896 22.5528 145.031 22.9915Z" fill="#FFD900"/>
<path d="M152.919 24.5215L152.678 24.9909C152.501 25.3379 152.638 25.7632 152.985 25.9409L153.454 26.1813C153.801 26.359 154.227 26.2218 154.404 25.8748L154.645 25.4054C154.822 25.0584 154.685 24.6331 154.338 24.4554L153.869 24.215C153.522 24.0373 153.097 24.1745 152.919 24.5215Z" fill="#FFD900"/>
<path d="M146.931 28.412C147.058 28.7804 147.46 28.9758 147.829 28.8483L147.958 28.8034L148.327 28.6757C148.695 28.548 148.891 28.1462 148.763 27.778L148.591 27.2795C148.463 26.911 148.061 26.7157 147.693 26.8432L147.194 27.0158C146.826 27.1432 146.631 27.5451 146.758 27.9135L146.806 28.0502L146.931 28.412Z" fill="#FFD900"/>
<path d="M154.128 40.2651C154.034 40.2642 153.937 40.2559 153.842 40.2524C150.147 40.1147 145.606 37.9849 141.661 34.2407C141.484 34.0727 141.303 33.9128 141.129 33.7383C136.479 29.0889 134.115 23.4829 134.681 19.4126C134.863 18.1008 135.345 16.946 136.159 16.0376C136.177 15.9968 136.188 15.9714 136.188 15.9714L133.278 18.8813C127.008 25.1519 127.008 35.3181 133.278 41.5886C139.549 47.8589 149.715 47.8589 155.986 41.5886L158.896 38.6787C158.896 38.6787 158.87 38.6904 158.829 38.708C157.626 39.7864 155.991 40.283 154.128 40.2651Z" fill="#FFDE9E"/>
</g>
<g clip-path="url(#clip5_1047_1560)">
<path d="M129.561 23.4342C125.274 15.3185 116.411 10.6941 107.6 13.1259C98.8568 15.5389 92.9543 24.6178 93.719 34.5116C94.0848 39.2434 95.8081 43.4591 98.403 46.7842C100.956 50.0556 105.785 50.4451 108.849 47.6811C108.89 47.6444 124.71 31.9857 129.032 27.451C130.016 26.4182 130.263 24.7629 129.561 23.4342Z" fill="#FF9C00"/>
<path d="M109.603 15.8752C107.71 16.3122 106.257 17.6166 105.522 19.2637C105.31 19.2891 105.099 19.2954 104.886 19.3445C102.305 19.9405 100.534 22.1364 100.318 24.6409C98.9692 26.0431 98.327 28.0716 98.7973 30.109C98.9836 30.916 99.3268 31.6454 99.7856 32.2749C98.6337 33.6572 98.1013 35.5297 98.5372 37.4181C98.6831 38.0498 98.9471 38.6174 99.2651 39.1435C99.21 39.7558 99.2214 40.3817 99.3673 41.0133C100.107 44.2186 103.306 46.2171 106.511 45.4771C109.716 44.7371 111.715 41.5388 110.975 38.3336C110.829 37.7019 110.565 37.1343 110.247 36.6082C110.302 35.9959 110.29 35.37 110.145 34.7384C109.958 33.9315 109.615 33.202 109.156 32.5725C109.928 31.6468 110.403 30.5034 110.509 29.2764C110.989 28.7774 111.365 28.1943 111.647 27.5634C111.859 27.538 112.07 27.5317 112.283 27.4826C115.488 26.7426 117.487 23.5442 116.747 20.339C116.007 17.1337 112.808 15.1352 109.603 15.8752Z" fill="#6E4944"/>
<path d="M103.632 28.8002C104.184 28.8002 104.632 28.3523 104.632 27.7998C104.632 27.2472 104.184 26.7993 103.632 26.7993C103.079 26.7993 102.631 27.2472 102.631 27.7998C102.631 28.3523 103.079 28.8002 103.632 28.8002Z" fill="#FFCF9C"/>
<path d="M107.165 24.4987C107.717 24.4987 108.165 24.0508 108.165 23.4982C108.165 22.9457 107.717 22.4978 107.165 22.4978C106.612 22.4978 106.164 22.9457 106.164 23.4982C106.164 24.0508 106.612 24.4987 107.165 24.4987Z" fill="#FFCF9C"/>
<path d="M104.707 35.8343C105.281 35.846 105.725 36.3294 105.689 36.9018C105.647 37.5669 105.469 38.425 104.884 38.9633C104.299 39.5015 103.428 39.608 102.762 39.5945C102.189 39.5829 101.744 39.0995 101.78 38.5271C101.822 37.862 102.001 37.0039 102.586 36.4656C103.171 35.9274 104.041 35.8208 104.707 35.8343Z" fill="#489C5E"/>
<path d="M107.079 32.878C107.299 33.4077 107.035 34.0093 106.496 34.2063C105.87 34.4352 105.013 34.6167 104.285 34.2973C103.557 33.978 103.11 33.2242 102.854 32.6087C102.634 32.079 102.898 31.4774 103.437 31.2804C104.063 31.0515 104.92 30.87 105.648 31.1894C106.376 31.5087 106.823 32.2625 107.079 32.878Z" fill="#489C5E"/>
<path d="M128.872 19.098L128.468 18.5641C127.084 16.7324 125.299 15.2003 123.18 14.3161C121.373 13.5621 119.596 13.3444 117.901 13.7359C110.597 15.4221 107.579 27.2544 108.707 43.4443C108.709 43.4867 108.711 43.5224 108.712 43.5673C108.792 49.3098 104.589 49.5222 104.589 49.5222C106.676 49.424 108.263 48.5467 109.523 47.2903L128.183 28.6868C130.782 26.1141 131.076 22.0156 128.872 19.098Z" fill="#FFD06C"/>
</g>
<g clip-path="url(#clip6_1047_1560)">
<path d="M119.081 36.4266L118.72 32.9087L119.688 42.6957C119.779 43.9276 120.805 44.8805 122.04 44.8805H133.907C135.142 44.8805 136.168 43.9276 136.259 42.6957L137.227 32.9087L136.866 36.4266H119.081Z" fill="#D0D5DA"/>
<path d="M117.776 23.3682L118.38 29.4786H137.566L138.171 23.3682H128.523H126.379H117.776Z" fill="#D0D5DA"/>
<path d="M138.25 19.9832H117.75C116.82 19.9832 116.065 20.7377 116.065 21.6682C116.065 22.5987 116.82 23.3529 117.75 23.3529H138.25C139.18 23.3529 139.934 22.5987 139.934 21.6682C139.934 20.7377 139.18 19.9832 138.25 19.9832Z" fill="#E5E9EE"/>
<path d="M130.283 17.1378C130.371 16.8238 130.624 16.5802 130.941 16.5026L136.556 15.1344C137.137 14.9933 137.492 14.4085 137.351 13.828C137.21 13.2468 136.622 12.8851 136.045 13.0332L130.428 14.4014C129.355 14.6635 128.502 15.4874 128.201 16.5503L127.232 19.9831H129.479L130.283 17.1378Z" fill="#E32939"/>
<path d="M118.367 29.4785L118.72 32.9086L119.081 36.4265H136.866L137.227 32.9086L137.579 29.4785H137.566H118.38H118.367Z" fill="#E32939"/>
</g>
<g clip-path="url(#clip7_1047_1560)">
<path d="M115.233 37.1819C112.277 34.2075 107.344 34.3467 104.216 37.4927L93.5657 48.222C90.4496 51.3554 90.2992 56.2891 93.2185 59.2674L115.267 37.2185C115.255 37.2065 115.245 37.1939 115.233 37.1819Z" fill="#FF9C00"/>
<path d="M107.784 62.5073L118.434 51.7781C121.55 48.6447 121.701 43.7109 118.782 40.7327L96.7327 62.7815C96.7445 62.7935 96.7553 62.8062 96.7672 62.8181C99.7231 65.7925 104.656 65.6534 107.784 62.5073Z" fill="#FF9C00"/>
<path d="M113.434 37.0427L93.1192 57.477C91.641 58.9639 91.6411 61.3747 93.1193 62.8616C94.5975 64.3485 96.9941 64.3486 98.4723 62.8617L118.787 42.4274C120.265 40.9405 120.265 38.5296 118.787 37.0427C117.308 35.5557 114.912 35.5558 113.434 37.0427Z" fill="#E32939"/>
<path d="M94.236 62.1247C93.8539 62.1247 93.5441 61.8149 93.5441 61.4323C93.5441 59.1901 95.3598 57.3651 97.5919 57.3651H99.2247C100.693 57.3651 101.889 56.1614 101.889 54.6816V51.9139C101.889 49.6717 103.704 47.8466 105.936 47.8466H108.641C110.109 47.8466 111.305 46.643 111.305 45.1632V42.3777C111.305 40.1346 113.12 38.3096 115.352 38.3096H118.265C118.647 38.3096 118.957 38.6194 118.957 39.0019C118.957 39.3845 118.647 39.6943 118.265 39.6943H115.352C113.884 39.6943 112.688 40.898 112.688 42.3777V45.1632C112.688 47.4063 110.873 49.2314 108.641 49.2314H105.936C104.468 49.2314 103.272 50.4342 103.272 51.9139V54.6816C103.272 56.9248 101.457 58.7498 99.2247 58.7498H97.5919C96.1232 58.7498 94.928 59.9526 94.928 61.4323C94.928 61.8149 94.6182 62.1247 94.236 62.1247Z" fill="#FFD06C"/>
</g>
<g clip-path="url(#clip8_1047_1560)">
<path d="M158.441 55.2289L156.052 54.6386C155.598 54.5265 155.322 54.068 155.434 53.6146L159.071 38.8942C159.221 38.2847 159.96 38.046 160.439 38.4521L162.535 40.2295C162.78 40.4372 162.886 40.7656 162.809 41.0774L159.465 54.6106C159.353 55.0641 158.894 55.3409 158.441 55.2289Z" fill="#FFAA00"/>
<path d="M149.628 54.5076H152.089C152.556 54.5076 152.935 54.1289 152.935 53.6618V38.4987C152.935 37.8709 152.275 37.4619 151.713 37.7413L149.252 38.9641C148.964 39.107 148.782 39.4004 148.782 39.7215V53.6618C148.782 54.1289 149.161 54.5076 149.628 54.5076Z" fill="#FFAA00"/>
<path d="M143.971 54.7518L141.534 55.0967C141.072 55.1622 140.644 54.8403 140.578 54.3778L138.453 39.3645C138.365 38.7428 138.961 38.2454 139.557 38.4432L142.165 39.309C142.469 39.4102 142.691 39.6752 142.736 39.9931L144.69 53.7958C144.755 54.2583 144.433 54.6863 143.971 54.7518Z" fill="#FFAA00"/>
<path d="M148.763 52.4294L145.195 51.939C144.728 51.9585 144.334 51.5959 144.314 51.1292L143.74 37.4047C143.728 37.097 143.883 36.8066 144.146 36.6466L146.548 35.1867C147.098 34.8523 147.806 35.2308 147.832 35.8741L148.763 52.4294Z" fill="#FFCD00"/>
<path d="M152.719 51.8497L156.403 52.8419L158.431 36.5332C158.527 35.9127 157.937 35.4078 157.339 35.5981L154.72 36.4309C154.414 36.5282 154.19 36.7904 154.141 37.1078L152.013 50.8847C151.941 51.3463 152.258 51.7784 152.719 51.8497Z" fill="#FFCD00"/>
<path d="M160.564 45.0371C160.04 45.0371 159.573 45.3125 159.253 45.7279C157.882 47.509 154.483 48.771 150.5 48.771C146.517 48.771 143.118 47.509 141.747 45.7279C141.427 45.3125 140.96 45.0371 140.436 45.0371H138.114C137.598 45.0371 137.206 45.5008 137.291 46.0098L140.065 62.5445C140.2 63.3486 140.896 63.9376 141.711 63.9376H159.289C160.104 63.9376 160.8 63.3486 160.935 62.5445L163.709 46.0098C163.794 45.5008 163.402 45.0371 162.886 45.0371H160.564Z" fill="#E32939"/>
</g>
<path d="M127 66.7067C120.073 66.7067 114.336 63.7917 113.208 59.9658C113.186 60.1503 113.16 60.3342 113.16 60.5218C113.16 60.557 113.168 60.5911 113.169 60.6261C113.266 65.005 119.417 68.5384 127 68.5384C134.583 68.5384 140.734 65.005 140.831 60.6261C140.832 60.5911 140.84 60.557 140.84 60.5218C140.84 60.3342 140.814 60.1503 140.792 59.9658C139.664 63.7917 133.927 66.7067 127 66.7067Z" fill="#179614"/>
<path d="M140.47 59.0122L128.499 65.4794C127.583 65.9743 126.479 65.9743 125.563 65.4794L113.53 58.979C113.313 58.8618 113.144 58.7059 112.998 58.5364C112.998 58.5557 112.993 58.5741 112.993 58.5932C112.993 59.0622 113.076 59.5188 113.208 59.966C114.336 63.7918 120.073 66.7068 127 66.7068C133.927 66.7068 139.664 63.7918 140.792 59.966C140.924 59.5188 141.007 59.0622 141.007 58.5932C141.007 58.5843 141.005 58.5756 141.005 58.5665C140.858 58.7373 140.689 58.8941 140.47 59.0122Z" fill="#6E452C"/>
<path d="M140.372 55.6021L140.302 55.5691C138.925 59.7464 133.498 62.4093 127 62.4093C120.486 62.4093 115.048 59.7342 113.687 55.5398L113.602 55.5811C112.425 56.154 112.222 57.6374 112.998 58.5364C113.144 58.7059 113.313 58.8618 113.53 58.979L125.563 65.4794C126.479 65.9743 127.583 65.9743 128.499 65.4794L140.47 59.0122C140.689 58.8941 140.858 58.7372 141.005 58.5665C141.785 57.6594 141.568 56.1619 140.372 55.6021Z" fill="#FFD16B"/>
<path d="M127 62.4091C133.498 62.4091 138.925 59.7462 140.302 55.5689C140.339 55.4577 140.374 55.3462 140.405 55.2329C138.101 58.1944 132.972 60.2594 127 60.2594C121.028 60.2594 115.899 58.1944 113.595 55.2329C113.623 55.3363 113.654 55.4382 113.687 55.5396C115.048 59.734 120.486 62.4091 127 62.4091Z" fill="#ED0000"/>
<path d="M127 68.5385C119.417 68.5385 113.266 65.0051 113.169 60.6262C113.064 61.1062 112.993 61.5976 112.993 62.111C112.993 67.6279 119.264 71.3 127 71.3C134.736 71.3 141.007 67.6279 141.007 62.111C141.007 61.5976 140.936 61.1062 140.831 60.6262C140.734 65.0051 134.583 68.5385 127 68.5385Z" fill="#FF9E26"/>
<path d="M127 60.2595C132.972 60.2595 138.101 58.1945 140.405 55.233C141.235 54.1663 141.708 52.9864 141.708 51.7404C141.708 47.0353 136.36 40.7 127 40.7C117.64 40.7 112.292 47.0353 112.292 51.7404C112.292 52.9864 112.765 54.1663 113.595 55.233C115.899 58.1945 121.028 60.2595 127 60.2595ZM132.88 45.4368C133.091 45.1828 133.468 45.1479 133.722 45.359C133.976 45.57 134.011 45.9469 133.8 46.2009C133.665 46.3623 133.187 46.5593 132.857 46.6811C132.707 46.7363 132.554 46.6089 132.581 46.4516C132.64 46.1046 132.746 45.5985 132.88 45.4368ZM128.686 49.0236C128.847 48.8893 129.353 48.7835 129.7 48.7243C129.858 48.6973 129.985 48.8509 129.93 49.0007C129.808 49.3309 129.611 49.809 129.45 49.9433C129.196 50.1543 128.819 50.1195 128.608 49.8655C128.397 49.6115 128.432 49.2346 128.686 49.0236ZM125.772 43.3913C125.981 43.372 126.458 43.571 126.778 43.7181C126.923 43.7849 126.941 43.9837 126.811 44.0761C126.524 44.2795 126.091 44.5627 125.882 44.582C125.553 44.6123 125.262 44.3705 125.231 44.0416C125.201 43.7129 125.443 43.4218 125.772 43.3913ZM123.661 47.8083C124.008 47.8677 124.514 47.9733 124.676 48.1076C124.93 48.3186 124.965 48.6955 124.754 48.9495C124.543 49.2035 124.166 49.2383 123.912 49.0273C123.75 48.8932 123.554 48.4149 123.432 48.0847C123.377 47.9351 123.504 47.7816 123.661 47.8083ZM119.693 46.0581C119.827 45.8964 120.306 45.6995 120.636 45.5779C120.786 45.5225 120.939 45.6501 120.912 45.8074C120.853 46.1544 120.747 46.6605 120.613 46.8222C120.402 47.0762 120.025 47.1111 119.771 46.9C119.517 46.689 119.482 46.3121 119.693 46.0581Z" fill="#FF9E26"/>
<path d="M129.45 49.9435C129.611 49.8092 129.808 49.3311 129.93 49.001C129.985 48.8511 129.858 48.6976 129.7 48.7245C129.353 48.7837 128.847 48.8895 128.686 49.0238C128.432 49.2348 128.397 49.6117 128.608 49.8657C128.819 50.1197 129.196 50.1546 129.45 49.9435Z" fill="#FFD16B"/>
<path d="M123.912 49.0274C124.166 49.2385 124.543 49.2036 124.754 48.9496C124.965 48.6956 124.93 48.3188 124.676 48.1077C124.514 47.9735 124.008 47.8678 123.661 47.8085C123.504 47.7817 123.376 47.9353 123.432 48.0849C123.554 48.4151 123.75 48.8934 123.912 49.0274Z" fill="#FFD16B"/>
<path d="M132.857 46.6813C133.187 46.5595 133.665 46.3626 133.8 46.2011C134.011 45.9471 133.976 45.5703 133.722 45.3592C133.468 45.1482 133.091 45.183 132.88 45.437C132.746 45.5987 132.64 46.1048 132.581 46.4518C132.554 46.6091 132.707 46.7365 132.857 46.6813Z" fill="#FFD16B"/>
<path d="M125.882 44.5822C126.091 44.5629 126.524 44.2796 126.811 44.0763C126.941 43.9839 126.923 43.7851 126.778 43.7183C126.458 43.5711 125.981 43.3721 125.772 43.3914C125.443 43.4219 125.201 43.7131 125.231 44.0418C125.262 44.3707 125.553 44.6125 125.882 44.5822Z" fill="#FFD16B"/>
<path d="M120.613 46.8224C120.747 46.6607 120.853 46.1546 120.912 45.8076C120.939 45.6503 120.786 45.5227 120.636 45.5781C120.306 45.6997 119.827 45.8967 119.693 46.0583C119.482 46.3123 119.517 46.6892 119.771 46.9002C120.025 47.1113 120.402 47.0764 120.613 46.8224Z" fill="#FFD16B"/>
<path d="M156 12.9334L152.733 16.2C152.611 16.3223 152.456 16.3834 152.267 16.3834C152.078 16.3834 151.922 16.3223 151.8 16.2C151.678 16.0778 151.617 15.9223 151.617 15.7334C151.617 15.5445 151.678 15.3889 151.8 15.2667L155.067 12L151.8 8.73337C151.678 8.61114 151.617 8.45559 151.617 8.2667C151.617 8.07781 151.678 7.92225 151.8 7.80003C151.922 7.67781 152.078 7.6167 152.267 7.6167C152.456 7.6167 152.611 7.67781 152.733 7.80003L156 11.0667L159.267 7.80003C159.389 7.67781 159.544 7.6167 159.733 7.6167C159.922 7.6167 160.078 7.67781 160.2 7.80003C160.322 7.92225 160.383 8.07781 160.383 8.2667C160.383 8.45559 160.322 8.61114 160.2 8.73337L156.933 12L160.2 15.2667C160.322 15.3889 160.383 15.5445 160.383 15.7334C160.383 15.9223 160.322 16.0778 160.2 16.2C160.078 16.3223 159.922 16.3834 159.733 16.3834C159.544 16.3834 159.389 16.3223 159.267 16.2L156 12.9334Z" fill="#F87272"/>
<defs>
<clipPath id="clip0_1047_1560">
<rect width="40" height="40" fill="white" transform="translate(31 2)"/>
</clipPath>
<clipPath id="clip1_1047_1560">
<rect width="35" height="35" fill="white" transform="translate(6 18)"/>
</clipPath>
<clipPath id="clip2_1047_1560">
<rect width="45" height="45" fill="white" transform="translate(30 24)"/>
</clipPath>
<clipPath id="clip3_1047_1560">
<rect width="40" height="40" fill="white" transform="translate(6 36)"/>
</clipPath>
<clipPath id="clip4_1047_1560">
<rect width="40" height="40" fill="white" transform="translate(125 9)"/>
</clipPath>
<clipPath id="clip5_1047_1560">
<rect width="40" height="40" fill="white" transform="translate(92 11)"/>
</clipPath>
<clipPath id="clip6_1047_1560">
<rect width="34" height="34" fill="white" transform="translate(111 13)"/>
</clipPath>
<clipPath id="clip7_1047_1560">
<rect width="34" height="34" fill="white" transform="translate(89 33)"/>
</clipPath>
<clipPath id="clip8_1047_1560">
<rect width="33" height="33" fill="white" transform="translate(134 33)"/>
</clipPath>
</defs>
</svg>
