<svg width="197" height="170" viewBox="0 0 197 170" fill="none" xmlns="http://www.w3.org/2000/svg">
<path fill-rule="evenodd" clip-rule="evenodd" d="M100.309 65.7159H100.081C87.4061 64.8618 77.5369 69.5024 71.0145 75.1678C64.3923 80.9186 58.7244 88.7904 57.4996 100.62C56.2606 112.577 61.0029 122.897 67.1836 129.445C73.5352 136.164 82.1084 141.217 93.5441 142.057C105.222 142.911 115.917 138.541 123.066 132.591C130.315 126.569 135.513 118.399 136.581 107.139C137.834 93.9861 132.935 84.6766 126.897 78.2994C120.759 71.8226 112.428 66.6412 100.309 65.6874V65.7159Z" fill="#CC5A44"/>
<path fill-rule="evenodd" clip-rule="evenodd" d="M69.448 52.2071C69.3625 55.8369 70.7867 58.5558 72.5953 60.7621C74.7742 63.424 78.363 65.5877 82.0657 67.0681C85.7257 68.5343 90.4537 70.1998 94.6834 68.1927C95.4382 58.5273 85.683 51.111 76.6541 50.1715C74.0907 49.901 70.4449 49.9295 69.448 52.2071Z" fill="#4FC67F"/>
<path fill-rule="evenodd" clip-rule="evenodd" d="M72.8234 52.4349C72.4246 55.054 75.4579 55.9935 77.1099 57.1608C82.3507 60.8761 88.3604 65.175 94.0142 68.6482C94.4557 73.5308 94.9399 78.3848 100.323 78.3279C102.117 77.2603 102.075 73.8297 101.904 71.1251C101.69 67.8368 101.078 57.417 98.5287 56.7053C94.6408 55.6234 94.4842 61.2462 94.0285 64.5913C93.0601 64.7052 92.4904 63.7515 91.7784 63.239C89.4855 61.6305 87.093 59.9793 84.5723 58.2853C81.425 56.1786 77.7508 53.8726 74.2047 52.6484C73.749 52.4918 73.6208 52.4064 72.8518 52.4206L72.8234 52.4349Z" fill="#14512F"/>
<path fill-rule="evenodd" clip-rule="evenodd" d="M111.36 75.4097C111.018 77.0894 112.058 78.2994 112.713 79.2389C113.296 80.0787 113.937 81.6018 115.646 81.2744C117.199 79.0396 114.308 73.1464 111.36 75.4097Z" fill="white"/>
<path fill-rule="evenodd" clip-rule="evenodd" d="M76.8816 79.4666C77.1807 79.6943 77.5652 79.8367 77.7788 80.1356C79.2172 79.3527 82.0797 78.8687 82.2791 77.431C82.749 74.157 76.1269 76.0218 76.8674 79.4523L76.8816 79.4666Z" fill="white"/>
<path fill-rule="evenodd" clip-rule="evenodd" d="M74.8452 85.0894C75.1585 85.3029 75.3009 85.6872 75.5288 85.9862C77.252 85.9862 78.1492 85.1463 78.0068 83.2816C76.6396 82.1997 75.1728 83.7513 74.8452 85.0894Z" fill="white"/>
<path fill-rule="evenodd" clip-rule="evenodd" d="M107.301 84.648C107.258 86.8687 107.572 88.7334 109.551 88.9327C109.551 88.7192 109.822 88.7619 110.007 88.705C110.79 86.6694 109.58 82.9399 107.301 84.648Z" fill="white"/>
<path fill-rule="evenodd" clip-rule="evenodd" d="M71.47 84.6481C69.4192 85.0893 68.8069 86.9399 68.0806 88.705C68.3511 89.0466 68.6502 89.3456 68.9778 89.6018C70.7152 88.8189 72.4526 86.9968 71.9114 84.6481H71.4557H71.47Z" fill="white"/>
<path fill-rule="evenodd" clip-rule="evenodd" d="M115.191 86.8972C114.706 89.4879 114.963 93.5733 117.227 93.6587C120.816 93.801 119.064 83.552 115.191 86.8972Z" fill="white"/>
<path fill-rule="evenodd" clip-rule="evenodd" d="M126 99.2814C126.769 98.5127 126.726 95.6516 125.33 95.68C123.621 95.8366 123.92 99.6942 126 99.2814Z" fill="white"/>
<path fill-rule="evenodd" clip-rule="evenodd" d="M107.756 99.9504C107.301 101.929 107.272 105.175 108.882 105.815C112.841 106.057 111.288 96.6479 107.756 99.9504Z" fill="white"/>
<path fill-rule="evenodd" clip-rule="evenodd" d="M118.566 110.541C122.154 111.822 121.77 107.324 121.941 104.463C119.036 100.207 116.415 107.723 118.566 110.541Z" fill="white"/>
<path fill-rule="evenodd" clip-rule="evenodd" d="M63.3526 107.623C63.2244 109.103 63.4523 110.228 64.0219 110.997H65.3748C66.4572 109.587 65.1754 106.086 63.3526 107.623Z" fill="white"/>
<path fill-rule="evenodd" clip-rule="evenodd" d="M128.477 109.417C126.768 110.498 126.042 114.142 126.669 116.178C126.939 116.15 127.068 116.221 127.124 116.406C129.958 116.178 130.201 111.509 129.147 109.417H128.477Z" fill="white"/>
<path fill-rule="evenodd" clip-rule="evenodd" d="M112.029 114.826C111.388 116.022 110.306 118.299 111.36 119.779C114.35 121.118 116.472 113.26 112.029 114.826Z" fill="white"/>
<path fill-rule="evenodd" clip-rule="evenodd" d="M64.9331 116.406C65.7449 119.054 65.2607 122.997 68.9919 122.712C70.359 120.292 68.5504 116.007 65.6024 115.737C65.4743 116.064 65.2464 116.292 64.9331 116.406Z" fill="white"/>
<path fill-rule="evenodd" clip-rule="evenodd" d="M71.2422 117.075C71.5413 119.025 71.7833 121.046 73.948 121.132C75.0303 119.552 73.4781 116.05 71.2422 117.075Z" fill="white"/>
<path fill-rule="evenodd" clip-rule="evenodd" d="M118.566 126.313C120.431 125.929 121.158 124.406 121.272 122.256C119.335 120.007 116.771 124.861 118.566 126.313Z" fill="white"/>
<path fill-rule="evenodd" clip-rule="evenodd" d="M75.3008 126.982C74.7312 128.448 75.6711 129.943 77.3231 129.915C78.3627 128.719 77.3231 126.541 75.3008 126.982Z" fill="white"/>
<path fill-rule="evenodd" clip-rule="evenodd" d="M108.426 133.744C108.753 133.872 108.981 134.1 109.095 134.427C111.63 133.957 113.553 132.875 113.61 129.929C111.288 128.278 108.839 131.352 108.426 133.758V133.744Z" fill="white"/>
<path fill-rule="evenodd" clip-rule="evenodd" d="M96.7056 135.765C96.9192 135.765 96.8765 136.036 96.9334 136.221C99.0838 136.833 101.704 135.367 101.662 133.744C101.59 130.669 96.7483 133.146 96.7056 135.765Z" fill="white"/>
<path fill-rule="evenodd" clip-rule="evenodd" d="M60.8033 104.42C61.017 102.584 62.1705 102.114 61.9284 100.135C61.5866 97.1889 57.0294 93.8295 53.1416 92.4772C49.3819 91.1676 45.2377 90.7975 39.8545 91.1249C31.6801 91.6231 23.9472 95.2814 17.0971 99.6799C10.2756 104.078 5.00637 109.103 2.00148 115.666C0.734017 118.441 -0.547696 124.093 1.10428 126.47C1.73089 127.381 2.87018 127.808 3.8101 128.05C4.94939 128.349 6.18838 127.907 7.64098 128.278C9.0651 128.633 10.4892 130.712 11.9276 132.776C18.0086 141.587 23.4202 149.231 30.8541 156.875C33.8305 159.936 37.0348 162.911 40.5381 164.306C46.8897 166.84 54.2097 163.096 58.7953 160.704C65.2751 157.316 70.8006 154 77.2804 149.445C80.1998 147.395 84.4152 144.491 84.9421 141.331C85.6969 136.776 82.6493 133.046 80.6556 130.299C74.0049 121.16 67.2261 113.473 60.8176 104.392L60.8033 104.42Z" fill="#EAC868"/>
<path d="M0.449355 121.246C0.178772 123.295 0.278448 125.302 1.10444 126.484C1.73105 127.395 2.87034 127.822 3.81025 128.064C4.94955 128.363 6.18854 127.922 7.64114 128.292C9.06526 128.648 10.4894 130.726 11.9277 132.79C18.0087 141.601 23.4204 149.245 30.8543 156.889C33.8307 159.95 37.035 162.925 40.5383 164.32C46.8899 166.854 54.2098 163.11 58.7955 160.719C65.2752 157.331 70.8008 154.014 77.2805 149.459C80.2 147.409 84.4154 144.505 84.9423 141.345C85.0277 140.833 85.0562 140.334 85.0562 139.85C85.0562 139.865 85.0562 139.879 85.0562 139.893C85.1417 140.662 85.099 145.203 84.9708 146.028C84.4439 149.188 80.2285 152.092 77.309 154.142C70.8293 158.697 65.3037 162.014 58.824 165.402C54.2525 167.807 46.9326 171.537 40.5668 169.003C37.0492 167.594 33.8449 164.633 30.8828 161.573C23.4489 153.929 18.0372 146.284 11.9562 137.473C10.5179 135.395 9.09377 133.331 7.66965 132.975C6.21705 132.605 4.97806 133.046 3.83876 132.747C2.89885 132.505 1.75956 132.078 1.13295 131.167C-0.14876 129.331 -0.0490731 125.132 0.46361 121.231L0.449355 121.246Z" fill="#AA7F5C"/>
<path fill-rule="evenodd" clip-rule="evenodd" d="M33.318 101.716C28.6896 105.36 22.1101 102.128 15.2886 103.068C9.87697 103.808 3.51117 109.431 6.04611 116.577C6.82937 118.783 8.48136 120.363 10.1049 121.986C11.7141 123.594 13.9642 125.317 14.3915 127.167C15.3171 131.281 12.5116 136.292 14.8471 140.235C16.1573 142.455 19.1053 143.48 21.6117 143.608C24.6308 143.765 27.2797 142.043 30.1707 142.484C33.1044 142.925 34.7278 146.327 36.2516 149.018C39.1426 154.099 43.059 159.309 48.2 161.402C58.6103 165.658 70.7723 157.729 71.1853 147.665C71.285 145.331 70.4305 142.569 70.9575 139.338C71.9401 133.345 79.6731 131.253 77.4941 122.669C76.3549 118.214 72.0825 115.452 68.7073 113.203C67.2262 112.221 65.0474 110.968 63.0821 109.602C61.3447 108.406 59.0376 106.883 58.354 105.317C57.5992 103.609 57.7986 101.118 57.2289 99.4664C55.5769 94.7262 51.4043 89.6587 45.0527 89.1035C37.5761 88.4487 31.6802 93.1462 33.3322 101.716H33.318Z" fill="white"/>
<path fill-rule="evenodd" clip-rule="evenodd" d="M32.4492 124.463C32.4492 129.829 37.4906 134.171 43.714 134.171C49.9374 134.171 54.9788 129.829 54.9788 124.463C54.9788 119.096 49.9374 114.769 43.714 114.769C37.4906 114.769 32.4492 119.11 32.4492 124.463Z" fill="#F7EF63"/>
<path fill-rule="evenodd" clip-rule="evenodd" d="M41.6629 107.11C41.7056 107.367 41.606 107.509 41.4351 107.566C41.7768 109.986 46.1489 108.79 46.391 107.11C45.4938 105.075 43.3291 107.637 41.6629 107.11Z" fill="#4FC67F"/>
<path fill-rule="evenodd" clip-rule="evenodd" d="M29.0311 110.498C29.0738 110.755 28.9884 110.897 28.8032 110.954C28.8175 112.178 29.9852 112.747 30.1561 114.555C30.3412 116.634 29.4441 120.164 32.6341 118.612C31.0391 116.505 33.1183 109.801 29.0311 110.498Z" fill="#4FC67F"/>
<path fill-rule="evenodd" clip-rule="evenodd" d="M46.6191 117.26C48.4277 117.189 47.9578 114.84 49.0971 114.114C47.9578 111.011 44.7962 116.021 46.6191 117.26Z" fill="#4FC67F"/>
<path fill-rule="evenodd" clip-rule="evenodd" d="M57.4282 113.872C58.0121 116.292 59.1514 118.157 62.3841 117.929C62.3556 117.53 62.6547 117.459 62.612 117.032C62.5835 116.093 61.5012 116.192 60.8034 115.908C59.6356 115.381 59.3081 112.263 57.4282 113.886V113.872Z" fill="#4FC67F"/>
<path fill-rule="evenodd" clip-rule="evenodd" d="M38.5015 120.178C38.2879 121.516 39.0996 121.829 39.8544 122.199C40.0538 123.424 40.7659 124.135 41.4352 124.904C42.2042 124.847 43.258 125.075 43.6853 124.676C43.8135 123.566 43.4574 122.94 42.3324 123.096C41.72 121.616 40.3671 118.94 38.5015 120.164V120.178Z" fill="#4FC67F"/>
<path fill-rule="evenodd" clip-rule="evenodd" d="M23.4058 124.918C23.6621 124.89 23.8045 124.975 23.8615 125.146C25.1859 124.747 25.9692 123.794 26.7952 122.897C25.9265 120.676 22.4232 123.167 23.42 124.918H23.4058Z" fill="#4FC67F"/>
<path fill-rule="evenodd" clip-rule="evenodd" d="M63.5089 127.609C62.7398 128.391 63.4234 129.203 63.281 130.541C63.0247 131.409 61.9139 132.961 63.281 133.473C65.3175 133.587 66.2859 127.495 63.5089 127.623V127.609Z" fill="#4FC67F"/>
<path fill-rule="evenodd" clip-rule="evenodd" d="M21.5973 135.495C21.0419 133.829 21.5973 132.249 20.7001 131.21C18.037 131.238 19.5038 137.53 21.5973 135.495Z" fill="#4FC67F"/>
<path fill-rule="evenodd" clip-rule="evenodd" d="M30.1703 133.929C29.7715 136.947 34.0154 140.662 36.0235 138.427C34.6563 136.79 32.0502 136.391 31.7511 133.701C31.153 133.701 30.4694 133.616 30.1703 133.929Z" fill="#4FC67F"/>
<path fill-rule="evenodd" clip-rule="evenodd" d="M43.6855 135.267C43.3722 136.648 42.1333 138.868 43.002 139.993C45.1382 140.491 46.1635 135.224 43.6855 135.267Z" fill="#4FC67F"/>
<path fill-rule="evenodd" clip-rule="evenodd" d="M52.7002 138.655C53.398 140.818 53.0277 144.035 55.6339 144.292C56.4029 142.612 54.8079 139.822 54.0531 138.213C53.2698 138.043 53.0989 138.47 52.7002 138.669V138.655Z" fill="#4FC67F"/>
<path fill-rule="evenodd" clip-rule="evenodd" d="M62.8399 142.712C62.4127 143.551 62.5124 145.516 63.0678 146.099C63.6659 146.099 64.3495 146.185 64.6486 145.872C64.3637 144.505 64.9192 142.299 62.8399 142.726V142.712Z" fill="#4FC67F"/>
<path fill-rule="evenodd" clip-rule="evenodd" d="M44.5827 149.018C46.6619 149.06 46.7901 147.167 47.0607 145.416C45.2805 142.911 44.8675 147.096 44.127 148.348C44.3406 148.505 44.4688 148.761 44.5827 149.018Z" fill="#4FC67F"/>
<g filter="url(#filter0_d_645_2122)">
<rect x="97" y="4" width="94" height="32" rx="8" fill="white"/>
<path d="M100.552 39.8785C99.3649 41.3398 97.0001 40.5001 97.0001 38.6172L97.0001 26C97.0001 24.8954 97.8955 24 99.0001 24L109.252 24C110.937 24 111.867 25.9542 110.805 27.2612L100.552 39.8785Z" fill="white"/>
<path d="M115.15 20.4297V21.5596H111.76V23.6543H116.305V24.7842H105.819V23.6543H110.338V21.5596H107.101V15.5039H115.048V16.6465H108.536V17.9414H114.782V19.0586H108.536V20.4297H115.15ZM122.983 16.2275C122.983 17.9985 124.716 19.7822 127.122 20.2012L126.487 21.3818C124.563 20.9819 122.989 19.814 122.24 18.2715C121.485 19.8013 119.911 20.9756 117.994 21.3818L117.372 20.2012C119.739 19.7695 121.479 17.9922 121.485 16.2275V15.377H122.983V16.2275ZM117.054 24.6699V23.502H127.541V24.6699H117.054ZM137.621 20.6709V21.7881H129.572V15.5547H137.519V16.6973H131.006V18.0811H137.252V19.1855H131.006V20.6709H137.621ZM128.29 24.7334V23.5781H138.776V24.7334H128.29ZM144.006 21.9658C143.46 21.9658 143.01 21.5215 143.016 20.9756C143.01 20.4424 143.46 20.0044 144.006 19.998C144.533 20.0044 144.984 20.4424 144.984 20.9756C144.984 21.5215 144.533 21.9658 144.006 21.9658ZM154.455 15.3008C156.917 15.3071 158.739 16.5322 158.733 18.3984C158.739 20.1187 157.26 21.2676 155.153 21.4771V23.5781H159.723V24.7334H149.237V23.5781H153.756V21.4771C151.674 21.2676 150.195 20.1187 150.202 18.3984C150.195 16.5322 152.011 15.3071 154.455 15.3008ZM151.585 18.3984C151.579 19.6362 152.779 20.3789 154.455 20.3789C156.156 20.3789 157.349 19.6362 157.349 18.3984C157.349 17.1987 156.156 16.437 154.455 16.4434C152.779 16.437 151.579 17.1987 151.585 18.3984ZM165.017 15.542V19.0586H162.338V20.4932C163.659 20.4868 164.643 20.4233 165.804 20.2012L165.944 21.3184C164.585 21.585 163.424 21.6167 161.729 21.623H160.955V18.0303H163.646V16.6465H160.942V15.542H165.017ZM162.605 25.9014V22.4229H164.014V24.7588H170.603V25.9014H162.605ZM165.449 18.8047V17.6367H166.629V14.8691H167.962V22.9941H166.629V18.8047H165.449ZM168.94 23.2861V14.666H170.286V23.2861H168.94ZM176.037 17.916C176.037 19.7949 177.141 21.7754 178.995 22.5498L178.22 23.667C176.862 23.0767 175.872 21.877 175.345 20.417C174.818 21.9912 173.809 23.3115 172.469 23.9463L171.657 22.8418C173.466 22.0039 174.596 19.8647 174.602 17.916V16.9512H172.076V15.7832H178.55V16.9512H176.037V17.916ZM179.833 26.1299V14.6533H181.254V26.1299H179.833Z" fill="#008B47"/>
</g>
<defs>
<filter id="filter0_d_645_2122" x="91" y="0" width="106" height="48.6212" filterUnits="userSpaceOnUse" color-interpolation-filters="sRGB">
<feFlood flood-opacity="0" result="BackgroundImageFix"/>
<feColorMatrix in="SourceAlpha" type="matrix" values="0 0 0 0 0 0 0 0 0 0 0 0 0 0 0 0 0 0 127 0" result="hardAlpha"/>
<feOffset dy="2"/>
<feGaussianBlur stdDeviation="3"/>
<feComposite in2="hardAlpha" operator="out"/>
<feColorMatrix type="matrix" values="0 0 0 0 0 0 0 0 0 0.545098 0 0 0 0 0.278431 0 0 0 0.12 0"/>
<feBlend mode="normal" in2="BackgroundImageFix" result="effect1_dropShadow_645_2122"/>
<feBlend mode="normal" in="SourceGraphic" in2="effect1_dropShadow_645_2122" result="shape"/>
</filter>
</defs>
</svg>
