<svg width="168" height="80" viewBox="0 0 168 80" fill="none" xmlns="http://www.w3.org/2000/svg">
<g clip-path="url(#clip0_291_536)">
<rect width="80" height="80" rx="8" fill="white"/>
<g clip-path="url(#clip1_291_536)">
<path d="M37.8621 10.9197C34.3845 7.42039 28.5817 7.58414 24.9009 11.2854L12.3714 23.908C8.70544 27.5943 8.52852 33.3987 11.9629 36.9026L37.9027 10.9628C37.8888 10.9486 37.8761 10.9338 37.8621 10.9197Z" fill="#FF9C00"/>
<path d="M29.0991 40.7144L41.6287 28.0917C45.2945 24.4054 45.4715 18.601 42.0371 15.0972L16.0973 41.037C16.1112 41.0511 16.1239 41.066 16.1379 41.0801C19.6155 44.5793 25.4184 44.4156 29.0991 40.7144Z" fill="#FF9C00"/>
<path d="M35.7453 10.7559L11.8462 34.7962C10.1071 36.5455 10.1072 39.3817 11.8462 41.131C13.5853 42.8804 16.4048 42.8805 18.1439 41.1311L42.0431 17.0908C43.7821 15.3415 43.7822 12.5052 42.0431 10.7558C40.3041 9.00647 37.4844 9.00655 35.7453 10.7559Z" fill="#E32939"/>
<path d="M13.1601 40.2641C12.7105 40.2641 12.346 39.8997 12.346 39.4496C12.346 36.8117 14.4822 34.6646 17.1081 34.6646H19.0291C20.7569 34.6646 22.1631 33.2485 22.1631 31.5076V28.2514C22.1631 25.6135 24.2992 23.4664 26.9251 23.4664H30.1066C31.8344 23.4664 33.2406 22.0503 33.2406 20.3095V17.0324C33.2406 14.3934 35.3767 12.2463 38.0027 12.2463H41.4296C41.8791 12.2463 42.2436 12.6108 42.2436 13.0609C42.2436 13.511 41.8791 13.8755 41.4296 13.8755H38.0027C36.2748 13.8755 34.8687 15.2915 34.8687 17.0324V20.3095C34.8687 22.9484 32.7325 25.0955 30.1066 25.0955H26.9251C25.1973 25.0955 23.7911 26.5106 23.7911 28.2514V31.5076C23.7911 34.1466 21.655 36.2937 19.0291 36.2937H17.1081C15.3803 36.2937 13.9741 37.7087 13.9741 39.4496C13.9741 39.8997 13.6096 40.2641 13.1601 40.2641Z" fill="#FFD06C"/>
</g>
<path d="M65 58.5962C56.8511 58.5962 50.1013 55.1668 48.7743 50.6658C48.7485 50.8828 48.7173 51.0991 48.7173 51.3198C48.7173 51.3613 48.7271 51.4014 48.728 51.4426C48.8429 56.5942 56.079 60.7512 65 60.7512C73.921 60.7512 81.1571 56.5942 81.272 51.4426C81.2729 51.4014 81.2827 51.3613 81.2827 51.3198C81.2827 51.0991 81.2514 50.8828 81.2257 50.6658C79.8987 55.1668 73.1489 58.5962 65 58.5962Z" fill="#179614"/>
<path d="M80.8471 49.5437L66.7634 57.1521C65.6855 57.7344 64.3867 57.7344 63.3088 57.1521L49.1529 49.5046C48.8974 49.3667 48.6989 49.1833 48.5267 48.9839C48.5265 49.0066 48.5209 49.0283 48.5209 49.0508C48.5209 49.6025 48.6192 50.1396 48.7743 50.6658C50.1013 55.1667 56.8511 58.5962 65 58.5962C73.1489 58.5962 79.8987 55.1667 81.2257 50.6658C81.3808 50.1396 81.4791 49.6025 81.4791 49.0508C81.4791 49.0403 81.4764 49.03 81.4764 49.0193C81.3037 49.2202 81.1043 49.4048 80.8471 49.5437Z" fill="#6E452C"/>
<path d="M80.7321 45.5317L80.6495 45.4929C79.0297 50.4075 72.6449 53.5403 65 53.5403C57.3369 53.5403 50.9383 50.3931 49.3375 45.4585L49.2374 45.5071C47.8531 46.1811 47.6138 47.9263 48.5267 48.9839C48.6989 49.1833 48.8974 49.3667 49.1529 49.5046L63.3088 57.1521C64.3867 57.7344 65.6855 57.7344 66.7634 57.1521L80.8471 49.5437C81.1043 49.4048 81.3037 49.2202 81.4764 49.0193C82.3939 47.9521 82.1387 46.1904 80.7321 45.5317Z" fill="#FFD16B"/>
<path d="M65 53.5403C72.6449 53.5403 79.0297 50.4075 80.6495 45.4929C80.6926 45.3621 80.7342 45.231 80.7705 45.0977C78.0601 48.5818 72.0254 51.0112 65 51.0112C57.9746 51.0112 51.9399 48.5818 49.2295 45.0977C49.2626 45.2192 49.2988 45.3391 49.3375 45.4585C50.9383 50.3931 57.3369 53.5403 65 53.5403Z" fill="#ED0000"/>
<path d="M65 60.7512C56.079 60.7512 48.8429 56.5942 48.728 51.4426C48.6049 52.0073 48.5209 52.5854 48.5209 53.1895C48.5209 59.6799 55.8989 64 65 64C74.1011 64 81.4791 59.6799 81.4791 53.1895C81.4791 52.5855 81.3952 52.0073 81.272 51.4426C81.1571 56.5942 73.921 60.7512 65 60.7512Z" fill="#FF9E26"/>
<path d="M65 51.0112C72.0254 51.0112 78.0601 48.5818 80.7705 45.0977C81.7468 43.8428 82.303 42.4546 82.303 40.9888C82.303 35.4534 76.0117 28 65 28C53.9883 28 47.697 35.4534 47.697 40.9888C47.697 42.4546 48.2532 43.8428 49.2296 45.0977C51.9399 48.5818 57.9746 51.0112 65 51.0112ZM71.9175 33.5728C72.1657 33.2739 72.6092 33.2329 72.908 33.4812C73.2068 33.7295 73.2478 34.1728 72.9996 34.4717C72.8417 34.6616 72.2791 34.8933 71.8907 35.0366C71.7145 35.1016 71.5339 34.9517 71.5655 34.7666C71.6351 34.3584 71.7595 33.7629 71.9175 33.5728ZM66.9831 37.7925C67.1733 37.6345 67.7688 37.51 68.1768 37.4404C68.362 37.4087 68.512 37.5894 68.447 37.7656C68.3037 38.1541 68.0721 38.7166 67.882 38.8745C67.5832 39.1228 67.1397 39.0818 66.8915 38.783C66.6433 38.4841 66.6843 38.0408 66.9831 37.7925ZM63.5548 31.1663C63.801 31.1435 64.3626 31.3777 64.7385 31.5508C64.909 31.6294 64.9307 31.8633 64.7774 31.9719C64.4396 32.2112 63.9305 32.5444 63.6844 32.5671C63.2975 32.6028 62.955 32.3183 62.9192 31.9314C62.8834 31.5447 63.168 31.2021 63.5548 31.1663ZM61.0723 36.3628C61.4803 36.4326 62.0758 36.5569 62.266 36.7148C62.5648 36.9631 62.6058 37.4065 62.3576 37.7053C62.1094 38.0042 61.6659 38.0452 61.3671 37.7969C61.1769 37.6392 60.9454 37.0764 60.8021 36.688C60.7371 36.5119 60.8871 36.3313 61.0723 36.3628ZM56.4038 34.3037C56.5617 34.1135 57.1243 33.8818 57.5126 33.7388C57.6889 33.6736 57.8695 33.8237 57.8378 34.0088C57.7683 34.417 57.6438 35.0124 57.4859 35.2026C57.2376 35.5015 56.7941 35.5425 56.4954 35.2942C56.1965 35.0459 56.1555 34.6025 56.4038 34.3037Z" fill="#FF9E26"/>
<path d="M67.882 38.8745C68.0721 38.7165 68.3037 38.154 68.447 37.7656C68.512 37.5893 68.362 37.4087 68.1768 37.4404C67.7688 37.51 67.1733 37.6345 66.9831 37.7925C66.6843 38.0408 66.6433 38.4841 66.8915 38.7829C67.1397 39.0818 67.5832 39.1228 67.882 38.8745Z" fill="#FFD16B"/>
<path d="M61.3671 37.7968C61.6659 38.0451 62.1094 38.0041 62.3576 37.7053C62.6058 37.4064 62.5648 36.9631 62.266 36.7148C62.0758 36.5568 61.4803 36.4326 61.0723 36.3627C60.8871 36.3312 60.7371 36.5119 60.8021 36.6879C60.9454 37.0764 61.1769 37.6391 61.3671 37.7968Z" fill="#FFD16B"/>
<path d="M71.8907 35.0367C72.2791 34.8934 72.8417 34.6617 72.9996 34.4717C73.2478 34.1729 73.2068 33.7295 72.908 33.4812C72.6092 33.233 72.1657 33.274 71.9175 33.5728C71.7595 33.763 71.6351 34.3584 71.5655 34.7666C71.5339 34.9517 71.7145 35.1016 71.8907 35.0367Z" fill="#FFD16B"/>
<path d="M63.6844 32.5672C63.9305 32.5445 64.4396 32.2112 64.7774 31.972C64.9307 31.8633 64.9091 31.6295 64.7385 31.5508C64.3626 31.3777 63.801 31.1436 63.5548 31.1663C63.168 31.2022 62.8834 31.5447 62.9193 31.9315C62.955 32.3184 63.2975 32.6028 63.6844 32.5672Z" fill="#FFD16B"/>
<path d="M57.4858 35.2028C57.6437 35.0126 57.7682 34.4171 57.8378 34.0089C57.8694 33.8238 57.6888 33.6737 57.5126 33.7389C57.1243 33.882 56.5616 34.1136 56.4037 34.3038C56.1555 34.6027 56.1965 35.046 56.4953 35.2943C56.7941 35.5426 57.2376 35.5016 57.4858 35.2028Z" fill="#FFD16B"/>
<g clip-path="url(#clip2_291_536)">
<path d="M10.5068 79.5605L10.0819 75.4219L11.221 86.936C11.3282 88.3853 12.5352 89.5063 13.9882 89.5063H27.9491C29.4022 89.5063 30.6091 88.3853 30.7163 86.936L31.8555 75.4219L31.4305 79.5605H10.5068Z" fill="#D0D5DA"/>
<path d="M8.97144 64.1978L9.68268 71.3865H32.2547L32.9659 64.1978H21.6157H19.0928H8.97144Z" fill="#D0D5DA"/>
<path d="M33.0584 60.2153H8.94159C7.84686 60.2153 6.95941 61.103 6.95941 62.1978C6.95941 63.2925 7.84686 64.1797 8.94159 64.1797H33.0584C34.1531 64.1797 35.0406 63.2925 35.0406 62.1978C35.0406 61.103 34.1531 60.2153 33.0584 60.2153Z" fill="#E5E9EE"/>
<path d="M23.6858 56.868C23.7896 56.4986 24.0874 56.212 24.46 56.1207L31.0664 54.511C31.7492 54.345 32.1675 53.657 32.0014 52.9742C31.8354 52.2903 31.1432 51.8648 30.4645 52.0391L23.857 53.6487C22.5941 53.9571 21.5905 54.9263 21.2366 56.1768L20.096 60.2154H22.7404L23.6858 56.868Z" fill="#E32939"/>
<path d="M9.66754 71.3865L10.0819 75.4219L10.5068 79.5606H31.4305L31.8555 75.4219L32.2698 71.3865H32.2547H9.68268H9.66754Z" fill="#E32939"/>
</g>
<circle cx="68" cy="12" r="4.35" stroke="#36D399" stroke-width="1.3"/>
</g>
<rect x="88" width="80" height="80" rx="8" fill="white"/>
<path d="M156 12.9334L152.733 16.2C152.611 16.3223 152.456 16.3834 152.267 16.3834C152.078 16.3834 151.922 16.3223 151.8 16.2C151.678 16.0778 151.617 15.9223 151.617 15.7334C151.617 15.5445 151.678 15.3889 151.8 15.2667L155.067 12L151.8 8.73337C151.678 8.61114 151.617 8.45559 151.617 8.2667C151.617 8.07781 151.678 7.92225 151.8 7.80003C151.922 7.67781 152.078 7.6167 152.267 7.6167C152.456 7.6167 152.611 7.67781 152.733 7.80003L156 11.0667L159.267 7.80003C159.389 7.67781 159.544 7.6167 159.733 7.6167C159.922 7.6167 160.078 7.67781 160.2 7.80003C160.322 7.92225 160.383 8.07781 160.383 8.2667C160.383 8.45559 160.322 8.61114 160.2 8.73337L156.933 12L160.2 15.2667C160.322 15.3889 160.383 15.5445 160.383 15.7334C160.383 15.9223 160.322 16.0778 160.2 16.2C160.078 16.3223 159.922 16.3834 159.733 16.3834C159.544 16.3834 159.389 16.3223 159.267 16.2L156 12.9334Z" fill="#F87272"/>
<path d="M110.608 9.67529L110.221 9.76433V13.0073C110.348 12.9935 110.478 12.9841 110.608 12.9731V9.67529Z" fill="#901A18"/>
<path d="M111.308 12.9284C111.504 12.9202 111.701 12.9122 111.901 12.911C113.263 12.4004 114.642 12.3851 115.413 13.1564C115.458 13.2012 115.494 13.2525 115.533 13.301C119.099 14.1175 121.625 16.1276 121.625 18.4833C121.625 18.7747 121.575 19.0587 121.5 19.3381C122.406 18.5419 123.027 17.6298 123.276 16.6492C123.288 16.6027 123.303 16.5571 123.313 16.5103C123.338 16.3954 123.347 16.2782 123.362 16.1616C123.378 16.0183 123.4 15.8756 123.4 15.7298C123.4 12.2551 118.763 9.41355 112.88 9.15259L111.308 9.51421L111.308 12.9284Z" fill="#901A18"/>
<path d="M109.521 9.92529L109.134 10.0143V13.1599C109.26 13.137 109.392 13.1218 109.521 13.1018V9.92529Z" fill="#901A18"/>
<path d="M102.507 19.3671C102.428 19.0786 102.375 18.7849 102.375 18.4834C102.375 16.1349 104.885 14.1294 108.434 13.3083V10.1753L107.378 10.418C107.339 10.4272 107.3 10.4295 107.262 10.4262C107.106 10.4124 106.967 10.301 106.927 10.1412C106.895 10.0137 106.938 9.88772 107.022 9.79663C103.224 10.868 100.6 13.1186 100.6 15.7299C100.6 15.8013 100.615 15.8707 100.619 15.9416C100.688 17.2064 101.379 18.3783 102.507 19.3671Z" fill="#901A18"/>
<path d="M108.569 18.9822C108.546 18.9475 108.525 18.9118 108.504 18.8762C108.47 18.9013 108.433 18.9203 108.4 18.9468C108.456 18.9557 108.512 18.9719 108.569 18.9822Z" fill="#F77F00"/>
<path d="M109.443 14.4603C109.468 14.4357 109.495 14.4123 109.521 14.388V13.1018C109.392 13.1218 109.26 13.137 109.134 13.1599V14.0855C109.269 14.1781 109.375 14.309 109.443 14.4603Z" fill="#F77F00"/>
<path d="M107.018 18.8906C107.172 18.8798 107.326 18.8752 107.481 18.8762C107.694 18.6223 107.937 18.4052 108.201 18.226C108.162 18.1062 108.128 17.985 108.104 17.8611C107.684 18.1325 107.313 18.4758 107.018 18.8906Z" fill="#F77F00"/>
<path d="M113.54 21.0333C112.988 20.7139 112.368 20.5743 111.748 20.6196C112.15 21.0113 112.503 21.4571 112.791 21.9562C112.857 22.0707 112.847 22.2047 112.783 22.3101C112.592 22.3178 112.4 22.325 112.206 22.327C112.2 22.3187 112.19 22.3152 112.185 22.3062C111.699 21.4645 111.012 20.7874 110.193 20.3138C110.007 20.2417 109.827 20.1506 109.655 20.0424C109.4 19.9307 109.138 19.8317 108.864 19.7584C107.455 19.3804 105.981 19.5738 104.715 20.3046C104.547 20.4017 104.334 20.3436 104.237 20.1768C104.14 20.0093 104.197 19.7953 104.365 19.6989C104.93 19.3729 105.532 19.1452 106.152 19.0109C106.153 18.9542 106.163 18.8973 106.194 18.8444C106.641 18.071 107.289 17.46 108.066 17.0599C108.077 16.9167 108.098 16.7723 108.13 16.6267C107.216 17.0404 106.417 17.7286 105.878 18.6619C105.813 18.774 105.696 18.8369 105.575 18.8369C105.515 18.8369 105.455 18.8219 105.4 18.7898C105.232 18.6934 105.175 18.4794 105.272 18.3119C105.337 18.1991 105.41 18.094 105.482 17.9876C105.439 18.0169 105.392 18.0388 105.336 18.0388H104.162C103.986 18.0388 103.852 17.8613 103.919 17.698C104.054 17.372 104.374 17.1423 104.749 17.1423C105.123 17.1423 105.444 17.372 105.578 17.698C105.595 17.7379 105.598 17.7784 105.593 17.817C106.316 16.8193 107.322 16.1224 108.434 15.7614V14.8263H108.042C107.865 14.8263 107.732 14.6487 107.799 14.4855C107.909 14.2186 108.147 14.0241 108.434 13.9595V13.3083C104.885 14.1295 102.375 16.135 102.375 18.4835C102.375 18.785 102.428 19.0787 102.507 19.3672C103.147 19.9272 103.922 20.4295 104.818 20.8522C104.847 20.7944 104.887 20.7412 104.947 20.7065C107.263 19.3696 110.208 20.1034 111.644 22.3226C111.35 22.3174 111.057 22.3103 110.769 22.2925C111.174 22.3178 111.584 22.333 112 22.333C112.915 22.333 113.799 22.2626 114.652 22.1429C114.381 21.6909 114.01 21.3044 113.54 21.0333Z" fill="#F77F00"/>
<path d="M105.568 21.1745C105.779 21.2586 105.997 21.336 106.218 21.4117C107.259 21.0605 108.418 21.1607 109.387 21.7245C109.544 21.8162 109.598 22.0095 109.525 22.1715C109.928 22.2235 110.338 22.2652 110.756 22.2915C109.505 20.7852 107.36 20.3017 105.568 21.1745Z" fill="#F77F00"/>
<path d="M110.608 12.9731C110.478 12.9841 110.348 12.9935 110.221 13.0073V13.8135C110.347 13.7225 110.476 13.6361 110.608 13.5535V12.9731Z" fill="#F77F00"/>
<path d="M116.613 19.7024C117.055 20.2074 117.419 20.7884 117.681 21.4353C117.952 21.3435 118.218 21.247 118.474 21.1429L118.473 21.1419C118.064 20.4333 117.379 19.9264 116.613 19.7024Z" fill="#F77F00"/>
<path d="M117.169 17.4308C116.586 17.2744 115.994 17.2208 115.409 17.2578C115.327 17.4275 115.237 17.5949 115.14 17.7598C117.074 17.5229 119.054 18.4198 120.087 20.2103C120.109 20.2484 120.117 20.2894 120.123 20.3304C120.275 20.2405 120.423 20.1495 120.566 20.0548C120.538 20.0326 120.508 20.0117 120.489 19.9785C119.759 18.7132 118.58 17.8088 117.169 17.4308Z" fill="#F77F00"/>
<path d="M114.365 18.8513C114.261 18.9718 114.153 19.0882 114.042 19.1996C114.188 19.2659 114.331 19.3382 114.472 19.4192C115.417 19.9651 116.137 20.7867 116.559 21.7699C116.712 21.7308 116.861 21.6881 117.01 21.6452C116.487 20.3921 115.529 19.4209 114.365 18.8513Z" fill="#F77F00"/>
<path d="M111.901 12.9111C111.701 12.9123 111.504 12.9204 111.308 12.9286V13.1627C111.504 13.0677 111.702 12.9858 111.901 12.9111Z" fill="#F77F00"/>
<path d="M114.122 20.0257C113.905 19.9006 113.679 19.799 113.449 19.7141C113.278 19.8431 113.106 19.9552 112.934 20.052C113.263 20.1374 113.587 20.2516 113.89 20.4269C114.55 20.8077 115.068 21.3628 115.401 22.0272C115.558 21.9985 115.708 21.9628 115.861 21.9303C115.492 21.1374 114.897 20.4731 114.122 20.0257Z" fill="#F77F00"/>
<path d="M115.704 16.5471C116.253 16.5433 116.805 16.6081 117.35 16.7545C118.941 17.1804 120.271 18.2017 121.095 19.6284C121.101 19.639 121.104 19.6506 121.106 19.6619C121.243 19.5561 121.375 19.4486 121.5 19.3382C121.575 19.0588 121.625 18.7747 121.625 18.4833C121.625 16.1277 119.099 14.1176 115.533 13.301C116.155 14.0672 116.142 15.3045 115.704 16.5471ZM116.743 15.4831C116.877 15.157 117.198 14.9273 117.573 14.9273C117.947 14.9273 118.268 15.157 118.402 15.4831C118.469 15.6461 118.336 15.8238 118.159 15.8238H116.986C116.81 15.8238 116.676 15.6461 116.743 15.4831Z" fill="#F77F00"/>
<path d="M115.124 18.4581C115.335 18.5843 115.537 18.7254 115.733 18.876C115.738 18.8755 115.743 18.8727 115.748 18.8724C117.119 18.8724 118.395 19.6066 119.08 20.7919C119.094 20.8176 119.1 20.8453 119.107 20.8728C119.264 20.7991 119.411 20.7184 119.562 20.6402C119.532 20.6171 119.501 20.5947 119.481 20.5602C118.574 18.9886 116.819 18.2095 115.124 18.4581Z" fill="#F77F00"/>
<path d="M123.276 16.6492C123.027 17.6299 122.406 18.5419 121.5 19.3382C121.375 19.4486 121.243 19.5561 121.106 19.6618C121.108 19.6694 121.111 19.6767 121.114 19.6841C120.943 19.8158 120.766 19.9443 120.58 20.0682C120.575 20.0641 120.571 20.0587 120.566 20.0546C120.424 20.1492 120.275 20.2403 120.123 20.3302C120.125 20.3384 120.13 20.3461 120.131 20.3543C119.953 20.4589 119.765 20.5565 119.576 20.6541C119.571 20.65 119.567 20.6442 119.562 20.6401C119.411 20.7183 119.264 20.799 119.107 20.8727L119.111 20.8856C118.909 20.9795 118.701 21.07 118.487 21.1558C118.484 21.1504 118.478 21.148 118.474 21.1429C118.218 21.2469 117.952 21.3435 117.681 21.4353L117.687 21.4469C117.579 21.4828 117.467 21.5142 117.358 21.5477L117.315 21.5609C117.214 21.5913 117.116 21.6241 117.014 21.6532L117.01 21.6451C116.861 21.688 116.712 21.7307 116.559 21.7699L116.564 21.7786C116.502 21.7945 116.436 21.8068 116.373 21.8215C116.349 21.8273 116.324 21.8321 116.3 21.8377C116.155 21.8705 116.012 21.9047 115.864 21.9355L115.862 21.9302C115.708 21.9627 115.558 21.9984 115.401 22.0271L115.405 22.0329C115.159 22.0773 114.906 22.1108 114.654 22.1457L114.652 22.1428C113.799 22.2624 112.915 22.3328 112 22.3328C111.583 22.3328 111.173 22.3176 110.769 22.2923L110.757 22.292L110.756 22.2913C110.338 22.265 109.928 22.2233 109.525 22.1713L109.524 22.1722C109.482 22.1667 109.441 22.1587 109.399 22.1528C108.581 22.0419 107.799 21.8801 107.061 21.6733C107.03 21.6646 106.998 21.6567 106.967 21.6478C106.732 21.5803 106.502 21.5079 106.276 21.4315C106.256 21.4248 106.235 21.4192 106.215 21.4123L106.218 21.4115C105.997 21.3358 105.779 21.2584 105.568 21.1743L105.561 21.177C105.373 21.1023 105.194 21.0212 105.015 20.9402C104.961 20.9161 104.905 20.8944 104.852 20.8697C104.84 20.8643 104.827 20.8595 104.816 20.854L104.817 20.852C103.922 20.4293 103.147 19.9271 102.507 19.367C101.379 18.3782 100.688 17.2064 100.619 15.9415C100.607 15.9123 100.6 15.8935 100.6 15.8935V18.8154C100.6 25.1111 105.704 30.215 112 30.215C118.296 30.215 123.4 25.1111 123.4 18.8154C123.4 18.8154 123.411 15.8643 123.4 15.8935C123.395 15.9841 123.373 16.0721 123.362 16.1617C123.347 16.2782 123.338 16.3955 123.313 16.5103C123.303 16.557 123.288 16.6028 123.276 16.6492Z" fill="#CB2C29"/>
<path d="M109.443 14.4605C109.375 14.3092 109.269 14.1783 109.134 14.0857V14.783C109.209 14.6982 109.285 14.6134 109.369 14.5293C109.393 14.5058 109.419 14.4839 109.443 14.4605Z" fill="#901A18"/>
<path d="M107.799 14.4855C107.732 14.6487 107.865 14.8263 108.042 14.8263H108.434V13.9595C108.147 14.0241 107.909 14.2186 107.799 14.4855Z" fill="#901A18"/>
<path d="M105.578 17.6981C105.444 17.372 105.123 17.1423 104.749 17.1423C104.374 17.1423 104.054 17.372 103.919 17.6981C103.852 17.8613 103.986 18.0389 104.162 18.0389H105.336C105.391 18.0389 105.439 18.017 105.482 17.9876C105.519 17.9312 105.554 17.8717 105.593 17.8171C105.598 17.7784 105.595 17.7379 105.578 17.6981Z" fill="#901A18"/>
<path d="M116.986 15.824H118.159C118.336 15.824 118.469 15.6463 118.402 15.4833C118.268 15.1572 117.947 14.9275 117.573 14.9275C117.198 14.9275 116.877 15.1572 116.743 15.4833C116.676 15.6463 116.81 15.824 116.986 15.824Z" fill="#901A18"/>
<path d="M109.134 10.0142L109.521 9.92519V9.05225L109.115 9.16231C109.124 9.19187 109.134 9.22058 109.134 9.25271L109.134 10.0142Z" fill="#3D3D3D"/>
<path d="M110.221 9.76436L110.608 9.67532V8.75708L110.202 8.86714C110.21 8.89671 110.221 8.92542 110.221 8.95755L110.221 9.76436Z" fill="#3D3D3D"/>
<path d="M123.828 6.18443L123.696 5.65567C123.667 5.5427 123.596 5.44803 123.496 5.38923C123.395 5.33027 123.278 5.31489 123.165 5.34532L111.289 8.57171C111.297 8.60127 111.308 8.62998 111.308 8.66211V9.51421L112.88 9.15259L123.507 6.7084C123.621 6.68208 123.717 6.61288 123.778 6.51358C123.839 6.41446 123.857 6.29756 123.828 6.18443Z" fill="#3D3D3D"/>
<path d="M106.927 10.1411C106.967 10.3009 107.106 10.4123 107.262 10.4262C107.3 10.4294 107.339 10.4272 107.378 10.418L108.434 10.1753V9.34766L107.195 9.68415C107.124 9.70329 107.068 9.74602 107.022 9.7966C106.938 9.88769 106.895 10.0136 106.927 10.1411Z" fill="#3D3D3D"/>
<path d="M108.822 8.91049L122.981 4.61821C123.093 4.58421 123.184 4.50884 123.238 4.40527C123.292 4.30222 123.302 4.18413 123.266 4.07356L123.097 3.55522C123.061 3.44414 122.984 3.35441 122.88 3.30298C122.775 3.25085 122.658 3.2435 122.547 3.28144L106.909 8.70012C106.716 8.76711 106.61 8.97989 106.674 9.1742C106.719 9.31502 106.842 9.41141 106.981 9.43157C107.033 9.43927 107.089 9.43568 107.143 9.41927L108.558 8.99031C108.62 8.93785 108.697 8.90281 108.784 8.90281C108.797 8.90281 108.809 8.90895 108.822 8.91049Z" fill="#3D3D3D"/>
<path d="M108.434 10.1753V15.7613L108.455 15.7547C108.624 15.4289 108.848 15.1034 109.134 14.7828V9.25283C109.134 9.2207 109.124 9.19199 109.115 9.16243C109.078 9.02639 108.965 8.92676 108.822 8.91053C108.809 8.90899 108.797 8.90283 108.784 8.90283C108.697 8.90283 108.62 8.93787 108.558 8.99033C108.484 9.05459 108.434 9.14653 108.434 9.25283V10.1753Z" fill="#FFAD00"/>
<path d="M109.521 9.92546V14.3881C109.74 14.1829 109.974 13.9906 110.221 13.8136V8.95767C110.221 8.92554 110.21 8.89683 110.202 8.86726C110.162 8.71892 110.032 8.60767 109.871 8.60767C109.677 8.60767 109.521 8.76421 109.521 8.95767V9.92546Z" fill="#FFAD00"/>
<path d="M110.608 9.67534V13.5535C110.836 13.4107 111.069 13.2782 111.308 13.1627V8.66226C111.308 8.63013 111.297 8.60142 111.289 8.57185C111.249 8.42334 111.119 8.31226 110.958 8.31226C110.764 8.31226 110.608 8.4688 110.608 8.66226V9.67534Z" fill="#FFAD00"/>
<path d="M114.472 19.4193C114.331 19.3383 114.188 19.266 114.042 19.1997L114.041 19.2012C113.846 19.3962 113.648 19.5644 113.449 19.7141C113.679 19.7991 113.905 19.9006 114.122 20.0257C114.897 20.4731 115.492 21.1374 115.861 21.9303L115.864 21.9356C116.011 21.9049 116.155 21.8707 116.3 21.8379C116.324 21.8324 116.349 21.8273 116.373 21.8216C116.436 21.8069 116.502 21.7946 116.564 21.7787L116.559 21.77C116.137 20.7869 115.417 19.9652 114.472 19.4193Z" fill="#FFAD00"/>
<path d="M115.402 22.0261V22.0331C115.157 22.0751 114.905 22.1101 114.653 22.1452C114.38 21.6901 114.009 21.305 113.54 21.0321C112.987 20.7171 112.371 20.577 111.748 20.619C112.147 21.0111 112.504 21.4592 112.791 21.9562C112.854 22.0681 112.847 22.2081 112.784 22.313C112.595 22.3202 112.399 22.327 112.203 22.327C112.203 22.3202 112.189 22.313 112.182 22.3062C111.699 21.466 111.013 20.787 110.194 20.3111C110.369 20.3812 110.544 20.437 110.726 20.4721C111.013 20.5211 111.3 20.5281 111.601 20.5001C112.035 20.4511 112.483 20.3041 112.931 20.052C113.26 20.1361 113.589 20.255 113.89 20.43C114.548 20.8081 115.066 21.3611 115.402 22.0261Z" fill="#FFAD00"/>
<path d="M105.593 17.8169C105.554 17.8716 105.519 17.931 105.482 17.9874C105.41 18.0939 105.337 18.199 105.272 18.3118C105.175 18.4793 105.232 18.6932 105.4 18.7896C105.455 18.8218 105.515 18.8368 105.575 18.8368C105.696 18.8368 105.813 18.7739 105.878 18.6618C106.417 17.7285 107.216 17.0403 108.13 16.6266C108.195 16.3383 108.303 16.0467 108.455 15.7546L108.434 15.7613C107.322 16.1222 106.316 16.8192 105.593 17.8169Z" fill="#FFAD00"/>
<path d="M109.655 20.0452C109.403 19.9331 109.137 19.8351 108.864 19.7581C107.457 19.38 105.98 19.5761 104.713 20.3041C104.545 20.402 104.335 20.3461 104.237 20.1781C104.139 20.0101 104.195 19.7931 104.363 19.702C104.93 19.3732 105.532 19.1421 106.155 19.0092C106.155 18.9531 106.162 18.8971 106.197 18.841C106.638 18.0711 107.289 17.462 108.066 17.063C108.045 17.3361 108.052 17.602 108.101 17.8611C107.681 18.1342 107.31 18.477 107.016 18.8901C107.17 18.8831 107.324 18.8761 107.478 18.8761C107.695 18.6241 107.94 18.4071 108.199 18.2251C108.276 18.4491 108.381 18.666 108.507 18.8761C108.472 18.9041 108.43 18.9181 108.402 18.9461C108.458 18.9531 108.514 18.9741 108.57 18.9812C108.696 19.177 108.85 19.366 109.025 19.541C109.221 19.737 109.431 19.905 109.655 20.0452Z" fill="#FFAD00"/>
<path d="M117.35 16.7547C116.805 16.6083 116.253 16.5435 115.704 16.5473C115.62 16.7852 115.523 17.0231 115.409 17.2579C115.994 17.2208 116.586 17.2744 117.169 17.4308C118.58 17.8088 119.759 18.7132 120.489 19.9786C120.508 20.0117 120.538 20.0326 120.566 20.0548C120.571 20.0589 120.575 20.0644 120.58 20.0685C120.766 19.9446 120.943 19.8161 121.114 19.6843C121.111 19.6769 121.108 19.6696 121.106 19.6621C121.104 19.6508 121.101 19.6392 121.095 19.6286C120.271 18.2019 118.941 17.1806 117.35 16.7547Z" fill="#FFAD00"/>
<path d="M120.134 20.353C119.952 20.4579 119.763 20.556 119.574 20.6539C119.574 20.6469 119.567 20.6469 119.56 20.6399C119.532 20.6189 119.504 20.598 119.483 20.5628C118.573 18.9878 116.816 18.2109 115.122 18.456C115.332 18.5819 115.535 18.7219 115.731 18.8759C115.738 18.8759 115.745 18.8759 115.745 18.8689C117.117 18.8689 118.398 19.6039 119.077 20.7939C119.091 20.8149 119.098 20.8429 119.105 20.871C119.105 20.878 119.112 20.878 119.112 20.885C118.909 20.9829 118.699 21.067 118.489 21.1579C118.482 21.1509 118.475 21.1509 118.475 21.1439C118.062 20.4299 117.376 19.9259 116.613 19.7018C117.054 20.206 117.418 20.7869 117.684 21.4378V21.445C117.579 21.4799 117.467 21.5149 117.355 21.5499C117.341 21.5499 117.327 21.5569 117.313 21.5639C117.215 21.592 117.117 21.6268 117.012 21.6549V21.648C116.487 20.395 115.528 19.4219 114.366 18.848C114.443 18.7639 114.513 18.6658 114.59 18.5749C114.66 18.4768 114.73 18.3859 114.8 18.2878C114.919 18.1128 115.038 17.9378 115.143 17.7628C117.075 17.5249 119.056 18.4209 120.085 20.2128C120.106 20.248 120.12 20.2899 120.12 20.3319C120.127 20.3389 120.127 20.346 120.134 20.353Z" fill="#FFAD00"/>
<path d="M104.947 20.7064C104.887 20.7411 104.847 20.7942 104.817 20.852L104.816 20.854C104.827 20.8595 104.84 20.8643 104.852 20.8698C104.905 20.8944 104.961 20.9161 105.015 20.9402C105.194 21.0212 105.373 21.1024 105.561 21.177L105.568 21.1743C107.36 20.3015 109.505 20.785 110.756 22.2913L110.757 22.292L110.769 22.2923C111.057 22.3101 111.35 22.3173 111.644 22.3224C110.208 20.1033 107.263 19.3694 104.947 20.7064Z" fill="#FFAD00"/>
<path d="M109.387 21.7243C108.418 21.1605 107.259 21.0603 106.218 21.4115L106.215 21.4124C106.235 21.4192 106.256 21.4248 106.276 21.4315C106.502 21.5079 106.732 21.5804 106.967 21.6479C106.998 21.6567 107.03 21.6646 107.061 21.6733C107.799 21.8805 108.581 22.042 109.398 22.1529C109.441 22.1587 109.482 22.1667 109.524 22.1722L109.525 22.1713C109.598 22.0093 109.544 21.816 109.387 21.7243Z" fill="#FFAD00"/>
<path d="M110.608 13.5534C110.476 13.6359 110.347 13.7224 110.221 13.8133C109.974 13.9904 109.74 14.1827 109.521 14.3879C109.495 14.4122 109.468 14.4356 109.443 14.4602C109.419 14.4836 109.393 14.5055 109.369 14.5291C109.285 14.6131 109.209 14.6979 109.134 14.7827C108.848 15.1033 108.624 15.4288 108.455 15.7546C108.303 16.0466 108.195 16.3382 108.13 16.6265C108.098 16.7721 108.077 16.9165 108.065 17.0597C108.043 17.3328 108.054 17.6013 108.104 17.8609C108.128 17.9848 108.162 18.106 108.201 18.2258C108.275 18.4515 108.378 18.6687 108.504 18.876C108.525 18.9116 108.546 18.9473 108.569 18.982C108.699 19.1799 108.851 19.3682 109.026 19.5436C109.221 19.7382 109.433 19.903 109.655 20.0423C109.827 20.1504 110.007 20.2415 110.193 20.3136C110.367 20.3813 110.545 20.435 110.729 20.469C111.011 20.5213 111.303 20.5297 111.601 20.4967C112.038 20.448 112.486 20.3029 112.934 20.0518C113.106 19.9551 113.278 19.843 113.449 19.714C113.648 19.5642 113.846 19.3961 114.041 19.2011L114.042 19.1995C114.153 19.0881 114.261 18.9717 114.365 18.8513C114.443 18.7617 114.516 18.6679 114.589 18.5741C114.663 18.4799 114.733 18.3835 114.801 18.2857C114.921 18.1145 115.036 17.9395 115.14 17.7595C115.237 17.5946 115.327 17.4273 115.409 17.2576C115.523 17.0228 115.62 16.7849 115.704 16.547C116.142 15.3044 116.155 14.0671 115.533 13.301C115.494 13.2524 115.458 13.2012 115.413 13.1564C114.642 12.3851 113.263 12.4003 111.901 12.911C111.702 12.9857 111.504 13.0675 111.308 13.1626C111.069 13.2781 110.836 13.4105 110.608 13.5534ZM112.879 15.6912C113.606 16.4189 113.606 17.5987 112.879 18.3264C112.151 19.0541 110.971 19.0541 110.243 18.3264C109.516 17.5987 109.516 16.4189 110.243 15.6912C110.971 14.9635 112.151 14.9635 112.879 15.6912Z" fill="white"/>
<path d="M110.243 15.6913C109.516 16.419 109.516 17.5988 110.243 18.3265C110.971 19.0542 112.151 19.0542 112.879 18.3265C113.606 17.5988 113.606 16.419 112.879 15.6913C112.151 14.9636 110.971 14.9636 110.243 15.6913Z" fill="#FFCD00"/>
<g clip-path="url(#clip3_291_536)">
<path d="M139 39.056C146.149 39.056 151.945 35.699 151.945 31.5579C151.945 27.4168 146.149 24.0598 139 24.0598C131.851 24.0598 126.055 27.4168 126.055 31.5579C126.055 35.699 131.851 39.056 139 39.056Z" fill="#BABABA"/>
<path d="M139 36.7195C149.213 36.7195 157.493 31.9238 157.493 26.008C157.493 20.0921 149.213 15.2964 139 15.2964C128.787 15.2964 120.507 20.0921 120.507 26.008C120.507 31.9238 128.787 36.7195 139 36.7195Z" fill="#D9D9D9"/>
<path d="M139 34.8733C146.706 34.8733 152.953 31.2548 152.953 26.7911C152.953 22.3275 146.706 18.709 139 18.709C131.294 18.709 125.047 22.3275 125.047 26.7911C125.047 31.2548 131.294 34.8733 139 34.8733Z" fill="#EC4F00"/>
<path d="M145.506 31.093C145.286 31.093 145.084 30.9456 145.024 30.7229C143.998 26.8948 140.047 24.6096 136.22 25.6399C135.955 25.7073 135.679 25.553 135.607 25.2854C135.536 25.0188 135.694 24.7454 135.961 24.6731C140.32 23.5091 144.821 26.1028 145.99 30.4632C146.061 30.7307 145.903 31.0042 145.636 31.0764C145.593 31.0872 145.549 31.093 145.506 31.093Z" fill="#FFAD00"/>
<path d="M144.021 31.4914C143.801 31.4914 143.599 31.3439 143.539 31.1213C143.149 29.6652 142.213 28.4474 140.905 27.6916C139.596 26.9367 138.073 26.7326 136.618 27.1252C136.354 27.1926 136.078 27.0373 136.006 26.7717C135.935 26.5041 136.093 26.2306 136.359 26.1584C138.072 25.7023 139.864 25.9357 141.405 26.8254C142.945 27.715 144.046 29.1486 144.505 30.8615C144.576 31.1291 144.418 31.4025 144.151 31.4748C144.108 31.4855 144.064 31.4914 144.021 31.4914Z" fill="#FFAD00"/>
<path d="M142.536 31.8888C142.315 31.8888 142.113 31.7414 142.054 31.5178C141.467 29.3283 139.212 28.0197 137.016 28.6105C136.749 28.676 136.475 28.5236 136.404 28.256C136.333 27.9894 136.491 27.716 136.757 27.6437C139.481 26.9172 142.29 28.5353 143.02 31.2599C143.091 31.5265 142.933 31.8 142.666 31.8722C142.623 31.883 142.579 31.8888 142.536 31.8888Z" fill="#FFAD00"/>
<path d="M129.629 26.1252C129.544 26.1252 129.458 26.1037 129.379 26.0578C129.14 25.9201 129.058 25.6144 129.196 25.3752C131.274 21.7775 135.891 20.5383 139.49 22.6174C139.729 22.7551 139.811 23.0607 139.673 23.3C139.535 23.5392 139.228 23.6203 138.99 23.4826C135.869 21.6828 131.864 22.756 130.062 25.8752C129.97 26.0353 129.802 26.1252 129.629 26.1252Z" fill="#FFAD00"/>
<path d="M130.848 26.8291C130.763 26.8291 130.677 26.8077 130.598 26.7618C130.359 26.6241 130.277 26.3184 130.415 26.0791C132.106 23.1534 135.862 22.1465 138.787 23.836C139.026 23.9737 139.108 24.2793 138.97 24.5186C138.831 24.7569 138.525 24.8399 138.287 24.7012C135.839 23.2881 132.696 24.1299 131.281 26.5792C131.188 26.7393 131.021 26.8291 130.848 26.8291Z" fill="#FFAD00"/>
<path d="M132.355 27.0958C132.25 27.0958 132.145 27.0626 132.055 26.9952C131.834 26.8282 131.791 26.5147 131.957 26.294C133.389 24.3985 136.024 23.8653 138.083 25.0548C138.322 25.1925 138.404 25.4981 138.266 25.7374C138.127 25.9757 137.821 26.0577 137.583 25.92C135.958 24.9835 133.883 25.4034 132.755 26.8975C132.657 27.0274 132.507 27.0958 132.355 27.0958Z" fill="#FFAD00"/>
<path d="M149.738 27.8654C149.565 27.8654 149.397 27.7756 149.305 27.6154C148.345 25.9523 146.794 24.7629 144.94 24.2658C143.084 23.7687 141.149 24.0246 139.485 24.9836C139.247 25.1213 138.94 25.0392 138.802 24.801C138.664 24.5617 138.746 24.256 138.985 24.1183C140.88 23.0256 143.085 22.7336 145.199 23.3C147.312 23.8664 149.077 25.2209 150.171 27.1154C150.309 27.3547 150.227 27.6603 149.988 27.798C149.909 27.8439 149.823 27.8654 149.738 27.8654Z" fill="#FFAD00"/>
<path d="M148.406 28.6339C148.233 28.6339 148.065 28.5441 147.973 28.3839C147.219 27.0792 146 26.1457 144.541 25.7541C143.081 25.3634 141.559 25.5626 140.254 26.3156C140.014 26.4533 139.709 26.3722 139.571 26.133C139.433 25.8937 139.515 25.588 139.754 25.4503C141.289 24.5626 143.081 24.3253 144.8 24.7882C146.517 25.2482 147.952 26.3478 148.839 27.8839C148.977 28.1232 148.895 28.4288 148.656 28.5665C148.577 28.6124 148.491 28.6339 148.406 28.6339Z" fill="#FFAD00"/>
<path d="M147.075 29.4034C146.902 29.4034 146.734 29.3136 146.641 29.1534C145.909 27.8839 144.543 27.0977 143.074 27.0977C143.067 27.0987 143.063 27.1065 143.054 27.0977C142.779 27.0977 142.555 26.8751 142.554 26.5997C142.553 26.3165 142.79 26.0928 143.074 26.0977C144.899 26.0977 146.597 27.0753 147.507 28.6534C147.646 28.8927 147.563 29.1983 147.324 29.336C147.246 29.3819 147.16 29.4034 147.075 29.4034Z" fill="#FFAD00"/>
<path d="M138.765 30.9416C138.592 30.9416 138.424 30.8517 138.332 30.6916C137.372 29.0285 135.821 27.839 133.967 27.342C132.111 26.8439 130.175 27.1008 128.512 28.0597C128.273 28.1974 127.967 28.1154 127.829 27.8771C127.691 27.6379 127.773 27.3322 128.012 27.1945C129.906 26.1007 132.112 25.8097 134.226 26.3761C136.338 26.9425 138.104 28.297 139.198 30.1916C139.336 30.4308 139.254 30.7365 139.015 30.8742C138.936 30.9201 138.85 30.9416 138.765 30.9416Z" fill="#FFAD00"/>
<path d="M137.434 31.7101C137.261 31.7101 137.093 31.6203 137 31.4601C136.247 30.1554 135.028 29.2219 133.568 28.8303C132.108 28.4387 130.586 28.6388 129.281 29.3918C129.042 29.5295 128.736 29.4474 128.598 29.2092C128.46 28.9699 128.542 28.6642 128.781 28.5265C130.316 27.6379 132.108 27.4025 133.827 27.8644C135.544 28.3244 136.979 29.424 137.866 30.9601C138.004 31.1994 137.922 31.505 137.683 31.6427C137.604 31.6886 137.519 31.7101 137.434 31.7101Z" fill="#FFAD00"/>
<path d="M134.434 30.804C134.349 30.804 134.262 30.7825 134.183 30.7366C132.906 29.9925 131.323 29.9885 130.05 30.7229C129.811 30.8616 129.505 30.7786 129.367 30.5403C129.229 30.301 129.311 29.9954 129.55 29.8577C131.133 28.9426 133.102 28.9485 134.686 29.8714C134.925 30.011 135.006 30.3167 134.867 30.5559C134.774 30.7151 134.606 30.804 134.434 30.804Z" fill="#FFAD00"/>
<path d="M136.193 31.4167C136.108 31.5623 136.168 31.7442 136.323 31.8101C136.758 31.9944 137.646 32.2831 138.472 32.009C139.298 31.7349 139.838 30.9726 140.076 30.5651C140.161 30.4196 140.101 30.2376 139.945 30.1718C139.511 29.9875 138.623 29.6988 137.797 29.9729C136.971 30.2469 136.431 31.0092 136.193 31.4167Z" fill="#036D50"/>
<path d="M149.946 29.3242C150.043 29.4623 149.997 29.6487 149.848 29.7269C149.433 29.9437 148.583 30.2977 147.748 30.0946C146.914 29.8914 146.321 29.1862 146.053 28.803C145.956 28.6649 146.001 28.4785 146.151 28.4003C146.565 28.1835 147.416 27.8295 148.25 28.0326C149.085 28.2358 149.677 28.941 149.946 29.3242Z" fill="#036D50"/>
<path d="M143.075 24.6279C143.101 24.4813 143.08 24.3257 143 24.1867C142.916 24.0425 142.786 23.9442 142.64 23.895C142.639 23.7461 142.592 23.5965 142.489 23.4734C142.382 23.346 142.236 23.2719 142.084 23.2488C142.058 23.1022 141.985 22.963 141.862 22.8598C141.734 22.7529 141.578 22.7052 141.424 22.709C141.373 22.5691 141.277 22.4447 141.138 22.3643C140.994 22.2812 140.832 22.2614 140.68 22.2919C140.606 22.163 140.49 22.0571 140.339 22.0022C140.183 21.9453 140.02 21.9538 139.876 22.0102C139.78 21.8962 139.647 21.8121 139.489 21.7842C139.325 21.7553 139.166 21.7922 139.035 21.8725C138.92 21.7768 138.775 21.717 138.615 21.717C138.448 21.717 138.298 21.781 138.182 21.883C138.053 21.8087 137.9 21.7749 137.742 21.8028C137.578 21.8317 137.441 21.9208 137.345 22.0414C137.205 21.9906 137.048 21.984 136.897 22.0389C136.74 22.0958 136.621 22.2073 136.547 22.3428C136.4 22.3171 136.245 22.3379 136.106 22.4182C135.962 22.5013 135.863 22.6318 135.814 22.7782C135.665 22.7782 135.516 22.8257 135.393 22.9288C135.265 23.0359 135.191 23.1815 135.168 23.3341C135.021 23.3601 134.882 23.4328 134.779 23.5557C134.672 23.6833 134.624 23.8396 134.628 23.9938C134.488 24.0448 134.364 24.1406 134.284 24.2796C134.2 24.4238 134.181 24.586 134.211 24.7373C134.082 24.8119 133.921 24.9094 133.921 25.0786L133.925 25.0936H133.919C133.919 26.6067 136.036 27.8334 138.649 27.8334C141.261 27.8334 143.379 26.6067 143.379 25.0936C143.379 24.8665 143.21 24.7018 143.075 24.6279Z" fill="#CB2C29"/>
</g>
<g clip-path="url(#clip4_291_536)">
<path d="M98.3405 34.5302C98.4207 35.9991 99.2193 37.3601 100.524 38.5088C100.432 38.1736 100.371 37.8324 100.371 37.4823C100.371 35.6473 101.689 33.9943 103.797 32.8161C104.114 32.4718 104.517 32.2005 105.002 32.0704C105.086 32.0482 105.169 32.0435 105.253 32.0298C105.481 30.857 106.348 29.857 107.575 29.5283C109.001 29.1461 110.447 29.7991 111.16 31.0174C111.274 31.0155 111.385 31.0074 111.5 31.0074C117.646 31.0074 122.629 33.9062 122.629 37.4823C122.629 37.8324 122.568 38.1736 122.476 38.5088C123.781 37.3601 124.579 35.9993 124.659 34.5305C124.664 34.4482 124.681 34.3675 124.681 34.2844C124.681 32.9915 124.125 31.7751 123.154 30.7064C120.944 28.2747 116.557 26.6157 111.5 26.6157C106.443 26.6157 102.056 28.2747 99.8461 30.7064C98.8747 31.7752 98.3192 32.9915 98.3192 34.2844C98.3192 34.3675 98.336 34.448 98.3405 34.5302Z" fill="#3D3D3D"/>
<path d="M122.629 37.4822C122.629 33.9062 117.646 31.0073 111.5 31.0073C111.385 31.0073 111.274 31.0154 111.16 31.0174C111.304 31.2637 111.429 31.5243 111.506 31.8138C111.509 31.8242 111.51 31.8347 111.513 31.8452C111.611 31.8056 111.706 31.7601 111.811 31.7319C113.228 31.3523 114.683 32.1981 115.061 33.6212L115.068 33.6522C115.198 34.1976 114.765 34.7192 114.207 34.7192H104.142C103.52 34.7192 103.07 34.0797 103.323 33.5097C103.438 33.2521 103.605 33.0239 103.797 32.8161C101.689 33.9942 100.371 35.6472 100.371 37.4822C100.371 37.8324 100.432 38.1735 100.524 38.5087C102.88 40.5815 106.907 41.953 111.5 41.953C116.093 41.953 120.12 40.5815 122.476 38.5087C122.568 38.1735 122.629 37.8324 122.629 37.4822ZM104.794 37.472C105.07 36.7978 105.731 36.3231 106.501 36.3231C107.272 36.3231 107.933 36.7978 108.209 37.472C108.347 37.8093 108.072 38.1765 107.709 38.1765H105.294C104.931 38.1765 104.656 37.8093 104.794 37.472ZM115.368 39.7812H110.889C110.259 39.7812 109.84 39.1385 110.074 38.5516C110.56 37.3359 111.744 36.4774 113.128 36.4774C114.512 36.4774 115.696 37.3359 116.182 38.5516C116.417 39.1385 115.997 39.7812 115.368 39.7812ZM116.728 35.7028C116.365 35.7028 116.09 35.3355 116.229 34.9984C116.505 34.324 117.165 33.8494 117.936 33.8494C118.707 33.8494 119.367 34.324 119.643 34.9984C119.781 35.3355 119.507 35.7028 119.144 35.7028H116.728Z" fill="#FFAD00"/>
<path d="M104.142 34.7192H114.207C114.765 34.7192 115.198 34.1975 115.068 33.6522L115.061 33.6212C114.683 32.198 113.228 31.3523 111.811 31.7319C111.706 31.7601 111.611 31.8056 111.513 31.8451C111.51 31.8347 111.509 31.8242 111.506 31.8137C111.429 31.5243 111.304 31.2636 111.16 31.0173C110.447 29.799 109.001 29.146 107.575 29.5282C106.348 29.8569 105.481 30.8569 105.253 32.0297C105.169 32.0434 105.086 32.0481 105.002 32.0703C104.517 32.2004 104.114 32.4717 103.797 32.816C103.605 33.0239 103.438 33.252 103.323 33.5097C103.07 34.0796 103.52 34.7192 104.142 34.7192Z" fill="#037F56"/>
<path d="M119.643 34.9984C119.367 34.324 118.707 33.8494 117.936 33.8494C117.165 33.8494 116.505 34.324 116.229 34.9984C116.09 35.3355 116.365 35.7028 116.728 35.7028H119.144C119.507 35.7028 119.781 35.3355 119.643 34.9984Z" fill="#F77F00"/>
<path d="M108.209 37.4721C107.933 36.7979 107.272 36.3232 106.501 36.3232C105.731 36.3232 105.07 36.7979 104.794 37.4721C104.656 37.8094 104.931 38.1766 105.294 38.1766H107.709C108.072 38.1766 108.347 37.8094 108.209 37.4721Z" fill="#F77F00"/>
<path d="M127.688 34.2843C127.688 32.3083 126.093 30.7063 124.125 30.7063H123.154C124.125 31.7751 124.681 32.9914 124.681 34.2843C124.681 34.3674 124.664 34.4479 124.66 34.5302C124.673 34.4962 124.681 34.4746 124.681 34.4746V37.8063C126.382 37.5367 127.688 36.0693 127.688 34.2843Z" fill="#4E5968"/>
<path d="M98.3405 34.5302C98.336 34.4479 98.3192 34.3674 98.3192 34.2843C98.3192 32.9914 98.8747 31.7751 99.8461 30.7063H98.8748C96.9074 30.7063 95.3125 32.3083 95.3125 34.2843C95.3125 36.0693 96.6175 37.5367 98.3192 37.8063V34.4746C98.3192 34.4746 98.3271 34.4962 98.3405 34.5302Z" fill="#4E5968"/>
<path d="M116.182 38.5516C115.696 37.3359 114.512 36.4773 113.128 36.4773C111.744 36.4773 110.56 37.3358 110.074 38.5516C109.84 39.1384 110.259 39.7812 110.889 39.7812H115.368C115.997 39.7812 116.417 39.1384 116.182 38.5516Z" fill="#C50010"/>
<path d="M124.659 34.5302C124.579 35.999 123.781 37.36 122.476 38.5087C120.12 40.5815 116.093 41.9529 111.5 41.9529C106.907 41.9529 102.88 40.5815 100.524 38.5087C99.2193 37.36 98.4208 35.9992 98.3405 34.5304C98.3271 34.4964 98.3192 34.4746 98.3192 34.4746V37.8678C98.3192 45.1797 104.22 51.1071 111.5 51.1071C118.78 51.1071 124.681 45.1797 124.681 37.8678V34.4746C124.681 34.4746 124.673 34.4962 124.659 34.5302Z" fill="#4E5968"/>
</g>
<g clip-path="url(#clip5_291_536)">
<path d="M157.904 47.0851C157.904 47.7937 157.78 48.4801 157.544 49.144L157.173 49.9762C157.161 49.9987 157.15 50.0102 157.139 50.0327C157.06 50.1789 156.97 50.325 156.88 50.4714C156.824 50.5612 156.768 50.6625 156.7 50.7639C156.554 50.9663 156.408 51.1687 156.239 51.3714C156.216 51.4049 156.194 51.4275 156.171 51.45C155.98 51.6752 155.789 51.9001 155.575 52.1138C155.395 52.2827 155.192 52.4514 155.001 52.62C155.114 52.1814 155.192 51.7425 155.192 51.2926C155.192 48.5477 152.942 46.1175 149.466 44.5539L150.524 40.8075C150.58 40.6051 150.524 40.4027 150.411 40.2225L151.435 39.2439C153.258 40.1102 154.776 41.1676 155.89 42.3824C157.172 43.7887 157.904 45.3864 157.904 47.0851Z" fill="#3D3D3D"/>
<path d="M146.496 37.6352L138.509 39.2887C135.617 39.7839 133.21 41.7076 132.063 44.3289C128.283 45.87 125.808 48.4125 125.808 51.2926C125.808 51.7425 125.886 52.1814 125.999 52.62C125.808 52.4514 125.605 52.2827 125.436 52.1138C124.975 51.6527 124.592 51.1577 124.255 50.6513L124.3 50.7526C123.974 50.2689 123.715 49.785 123.513 49.2675C123.513 49.2563 123.501 49.245 123.49 49.2225C123.366 48.8962 123.276 48.5589 123.209 48.2101C123.209 48.2026 123.205 48.1951 123.197 48.1876C123.13 47.8275 123.096 47.4564 123.096 47.0851C123.096 45.3863 123.827 43.7886 125.11 42.3824C128.035 39.1876 133.817 37.0051 140.5 37.0051C142.615 37.0051 144.629 37.2413 146.496 37.6352Z" fill="#3D3D3D"/>
<path d="M155.195 51.2935C155.195 48.5494 152.944 46.1154 149.463 44.5587L148.517 47.8831C148.51 48.333 148.347 48.7373 148.061 49.0977C148.328 49.0317 148.604 48.9875 148.892 48.9875C150.354 48.9875 151.605 49.8903 152.118 51.1688C152.365 51.7863 151.923 52.4622 151.258 52.4622H146.526C145.861 52.4622 145.418 51.7863 145.666 51.1688C145.78 50.884 145.936 50.6217 146.118 50.38C141.387 52.2518 131.3 51.2518 131.356 47.6151C131.375 46.4472 131.627 45.3381 132.066 44.3296C128.283 45.8699 125.805 48.4121 125.805 51.2936C125.805 51.7454 125.883 52.1854 126 52.618C126.185 52.7819 126.353 52.9528 126.554 53.1093L126.583 53.1346C127.004 53.4592 127.464 53.7652 127.948 54.058C128.096 54.147 128.256 54.2286 128.409 54.3145C128.748 54.5051 129.096 54.6897 129.46 54.8636C129.674 54.9655 129.894 55.0627 130.115 55.1586C133.015 56.4154 136.599 57.1713 140.5 57.1713C144.425 57.1713 148.03 56.4074 150.939 55.1366C151.115 55.06 151.292 54.9844 151.462 54.9039C151.978 54.6606 152.478 54.4065 152.942 54.1313C152.956 54.1225 152.969 54.1127 152.984 54.1039C153.45 53.8251 153.882 53.5282 154.29 53.2203C154.382 53.1511 154.47 53.0799 154.559 53.0094C154.717 52.8836 154.851 52.7479 155 52.6182C155.117 52.1854 155.195 51.7454 155.195 51.2935ZM132.541 52.2065H129.351C128.872 52.2065 128.51 51.7237 128.692 51.2801C129.056 50.3938 129.928 49.7697 130.946 49.7697C131.964 49.7697 132.836 50.3938 133.201 51.2801C133.383 51.7237 133.021 52.2065 132.541 52.2065ZM137.977 55.3642C137.498 55.3642 137.135 54.8814 137.317 54.4381C137.682 53.5518 138.554 52.9277 139.572 52.9277C140.59 52.9277 141.462 53.5518 141.827 54.4381C142.009 54.8814 141.646 55.3642 141.167 55.3642H137.977Z" fill="#FFC450"/>
<path d="M141.827 54.4381C141.462 53.5518 140.59 52.9277 139.572 52.9277C138.554 52.9277 137.682 53.5518 137.317 54.4381C137.135 54.8814 137.498 55.3642 137.977 55.3642H141.167C141.646 55.3642 142.009 54.8814 141.827 54.4381Z" fill="#FFE3A0"/>
<path d="M130.946 49.7698C129.928 49.7698 129.056 50.3938 128.692 51.2801C128.51 51.7237 128.872 52.2065 129.351 52.2065H132.541C133.021 52.2065 133.383 51.7237 133.201 51.2801C132.836 50.3938 131.964 49.7698 130.946 49.7698Z" fill="#036D50"/>
<path d="M155.969 37.0385C155.946 38.0287 155.125 38.8161 154.135 38.7936L152.999 38.7711L151.952 38.7486L151.435 39.2438L150.411 40.2224C150.389 40.1889 150.378 40.1438 150.344 40.1101L148.015 37.6799C147.992 37.6576 147.959 37.6461 147.925 37.6236L149.466 36.15L149.489 35.0923L149.511 33.9789C149.534 32.9774 150.355 32.2013 151.345 32.2125C152.346 32.235 153.122 33.0563 153.111 34.0574L153.077 35.1711L154.214 35.2049C155.204 35.2274 155.991 36.0487 155.969 37.0385Z" fill="#D5D5D5"/>
<path d="M150.524 40.8075L149.466 44.5538L148.521 47.8838C148.51 48.3337 148.352 48.7388 148.06 49.0989C147.273 49.2901 146.586 49.7515 146.114 50.3813C141.389 52.2487 131.298 51.2475 131.354 47.6138C131.376 46.4438 131.624 45.3413 132.062 44.3289C133.21 41.7076 135.617 39.7839 138.509 39.2887L146.496 37.6352L147.317 37.4663C147.543 37.4212 147.756 37.4888 147.925 37.6237C147.959 37.6462 147.992 37.6577 148.015 37.68L150.344 40.1102C150.378 40.1439 150.389 40.189 150.411 40.2225C150.524 40.4027 150.58 40.6051 150.524 40.8075Z" fill="#F77F00"/>
<path d="M146.118 50.3801C145.936 50.6218 145.78 50.8841 145.666 51.1689C145.418 51.7863 145.861 52.4622 146.526 52.4622H151.258C151.923 52.4622 152.365 51.7863 152.118 51.1689C151.605 49.8904 150.354 48.9875 148.892 48.9875C148.604 48.9875 148.328 49.0318 148.061 49.0977C147.272 49.2919 146.591 49.7503 146.118 50.3801Z" fill="#C50010"/>
<path d="M157.171 42.386H155.889C157.171 43.7909 157.905 45.3899 157.905 47.0898C157.905 47.7937 157.778 48.4804 157.541 49.1434C157.44 49.4274 157.314 49.7056 157.17 49.9795C157.144 50.0297 157.123 50.0805 157.095 50.1305L156.344 51.7939H157.171C159.769 51.7939 161.875 49.6878 161.875 47.0898C161.875 44.4921 159.769 42.386 157.171 42.386Z" fill="#4E5968"/>
<path d="M123.516 49.2717C123.509 49.2555 123.5 49.2395 123.494 49.2231C123.37 48.8907 123.274 48.5523 123.208 48.2082L123.197 48.1832H123.202L123.203 48.187C123.135 47.8264 123.095 47.4608 123.095 47.0898C123.095 45.3899 123.829 43.7909 125.111 42.386H123.829C121.231 42.386 119.125 44.4921 119.125 47.0898C119.125 49.6878 121.231 51.7939 123.829 51.7939H124.742L124.295 50.7482C123.974 50.272 123.709 49.78 123.516 49.2717Z" fill="#4E5968"/>
<path d="M157.141 50.0286C157.062 50.1766 156.973 50.3219 156.883 50.4669C156.821 50.5655 156.763 50.6647 156.696 50.7619C156.554 50.9687 156.403 51.1731 156.238 51.3733C156.216 51.4002 156.194 51.4271 156.171 51.4538C155.983 51.6776 155.784 51.8976 155.57 52.1118C155.396 52.2871 155.192 52.4502 155 52.6183C154.851 52.748 154.717 52.8836 154.559 53.0094C154.47 53.08 154.382 53.1512 154.29 53.2204C153.882 53.5283 153.45 53.8252 152.984 54.104C152.969 54.1127 152.957 54.1226 152.942 54.1314C152.478 54.4066 151.978 54.6607 151.462 54.904C151.292 54.9845 151.115 55.06 150.939 55.1367C148.03 56.4075 144.425 57.1713 140.5 57.1713C136.599 57.1713 133.015 56.4155 130.115 55.1586C129.894 55.0628 129.674 54.9656 129.46 54.8637C129.096 54.6898 128.748 54.5052 128.409 54.3146C128.256 54.2286 128.096 54.1471 127.948 54.0581C127.464 53.7653 127.004 53.4593 126.583 53.1347L126.554 53.1094C126.353 52.9529 126.185 52.782 126 52.618C125.811 52.4494 125.605 52.2876 125.431 52.113C124.97 51.6504 124.589 51.1593 124.255 50.6548L124.295 50.7482L124.742 51.7938L126.27 55.3644H126.29C127.412 59.7029 132.698 63.0331 140.5 63.0331C148.302 63.0331 153.588 59.7029 154.71 55.3644H154.729L156.344 51.7938L157.095 50.1305L157.141 50.0286Z" fill="#4E5968"/>
</g>
<g clip-path="url(#clip6_291_536)">
<path d="M114 73.0756C121.152 73.0756 126.95 69.7173 126.95 65.5746C126.95 61.4318 121.152 58.0735 114 58.0735C106.848 58.0735 101.05 61.4318 101.05 65.5746C101.05 69.7173 106.848 73.0756 114 73.0756Z" fill="#BABABA"/>
<path d="M114 70.7383C124.217 70.7383 132.5 65.9407 132.5 60.0225C132.5 54.1043 124.217 49.3066 114 49.3066C103.783 49.3066 95.5 54.1043 95.5 60.0225C95.5 65.9407 103.783 70.7383 114 70.7383Z" fill="#D9D9D9"/>
<path d="M114 68.8914C121.709 68.8914 127.959 65.2715 127.959 60.8061C127.959 56.3406 121.709 52.7207 114 52.7207C106.291 52.7207 100.041 56.3406 100.041 60.8061C100.041 65.2715 106.291 68.8914 114 68.8914Z" fill="#995C00"/>
<path d="M111.217 66.4157C111.508 66.4157 111.729 66.1221 111.618 65.8526C111.396 65.3137 110.866 64.9343 110.247 64.9343C109.629 64.9343 109.098 65.3137 108.877 65.8526C108.766 66.1221 108.986 66.4157 109.278 66.4157H111.217Z" fill="#901A18"/>
<path d="M125.227 57.5671C125.732 57.5671 126.068 57.054 125.88 56.5854C125.491 55.6148 124.541 54.9294 123.431 54.9294C122.322 54.9294 121.372 55.6148 120.982 56.5854C120.794 57.054 121.13 57.5671 121.635 57.5671H125.227Z" fill="#F77F00"/>
<path d="M118.569 66.1992C119.074 66.1992 119.41 65.686 119.222 65.2175C118.833 64.2469 117.883 63.5615 116.773 63.5615C115.664 63.5615 114.714 64.2469 114.325 65.2175C114.137 65.686 114.473 66.1992 114.977 66.1992H118.569Z" fill="#F77F00"/>
<path d="M125.801 60.5819C126.092 60.5819 126.313 60.2884 126.202 60.0189C125.98 59.48 125.45 59.1006 124.831 59.1006C124.212 59.1006 123.682 59.48 123.461 60.0189C123.35 60.2884 123.57 60.5819 123.862 60.5819H125.801Z" fill="#901A18"/>
<path d="M121.354 62.4755C121.719 62.4755 121.994 62.1085 121.856 61.7717C121.579 61.098 120.916 60.6238 120.142 60.6238C119.369 60.6238 118.706 61.098 118.429 61.7717C118.291 62.1085 118.566 62.4755 118.93 62.4755H121.354Z" fill="#FFCD00"/>
<path d="M117.949 56.8716C117.997 56.5987 117.958 56.3092 117.809 56.0504C117.654 55.7821 117.411 55.5994 117.139 55.5078C117.139 55.2307 117.051 54.9522 116.858 54.7232C116.659 54.486 116.389 54.3482 116.105 54.3052C116.056 54.0325 115.921 53.7735 115.692 53.5814C115.455 53.3824 115.164 53.2936 114.877 53.3007C114.782 53.0403 114.604 52.8088 114.345 52.6594C114.077 52.5046 113.775 52.4678 113.493 52.5246C113.355 52.2846 113.139 52.0876 112.858 51.9855C112.567 51.8795 112.264 51.8955 111.996 52.0004C111.818 51.7883 111.571 51.6318 111.277 51.5798C110.972 51.526 110.676 51.5946 110.431 51.7441C110.218 51.5661 109.948 51.4548 109.649 51.4548C109.34 51.4548 109.06 51.5738 108.844 51.7637C108.604 51.6254 108.319 51.5625 108.025 51.6145C107.72 51.6682 107.465 51.834 107.286 52.0584C107.025 51.9639 106.733 51.9515 106.453 52.0538C106.162 52.1597 105.94 52.3672 105.802 52.6194C105.529 52.5714 105.239 52.6101 104.981 52.7595C104.712 52.9142 104.53 53.1571 104.438 53.4294C104.161 53.4294 103.883 53.5179 103.654 53.7098C103.416 53.909 103.278 54.1799 103.235 54.464C102.963 54.5123 102.704 54.6476 102.512 54.8764C102.313 55.1138 102.224 55.4046 102.231 55.6916C101.971 55.7865 101.739 55.9648 101.59 56.2234C101.435 56.4917 101.398 56.7935 101.455 57.075C101.215 57.2138 100.916 57.3953 100.916 57.7103C100.916 57.718 100.921 57.729 100.922 57.738H100.91C100.91 60.5539 104.851 62.8365 109.713 62.8365C114.574 62.8365 118.515 60.5539 118.515 57.738C118.515 57.3156 118.201 57.0091 117.949 56.8716Z" fill="#EBEBEB"/>
</g>
<defs>
<clipPath id="clip0_291_536">
<rect width="80" height="80" rx="8" fill="white"/>
</clipPath>
<clipPath id="clip1_291_536">
<rect width="40" height="40" fill="white" transform="translate(7 6)"/>
</clipPath>
<clipPath id="clip2_291_536">
<rect width="40" height="40" fill="white" transform="translate(1 52)"/>
</clipPath>
<clipPath id="clip3_291_536">
<rect width="40" height="40" fill="white" transform="translate(119 2)"/>
</clipPath>
<clipPath id="clip4_291_536">
<rect width="35" height="35" fill="white" transform="translate(94 18)"/>
</clipPath>
<clipPath id="clip5_291_536">
<rect width="45" height="45" fill="white" transform="translate(118 24)"/>
</clipPath>
<clipPath id="clip6_291_536">
<rect width="40" height="40" fill="white" transform="translate(94 36)"/>
</clipPath>
</defs>
</svg>
