<svg width="154" height="159" viewBox="0 0 154 159" fill="none" xmlns="http://www.w3.org/2000/svg">
<path d="M131.674 53.9121L128.014 147.99C130.833 147.819 133.397 147.534 135.604 147.192L142.967 53.9121H131.688H131.674Z" fill="#DE8972"/>
<path d="M89.7619 53.9121L97.0676 143.961C97.0676 146.324 107.506 148.232 120.38 148.232C123.044 148.232 125.607 148.146 127.985 147.99L131.645 53.9121H89.7334H89.7619Z" fill="#CC5A44"/>
<path d="M142.953 53.9121L135.59 147.192C140.56 146.41 143.707 145.257 143.707 143.961L151.013 53.9121H142.938H142.953Z" fill="#CC5A44"/>
<path fill-rule="evenodd" clip-rule="evenodd" d="M150.828 48.7449C150.7 48.6737 151.07 51.7342 151.07 51.7342L153.875 55.7484C143.878 66.0116 119.981 67.5632 101.938 63.791C96.0705 62.5668 90.0322 61.2714 86.771 57.5989L89.2774 53.5705C89.7474 52.631 89.4768 51.5491 89.5765 49.5563C101.639 40.4745 137.897 42.8802 150.814 48.7306L150.828 48.7449Z" fill="white"/>
<path d="M136.672 52.8588C124.482 55.1221 101.61 53.4567 92.0829 50.4104C91.2285 50.14 90.4025 49.8553 89.5765 49.5706C89.4911 51.2503 89.6619 52.2894 89.4341 53.1435C102.294 56.3748 127.415 58.4104 136.672 52.8588Z" fill="#E8E8E8"/>
<path fill-rule="evenodd" clip-rule="evenodd" d="M145.402 48.7734C145.402 49.7698 134.18 50.5812 120.323 50.5812C106.467 50.5812 95.2446 49.7698 95.2446 48.7734C95.2446 47.7769 106.467 46.9656 120.323 46.9656C134.18 46.9656 145.402 47.7769 145.402 48.7734Z" fill="#E8E8E8"/>
<path d="M148.777 4.75952C149.574 4.90187 150.258 4.7453 150.329 4.38943C150.386 4.04779 149.802 3.64921 149.019 3.50686C148.222 3.36451 147.538 3.52111 147.467 3.87698C147.41 4.21861 147.994 4.61718 148.791 4.75952" fill="white"/>
<path d="M141.414 36.7023L140.303 42.7663C141.243 42.6097 142.525 42.1115 143.593 40.987L144.86 34.1116C143.878 35.6489 142.525 36.4034 141.428 36.7165" fill="#AA3127"/>
<path d="M143.251 26.7095L142.34 31.6348C143.379 31.3928 144.69 30.7522 145.715 29.4141L146.669 24.2042C145.687 25.6989 144.334 26.4106 143.251 26.7095Z" fill="#AA3127"/>
<path d="M144.191 21.6562C145.217 21.4284 146.527 20.8164 147.552 19.4925L148.62 13.699C147.624 15.1367 146.285 15.8342 145.217 16.1047L144.191 21.6562Z" fill="#AA3127"/>
<path d="M139.364 47.8338L138.979 49.9548C139.321 50.8374 141.129 50.4815 141.884 50.2395L142.71 45.7841C141.671 47.051 140.375 47.6203 139.378 47.8338" fill="#AA3127"/>
<path d="M149.475 8.9588L150.315 4.40369C150.244 4.74532 149.56 4.91613 148.777 4.77378C147.979 4.63144 147.395 4.23287 147.452 3.89124L146.128 11.0371C147.125 10.8236 148.435 10.2542 149.475 8.97305" fill="#AA3127"/>
<path d="M146.142 11.0228L145.217 16.0904C146.285 15.8199 147.624 15.1224 148.62 13.6847L149.489 8.95874C148.45 10.2399 147.154 10.8093 146.142 11.0228Z" fill="white"/>
<path d="M144.191 21.6562L143.266 26.7237C144.348 26.4248 145.701 25.7131 146.684 24.2184L147.552 19.5067C146.527 20.8305 145.217 21.4426 144.191 21.6704" fill="white"/>
<path d="M142.34 31.6347L141.4 36.7023C142.511 36.4034 143.864 35.6489 144.846 34.1116L145.701 29.4283C144.69 30.7806 143.365 31.407 142.326 31.649" fill="white"/>
<path d="M140.304 42.7663L139.364 47.8481C140.361 47.6346 141.671 47.0652 142.696 45.7983L143.579 40.9869C142.511 42.1257 141.229 42.6097 140.289 42.7663" fill="white"/>
<path fill-rule="evenodd" clip-rule="evenodd" d="M16.1776 128.759C16.3343 128.702 16.3913 128.46 16.733 128.488C21.632 128.872 23.341 130.239 27.2288 131.25C43.535 135.477 65.8082 137.883 86.344 134.837C89.477 134.367 93.6212 133.84 97.1245 132.63C99.9585 131.634 107.848 126.652 109.002 132.63C109.714 136.317 105.285 138.709 101.539 140.36C84.1366 148.032 54.2586 148.531 33.5661 143.677C29.6213 142.751 26.1749 141.47 22.2301 139.534C19.0828 137.983 14.1127 136.061 13.9418 132.36C13.8563 130.31 14.6538 129.285 16.1492 128.773L16.1776 128.759Z" fill="#AA7F5C"/>
<path fill-rule="evenodd" clip-rule="evenodd" d="M87.996 129C90.3458 131.15 93.7209 130.367 96.2843 129.826C103.761 128.26 111.109 122.381 118.671 121.541C122.203 121.143 128.512 121.84 128.612 125.413C128.683 128.132 124.781 130.239 120.879 130.666C117.575 131.022 114.1 130.054 111.765 131.221C109.173 132.502 109.415 135.733 107.079 137.57C104.53 139.563 99.4886 139.733 96.2986 138.951C91.1718 137.684 87.0418 131.577 82.214 137.015C81.1887 138.168 80.9466 139.862 79.1807 140.331C75.0507 141.413 70.5648 137.228 67.3035 137.84C63.4442 138.566 64.3983 146.509 59.2857 146.41C57.235 146.367 55.8679 144.16 55.1416 142.538C54.2871 140.602 54.3725 137.954 52.3788 137.57C47.5225 136.644 45.6142 147.463 39.3908 145.584C35.5314 144.417 38.4224 136.573 38.5648 134.822C35.3036 133.94 31.487 137.328 28.8951 135.648C27.4282 134.709 27.9409 132.616 26.6877 130.951C22.5435 129.669 17.5733 130.709 12.8737 131.506C9.56977 132.061 1.1105 134.253 0.170585 130.951C-1.16809 126.253 7.989 124.374 11.7772 124.331C13.6 124.303 15.4371 124.872 17.5733 124.602C17.673 123.605 15.3374 120.872 17.0179 119.079C23.4692 115.691 26.5737 125.968 31.1024 125.983C35.2466 125.997 34.3352 122.04 37.4682 121.285C40.9289 120.445 43.6347 122.993 45.2012 124.331C47.3659 126.153 48.5906 128.417 51.2822 128.744C55.64 129.285 59.5278 124.858 64.2702 125.427C66.2212 125.655 67.0045 127.42 68.6849 127.634C71.462 127.99 76.9875 124.915 79.1807 123.762C83.3818 121.57 85.3471 119.976 88.8504 119.335C96.1277 118.025 94.376 122.481 91.6132 125.143C89.9328 126.751 88.2381 127.577 88.0245 129.015L87.996 129Z" fill="#4FC67F"/>
<path fill-rule="evenodd" clip-rule="evenodd" d="M107.606 137.84C107.692 141.612 106.794 144.388 105.954 147.221C90.4455 161.185 47.5084 160.73 25.2779 151.648C22.1306 150.367 17.6161 148.73 16.4341 146.68C14.597 143.506 15.6508 137.413 16.7047 134.538C16.7759 134.566 16.9183 134.495 16.9753 134.538C22.5293 138.153 28.5249 141.484 36.0442 143.377C56.6085 148.559 85.3472 146.381 102.907 139.506C104.516 138.879 105.84 137.612 107.606 137.854V137.84Z" fill="#EAC868"/>
<path fill-rule="evenodd" clip-rule="evenodd" d="M18.9549 115.449C19.1116 115.392 19.1685 115.15 19.5103 115.178C24.4093 115.563 26.1182 116.929 30.0061 117.94C46.3122 122.182 68.5854 124.588 89.1212 121.527C92.2543 121.057 96.3985 120.545 99.9018 119.321C102.736 118.324 110.625 113.342 111.779 119.321C112.491 123.008 108.062 125.399 104.317 127.05C86.9138 134.723 57.0358 135.221 36.3434 130.367C32.3986 129.442 28.938 128.146 25.0216 126.225C21.8743 124.687 16.8899 122.751 16.7333 119.05C16.6478 117.001 17.4453 115.976 18.9407 115.463L18.9549 115.449Z" fill="#AA7F5C"/>
<path fill-rule="evenodd" clip-rule="evenodd" d="M59.7701 124.602L58.0042 123.976C55.6972 120.232 49.4168 116.972 46.1556 115.406C39.0634 111.976 30.6184 109.542 22.8712 110.196C22.0595 110.268 21.1623 110.381 20.322 110.652L18.7413 110.097L17.7444 113.271H17.7586C17.7444 113.356 17.7017 113.413 17.6874 113.485C16.9042 117.598 21.7319 120.588 24.3238 122.324C27.4426 124.417 31.3732 126.353 34.549 127.563C38.0666 128.915 41.755 129.968 46.9815 130.609C51.8093 131.178 57.6767 130.993 58.7163 127.862L59.7559 124.616L59.7701 124.602Z" fill="#AA3127"/>
<path fill-rule="evenodd" clip-rule="evenodd" d="M23.8395 107.193C31.5867 106.538 40.0317 108.986 47.1238 112.403C51.3107 114.424 60.5105 119.221 59.827 124.275C59.3285 127.961 53.0481 128.203 47.9498 127.591C42.7375 126.965 39.0348 125.912 35.5173 124.559C32.3415 123.335 28.4109 121.399 25.2921 119.321C22.7002 117.584 17.8724 114.581 18.6557 110.481C19.1826 107.748 21.803 107.378 23.8252 107.207L23.8395 107.193Z" fill="#CC5A44"/>
<path fill-rule="evenodd" clip-rule="evenodd" d="M39.106 110.751C39.3054 112.574 38.9351 114.282 37.7246 114.623C36.8986 114.851 33.2529 112.616 32.7544 110.211C32.2275 107.663 38.9778 109.556 39.106 110.766V110.751Z" fill="#EAC868"/>
<path fill-rule="evenodd" clip-rule="evenodd" d="M33.965 113.969C34.677 115.662 26.9725 115.022 24.1955 114.609C22.0736 114.296 21.7887 110.524 23.0847 110.196C25.7051 109.513 33.1675 112.09 33.965 113.969Z" fill="#EAC868"/>
<path fill-rule="evenodd" clip-rule="evenodd" d="M46.0132 113.513C46.2411 115.506 40.388 116.232 39.6617 115.449C38.6505 114.353 40.744 111.719 42.4387 111.534C43.6634 111.406 45.8708 112.246 46.0132 113.513Z" fill="#EAC868"/>
<path fill-rule="evenodd" clip-rule="evenodd" d="M36.8988 116.83C37.7818 117.954 35.6029 119.961 32.7262 121.015C31.2593 121.556 27.7845 119.15 27.2291 117.94C27.0439 116.659 29.0804 116.517 30.5473 116.275C32.8543 115.904 35.7026 115.307 36.8988 116.83Z" fill="#EAC868"/>
<path fill-rule="evenodd" clip-rule="evenodd" d="M56.509 121.527C56.509 124.559 44.6318 117.342 44.6318 116.275C44.9024 115.435 48.8757 116.104 53.1053 117.342C54.9567 117.883 56.1672 119.62 56.5232 121.527H56.509Z" fill="#EAC868"/>
<path fill-rule="evenodd" clip-rule="evenodd" d="M44.076 123.734C44.7311 126.509 35.4458 124.73 36.3858 121.897C37.0551 119.89 38.821 116.901 40.3306 116.901C42.068 116.901 43.25 120.246 44.076 123.734Z" fill="#EAC868"/>
<path fill-rule="evenodd" clip-rule="evenodd" d="M53.205 125.669C47.181 127.876 44.6603 122.652 43.2646 118.495C45.116 117.029 47.9358 119.449 49.8868 120.986C51.5957 122.31 53.6465 123.776 53.205 125.684V125.669Z" fill="#EAC868"/>
<path fill-rule="evenodd" clip-rule="evenodd" d="M88.3664 121.47L86.5436 121.072C83.7808 117.641 77.1586 115.179 73.7265 114.026C66.2641 111.506 57.5912 110.125 49.9722 111.734C49.1747 111.905 48.2917 112.118 47.5085 112.502L45.885 112.147L45.2726 115.406H45.2869C45.2869 115.492 45.2584 115.549 45.2441 115.62C44.9735 119.791 50.1289 122.168 52.9201 123.577C56.2668 125.271 60.411 126.694 63.715 127.52C67.3607 128.431 71.1631 129.015 76.4323 129C81.2886 128.986 87.0847 128.075 87.7398 124.83L88.3664 121.485V121.47Z" fill="#AA3127"/>
<path fill-rule="evenodd" clip-rule="evenodd" d="M50.5562 108.631C58.1752 107.022 66.8481 108.417 74.3105 110.922C78.711 112.403 88.4377 116.033 88.395 121.143C88.3523 124.858 82.1574 125.883 77.0163 125.911C71.7613 125.926 67.9589 125.342 64.2989 124.431C61.0092 123.605 56.8508 122.182 53.5041 120.488C50.7128 119.079 45.5575 116.716 45.8281 112.545C46.0133 109.769 48.5767 109.072 50.5562 108.659V108.631Z" fill="#CC5A44"/>
<path fill-rule="evenodd" clip-rule="evenodd" d="M66.1503 110.267C66.5776 112.061 66.4209 113.783 65.2531 114.267C64.4556 114.595 60.5678 112.83 59.7703 110.495C58.93 108.033 65.8655 109.086 66.1361 110.267H66.1503Z" fill="#EAC868"/>
<path fill-rule="evenodd" clip-rule="evenodd" d="M61.4505 114.097C62.3762 115.691 54.629 116.004 51.8377 115.947C49.7015 115.904 48.9467 112.189 50.2 111.705C52.7207 110.709 60.4394 112.332 61.4648 114.111L61.4505 114.097Z" fill="#EAC868"/>
<path fill-rule="evenodd" clip-rule="evenodd" d="M73.3562 112.161C73.8262 114.111 68.1012 115.549 67.2895 114.865C66.1644 113.897 67.9018 111.036 69.5538 110.652C70.7501 110.381 73.0571 110.937 73.3562 112.175V112.161Z" fill="#EAC868"/>
<path fill-rule="evenodd" clip-rule="evenodd" d="M64.7115 116.573C65.7369 117.584 63.8143 119.833 61.08 121.242C59.6844 121.954 55.9532 120.004 55.2411 118.865C54.8993 117.627 56.9074 117.228 58.3315 116.815C60.5673 116.161 63.3301 115.221 64.7115 116.573Z" fill="#EAC868"/>
<path fill-rule="evenodd" clip-rule="evenodd" d="M84.7631 118.808C85.1334 121.826 72.4445 116.118 72.3306 115.065C72.4872 114.196 76.5175 114.367 80.861 115.079C82.7694 115.392 84.1935 116.958 84.7631 118.808Z" fill="#EAC868"/>
<path fill-rule="evenodd" clip-rule="evenodd" d="M72.7011 122.538C73.698 125.214 64.2561 124.588 64.84 121.67C65.253 119.605 66.6344 116.403 68.1297 116.218C69.8529 116.004 71.4337 119.178 72.6869 122.538H72.7011Z" fill="#EAC868"/>
<path fill-rule="evenodd" clip-rule="evenodd" d="M81.9865 123.335C76.29 126.267 73.1427 121.399 71.2344 117.442C72.9006 115.748 75.9767 117.812 78.1271 119.093C79.9927 120.203 82.2001 121.399 82.0007 123.335H81.9865Z" fill="#EAC868"/>
<path fill-rule="evenodd" clip-rule="evenodd" d="M110.582 118.04L108.759 117.641C106.011 114.211 99.3745 111.748 95.9423 110.581C88.4799 108.061 79.8071 106.68 72.188 108.289C71.3905 108.46 70.5076 108.673 69.7243 109.043L68.0866 108.687L67.4884 111.961H67.5027C67.5027 112.033 67.4742 112.104 67.46 112.175C67.1894 116.346 72.3447 118.723 75.1359 120.132C78.4826 121.826 82.6268 123.25 85.9308 124.075C89.5765 124.986 93.3789 125.584 98.6481 125.556C103.504 125.541 109.301 124.63 109.956 121.385L110.568 118.04H110.582Z" fill="#AA3127"/>
<path fill-rule="evenodd" clip-rule="evenodd" d="M72.7721 105.2C80.3769 103.591 89.064 104.972 96.5264 107.492C100.927 108.986 110.654 112.602 110.597 117.712C110.554 121.428 104.359 122.438 99.2179 122.467C93.9629 122.495 90.1606 121.897 86.5006 120.986C83.1966 120.161 79.0667 118.737 75.7057 117.043C72.9287 115.634 67.7592 113.271 68.0297 109.086C68.2149 106.31 70.7783 105.613 72.7578 105.2H72.7721Z" fill="#CC5A44"/>
<path fill-rule="evenodd" clip-rule="evenodd" d="M88.3661 106.837C88.7791 108.631 88.6367 110.353 87.4689 110.837C86.6714 111.179 82.7836 109.399 81.9861 107.065C81.1459 104.602 88.0813 105.655 88.3661 106.823V106.837Z" fill="#EAC868"/>
<path fill-rule="evenodd" clip-rule="evenodd" d="M83.6663 110.68C84.592 112.275 76.859 112.588 74.0535 112.531C71.9174 112.488 71.1626 108.773 72.4158 108.289C74.9365 107.292 82.6552 108.929 83.6663 110.695V110.68Z" fill="#EAC868"/>
<path fill-rule="evenodd" clip-rule="evenodd" d="M95.5577 108.73C96.0277 110.68 90.3027 112.118 89.491 111.435C88.3659 110.467 90.1033 107.606 91.7696 107.207C92.9658 106.937 95.2587 107.492 95.5577 108.73Z" fill="#EAC868"/>
<path fill-rule="evenodd" clip-rule="evenodd" d="M86.9273 113.143C87.9527 114.154 86.0302 116.403 83.2958 117.812C81.9002 118.524 78.169 116.574 77.457 115.435C77.1152 114.182 79.1232 113.798 80.5473 113.385C82.7832 112.73 85.546 111.791 86.9273 113.157V113.143Z" fill="#EAC868"/>
<path fill-rule="evenodd" clip-rule="evenodd" d="M106.979 115.392C107.349 118.41 94.6604 112.687 94.5322 111.648C94.6889 110.78 98.7191 110.965 103.063 111.663C104.971 111.976 106.395 113.542 106.979 115.392Z" fill="#EAC868"/>
<path fill-rule="evenodd" clip-rule="evenodd" d="M94.9028 119.107C95.8997 121.783 86.4578 121.157 87.0417 118.239C87.4547 116.175 88.836 112.972 90.3314 112.787C92.0546 112.574 93.6353 115.748 94.8885 119.107H94.9028Z" fill="#EAC868"/>
<path fill-rule="evenodd" clip-rule="evenodd" d="M104.202 119.904C98.5058 122.837 95.3443 117.954 93.4502 114.011C95.1164 112.317 98.1925 114.381 100.343 115.663C102.209 116.773 104.416 117.969 104.217 119.904H104.202Z" fill="#EAC868"/>
<path fill-rule="evenodd" clip-rule="evenodd" d="M16.79 100.688C41.4273 109.599 83.7663 110.495 109.073 101.513C109.301 105.727 110.924 114.51 107.136 115.321C104.217 115.947 104.117 112.958 101.895 112.004C97.6799 113.784 101.069 121.584 100.243 126.638C100.015 128.047 98.8477 130.993 96.9252 131.065C93.4646 131.193 93.5927 126.467 93.8918 123.05C94.2193 119.278 95.1877 115.364 93.3364 113.385C88.7507 114.737 89.2207 122.381 81.7298 119.734C80.6617 119.364 79.437 117.812 78.6964 116.702C77.3863 114.766 77.2154 113.655 75.9337 113.385C73.9114 112.972 71.1913 115.321 69.5821 116.417C64.9252 119.62 60.2968 121.228 54.6573 117.798C51.7094 116.004 50.4135 113.257 48.3058 113.1C46.4544 112.958 43.6489 114.638 42.7802 115.862C40.2452 119.392 41.8545 126.979 38.0806 127.734C34.9333 128.36 33.2671 125.257 32.555 122.495C31.7005 119.221 32.498 115.05 30.3476 113.926C27.7985 113.257 25.6623 114.296 23.4406 113.926C17.7869 113.001 15.608 107.534 16.8043 100.673L16.79 100.688Z" fill="#FFFC94"/>
<path fill-rule="evenodd" clip-rule="evenodd" d="M112.064 99.9331C112.291 102.937 106.111 103.947 102.394 104.901C91.3141 107.748 77.1726 108.488 63.1593 108.773C49.8722 109.029 35.1611 108.289 23.0988 105.456C19.5243 104.616 14.3832 102.908 13.6996 100.488C13.3151 99.1502 14.3262 96.5452 14.8104 94.9651C16.3342 89.8976 18.8265 84.0613 21.4468 80.6023C29.721 69.6557 45.6996 66.4814 62.8887 65.6843C72.8718 65.2145 84.108 66.1825 91.6274 69.5419C103.818 75.008 110.91 84.7304 112.078 99.9188L112.064 99.9331Z" fill="#EAC868"/>
<path fill-rule="evenodd" clip-rule="evenodd" d="M69.2401 67.0792C68.9553 69.0009 68.3002 70.5525 66.4773 70.951C65.3665 69.5703 66.9188 65.0294 69.2401 67.0792Z" fill="#AA7F5C"/>
<path fill-rule="evenodd" clip-rule="evenodd" d="M61.5073 69.2856C61.0516 71.25 58.7303 72.7162 56.5371 72.0471C56.6653 69.7269 59.8695 66.6806 61.5073 69.2856Z" fill="#AA7F5C"/>
<path fill-rule="evenodd" clip-rule="evenodd" d="M73.1995 79.862C75.1221 79.2215 77.5858 80.403 78.1697 82.6378C76.1332 83.7481 71.8466 82.6378 73.1995 79.862Z" fill="#AA7F5C"/>
<path fill-rule="evenodd" clip-rule="evenodd" d="M86.3724 68.4458C86.2727 70.823 84.5638 71.6059 82.4988 72.0329C82.214 69.4137 83.7948 67.307 86.3724 68.4458Z" fill="#AA7F5C"/>
<path fill-rule="evenodd" clip-rule="evenodd" d="M76.9733 71.7624C76.0333 73.1574 73.6408 74.4527 71.7183 73.9687C72.1455 72.2036 75.7343 69.2144 76.9733 71.7624Z" fill="#AA7F5C"/>
<path fill-rule="evenodd" clip-rule="evenodd" d="M36.3004 75.2215C35.3462 76.6165 32.968 77.9261 31.0454 77.4279C31.4726 75.6628 35.0614 72.6735 36.3004 75.2215Z" fill="#AA7F5C"/>
<path fill-rule="evenodd" clip-rule="evenodd" d="M50.7268 72.8728C50.2853 75.25 45.3721 74.9795 45.2012 72.5881C45.6142 70.5383 50.385 71.4208 50.7268 72.8728Z" fill="#AA7F5C"/>
<path fill-rule="evenodd" clip-rule="evenodd" d="M89.9614 77.015C90.2035 78.0826 89.292 77.9973 89.1354 78.6805C87.1131 78.7659 86.0023 77.9403 84.9912 77.015V76.1894C86.5008 75.5916 89.292 75.8905 89.9614 77.015Z" fill="#AA7F5C"/>
<path fill-rule="evenodd" clip-rule="evenodd" d="M46.0127 78.4101C46.2548 79.4777 45.3433 79.3923 45.1867 80.0755C43.1644 80.1609 42.0536 79.3353 41.0425 78.4101V77.5845C42.552 76.9866 45.3433 77.2855 46.0127 78.4101Z" fill="#AA7F5C"/>
<path fill-rule="evenodd" clip-rule="evenodd" d="M63.9854 78.3958C63.1452 79.8905 62.5898 82.7944 60.952 82.8086C57.3063 82.8513 60.8239 76.8869 63.9854 78.3958Z" fill="#AA7F5C"/>
<g filter="url(#filter0_d_645_2047)">
<rect x="8" y="4" width="82" height="32" rx="8" fill="white"/>
<path d="M85.9023 39.8785C87.0897 41.3398 89.4545 40.5001 89.4545 38.6172L89.4545 26C89.4545 24.8954 88.5591 24 87.4545 24L77.2022 24C75.5181 24 74.5879 25.9542 75.65 27.2612L85.9023 39.8785Z" fill="white"/>
<path d="M26.25 14.666V21.6484H24.9043V18.792H23.8125V21.5977H22.4922V14.8311H23.8125V17.6367H24.9043V14.666H26.25ZM16.373 16.9512V15.834H18.5439V14.7168H19.9404V15.834H22.0859V16.9512H16.373ZM16.7793 19.376C16.7666 18.1763 17.8076 17.3892 19.2422 17.3828C20.7021 17.3892 21.7305 18.1763 21.7432 19.376C21.7305 20.5566 20.7021 21.3628 19.2422 21.3691C17.8076 21.3628 16.7666 20.5566 16.7793 19.376ZM18.0361 19.376C18.0361 19.979 18.5249 20.3408 19.2422 20.3408C19.9658 20.3408 20.4609 19.979 20.4609 19.376C20.4609 18.7603 19.9658 18.4111 19.2422 18.4111C18.5249 18.4111 18.0361 18.7603 18.0361 19.376ZM18.5059 25.9902V22.1816H26.25V25.9902H18.5059ZM19.9023 24.8477H24.8662V23.2988H19.9023V24.8477ZM37.2949 14.6533V26.1426H35.8984V19.9219H33.5625V23.3623H28.1035V15.542H29.5254V18.3984H32.1787V15.542H33.5625V18.7666H35.8984V14.6533H37.2949ZM29.5254 22.2324H32.1787V19.5029H29.5254V22.2324ZM48.5176 14.6533V26.1299H47.1084V20.29H44.6836V19.1348H47.1084V14.6533H48.5176ZM38.8311 22.9561C41.8018 21.4961 43.0776 19.5601 43.3125 16.9893H39.3643V15.8721H44.7344C44.7217 19.2617 43.522 22.1118 39.5674 24.0605L38.8311 22.9561ZM54.624 21.9658C54.0781 21.9658 53.6274 21.5215 53.6338 20.9756C53.6274 20.4424 54.0781 20.0044 54.624 19.998C55.1509 20.0044 55.6016 20.4424 55.6016 20.9756C55.6016 21.5215 55.1509 21.9658 54.624 21.9658ZM69.084 14.9199V15.6562C69.0776 16.4751 69.0776 17.5415 68.8301 18.9443L67.4209 18.8555C67.4971 18.4302 67.5542 18.043 67.5859 17.6875L60.9209 17.9795L60.7686 16.875L67.6621 16.71C67.6685 16.4624 67.6748 16.2339 67.6748 16.0244H61.0732V14.9199H69.084ZM59.8799 20.582V19.4648H63.8916V18.2842H65.3008V19.4648H70.29V20.582H59.8799ZM61.0859 22.3594V21.293H69.0078V24.124H62.4824V24.873H69.3252V25.9521H61.0986V23.1211H67.624V22.3594H61.0859ZM80.0781 14.6533V19.0586H81.8428V20.2393H80.0781V26.1426H78.6816V14.6533H80.0781ZM71.5469 16.7988V15.6562H76.8281V19.9854H72.9688V22.2705C74.7905 22.2578 76.2061 22.1816 77.8057 21.9023L77.9326 23.0449C76.1616 23.3623 74.6001 23.4385 72.5117 23.4385H71.5723V18.8555H75.4189V16.7988H71.5469Z" fill="#008B47"/>
</g>
<defs>
<filter id="filter0_d_645_2047" x="2" y="0" width="94" height="48.6212" filterUnits="userSpaceOnUse" color-interpolation-filters="sRGB">
<feFlood flood-opacity="0" result="BackgroundImageFix"/>
<feColorMatrix in="SourceAlpha" type="matrix" values="0 0 0 0 0 0 0 0 0 0 0 0 0 0 0 0 0 0 127 0" result="hardAlpha"/>
<feOffset dy="2"/>
<feGaussianBlur stdDeviation="3"/>
<feComposite in2="hardAlpha" operator="out"/>
<feColorMatrix type="matrix" values="0 0 0 0 0 0 0 0 0 0.545098 0 0 0 0 0.278431 0 0 0 0.12 0"/>
<feBlend mode="normal" in2="BackgroundImageFix" result="effect1_dropShadow_645_2047"/>
<feBlend mode="normal" in="SourceGraphic" in2="effect1_dropShadow_645_2047" result="shape"/>
</filter>
</defs>
</svg>
