<svg width="384" height="384" viewBox="0 0 384 384" fill="none" xmlns="http://www.w3.org/2000/svg">
<rect width="384" height="384" fill="#F5F5F5"/>
<g opacity="0.2">
<path d="M110 174.446H116.361L128.687 195.103L141.014 174.446H147.375V211.366H139.391V191.117L131.1 205.296H126.275L117.984 191.117V211.366H110V174.446Z" fill="#272520"/>
<path d="M165.54 212C162.966 212 160.656 211.396 158.609 210.188C156.591 209.01 155.012 207.364 153.871 205.25C152.731 203.136 152.16 200.75 152.16 198.093C152.16 195.435 152.731 193.049 153.871 190.935C155.012 188.821 156.591 187.176 158.609 185.998C160.656 184.79 162.966 184.186 165.54 184.186C168.113 184.186 170.409 184.79 172.427 185.998C174.474 187.176 176.068 188.821 177.209 190.935C178.349 193.049 178.919 195.435 178.919 198.093C178.919 198.969 178.861 199.829 178.744 200.675H159.925C160.217 202.215 160.861 203.408 161.855 204.254C162.849 205.099 164.078 205.522 165.54 205.522C166.651 205.522 167.631 205.341 168.479 204.979C169.356 204.586 169.956 204.073 170.278 203.438H178.13C177.691 205.13 176.872 206.609 175.673 207.878C174.474 209.176 172.997 210.188 171.243 210.913C169.488 211.638 167.587 212 165.54 212ZM171.286 195.465C170.965 193.865 170.307 192.657 169.312 191.841C168.318 190.996 167.061 190.573 165.54 190.573C164.019 190.573 162.776 190.996 161.811 191.841C160.846 192.657 160.203 193.865 159.881 195.465H171.286Z" fill="#272520"/>
<path d="M194.693 212C192.265 212 190.101 211.396 188.2 210.188C186.299 209.01 184.823 207.364 183.77 205.25C182.717 203.136 182.191 200.75 182.191 198.093C182.191 195.435 182.717 193.049 183.77 190.935C184.823 188.821 186.299 187.176 188.2 185.998C190.101 184.79 192.265 184.186 194.693 184.186C197.997 184.186 200.454 185.303 202.062 187.538V184.82H209.871V211.366H202.062V208.648C200.454 210.883 197.997 212 194.693 212ZM195.921 205.114C197.822 205.114 199.343 204.465 200.483 203.167C201.624 201.838 202.194 200.146 202.194 198.093C202.194 196.039 201.624 194.363 200.483 193.065C199.343 191.736 197.822 191.071 195.921 191.071C194.079 191.071 192.602 191.736 191.49 193.065C190.379 194.363 189.823 196.039 189.823 198.093C189.823 200.146 190.379 201.838 191.49 203.167C192.602 204.465 194.079 205.114 195.921 205.114Z" fill="#272520"/>
<path d="M223.573 211.366H215.764V173.314H223.573V211.366Z" fill="#272520"/>
<path d="M251.539 204.208H237.677L235.177 211.366H226.93L240.792 174.446H249.082L262.944 211.366H254.039L251.539 204.208ZM249.082 197.051L244.608 184.186L240.134 197.051H249.082Z" fill="#272520"/>
<path d="M274.123 211.456H266.314V184.82H274.123V211.456Z" fill="#272520"/>
<path d="M273.64 173.404C272.734 172.468 271.593 172 270.219 172C268.844 172 267.703 172.468 266.797 173.404C265.89 174.341 265.437 175.518 265.437 176.938C265.437 178.357 265.89 179.535 266.797 180.471C267.703 181.407 268.844 181.875 270.219 181.875C271.593 181.875 272.734 181.407 273.64 180.471C274.547 179.535 275 178.357 275 176.938C275 175.518 274.547 174.341 273.64 173.404Z" fill="#008B47"/>
</g>
</svg>
