<svg width="256" height="80" viewBox="0 0 256 80" fill="none" xmlns="http://www.w3.org/2000/svg">
<rect width="80" height="80" rx="8" fill="white"/>
<g clip-path="url(#clip0_261_1610)">
<path d="M40 66.8424C54.8247 66.8424 66.8425 54.8246 66.8425 39.9999C66.8425 25.1753 54.8247 13.1575 40 13.1575C25.1753 13.1575 13.1575 25.1753 13.1575 39.9999C13.1575 54.8246 25.1753 66.8424 40 66.8424Z" fill="#D0D5DA"/>
<path d="M62.3993 40.3389C62.3993 39.1041 62.0413 37.9531 61.4239 36.9833C60.6405 35.7529 60.2139 34.299 60.3663 32.8483C60.4987 31.5878 60.2511 30.2774 59.568 29.0944C58.9515 28.0264 58.068 27.2094 57.0505 26.6781C55.654 25.9489 54.6338 24.7217 53.9165 23.319C53.3898 22.2887 52.5718 21.3938 51.4935 20.7716C50.4256 20.1549 49.2519 19.889 48.105 19.9376C46.5309 20.0043 45.0339 19.4515 43.7113 18.5953C42.7401 17.9665 41.5844 17.6003 40.3393 17.6003C39.1042 17.6003 37.9532 17.9583 36.9833 18.5759C35.7528 19.3594 34.2988 19.786 32.848 19.6336C31.5876 19.5012 30.2773 19.749 29.0942 20.4321C28.0266 21.0486 27.2098 21.9319 26.6786 22.9491C25.9492 24.3457 24.7221 25.3661 23.3192 26.0833C22.289 26.61 21.394 27.4279 20.7714 28.5062C20.1549 29.5741 19.8892 30.7477 19.9378 31.8944C20.0045 33.4686 19.4519 34.9658 18.5957 36.2884C17.9669 37.2597 17.6008 38.4155 17.6008 39.6607C17.6008 40.8957 17.9588 42.0468 18.5764 43.0168C19.3598 44.2471 19.7862 45.701 19.6339 47.1516C19.5014 48.412 19.7491 49.7225 20.4321 50.9061C21.0485 51.9735 21.9319 52.7901 22.9491 53.3213C24.3459 54.0507 25.3663 55.2779 26.0837 56.6809C26.6104 57.7112 27.4283 58.6062 28.5067 59.2289C29.5745 59.845 30.748 60.1107 31.8947 60.0621C33.4689 59.9954 34.9661 60.5481 36.2888 61.4044C37.26 62.0332 38.4158 62.3993 39.6608 62.3993C40.8962 62.3993 42.0474 62.0412 43.0173 61.4236C44.2474 60.6403 45.701 60.2138 47.1513 60.3661C48.412 60.4985 49.7226 60.2508 50.9059 59.5676C51.9735 58.9515 52.7902 58.0681 53.3215 57.0508C54.0509 55.6541 55.278 54.6336 56.681 53.9163C57.7112 53.3895 58.6062 52.5717 59.2288 51.4935C59.8452 50.4256 60.1109 49.2521 60.0623 48.1054C59.9956 46.5312 60.5481 45.0339 61.4044 43.7113C62.0332 42.74 62.3993 41.5842 62.3993 40.3389Z" fill="#03905A"/>
<path d="M36.0078 44.1923C38.1193 46.5159 37.9475 50.1112 35.624 52.2228C33.3004 54.3343 29.7051 54.1625 27.5935 51.8389C25.482 49.5154 24.0087 44.1098 26.3322 41.9982C28.6557 39.8867 33.8962 41.8688 36.0078 44.1923Z" fill="white"/>
<path d="M32.354 51.8402C34.1299 51.8402 35.5696 50.4005 35.5696 48.6246C35.5696 46.8486 34.1299 45.4089 32.354 45.4089C30.5781 45.4089 29.1384 46.8486 29.1384 48.6246C29.1384 50.4005 30.5781 51.8402 32.354 51.8402Z" fill="#FFC261"/>
<path d="M36.7859 38.4585C38.8703 42.4226 43.7735 43.9464 47.7376 41.8621C51.7017 39.7777 53.2255 34.8745 51.1411 30.9104L36.7859 38.4585Z" fill="#D14141"/>
<path d="M49.0389 32.0159C50.5127 34.8189 49.4352 38.286 46.6322 39.7599C43.8292 41.2337 40.3621 40.1562 38.8882 37.3532L49.0389 32.0159Z" fill="#F25F5F"/>
<path d="M51.2118 54.2217C53.7174 52.267 54.3361 48.8721 52.594 46.639C51.2229 44.8816 50.2819 46.2744 48.7229 47.8998C48.6318 47.4366 48.4312 46.9697 48.1044 46.5509C47.1651 45.347 46.4461 46.0764 45.4583 46.847C44.4705 47.6177 43.5881 48.1376 44.5273 49.3416C44.8541 49.7604 45.2581 50.0686 45.6853 50.2697C43.7295 51.3864 42.1496 51.9603 43.5207 53.7177C45.2629 55.9507 48.7063 56.1764 51.2118 54.2217Z" fill="#E5E9EE"/>
<path d="M34.4503 29.5824L32.0962 27.9584C31.4388 27.5049 30.5382 27.6702 30.0846 28.3276L28.4606 30.6816C28.0071 31.3391 28.1724 32.2397 28.8298 32.6932L31.1839 34.3172C31.8413 34.7708 32.7419 34.6055 33.1954 33.948L34.8194 31.594C35.273 30.9366 35.1077 30.0359 34.4503 29.5824Z" fill="#FFD361"/>
<path d="M47.9602 27.424L47.6491 25.5809C47.5622 25.0662 47.0745 24.7194 46.5598 24.8062L44.7167 25.1174C44.2019 25.2042 43.8551 25.6919 43.942 26.2067L44.2531 28.0498C44.34 28.5645 44.8277 28.9113 45.3424 28.8245L47.1855 28.5134C47.7003 28.4265 48.0471 27.9388 47.9602 27.424Z" fill="#FFD361"/>
</g>
<circle cx="68" cy="12" r="4.35" stroke="#36D399" stroke-width="1.3"/>
<rect x="88" width="80" height="80" rx="8" fill="white"/>
<g clip-path="url(#clip1_261_1610)">
<path d="M151.205 40.7801C151.205 41.725 151.04 42.6401 150.725 43.5253L150.23 44.6349C150.215 44.6649 150.2 44.6803 150.185 44.7103C150.08 44.9052 149.96 45.1 149.84 45.2952C149.765 45.4149 149.69 45.55 149.6 45.6852C149.405 45.9551 149.21 46.225 148.985 46.4952C148.955 46.5399 148.925 46.5699 148.895 46.6C148.64 46.9003 148.385 47.2002 148.1 47.4851C147.86 47.7103 147.59 47.9352 147.335 48.16C147.485 47.5752 147.59 46.99 147.59 46.3901C147.59 42.7302 144.59 39.49 139.955 37.4051L141.365 32.41C141.44 32.1401 141.365 31.8702 141.215 31.63L142.58 30.3252C145.01 31.4802 147.035 32.8901 148.52 34.5099C150.23 36.3849 151.205 38.5151 151.205 40.7801Z" fill="#3D3D3D"/>
<path d="M135.995 28.1802L125.345 30.3848C121.49 31.0451 118.28 33.61 116.75 37.1051C111.71 39.1599 108.41 42.5499 108.41 46.39C108.41 46.9899 108.515 47.5751 108.665 48.1599C108.41 47.9351 108.14 47.7102 107.915 47.485C107.3 46.8701 106.79 46.2102 106.34 45.5349L106.4 45.6701C105.965 45.0252 105.62 44.3799 105.35 43.69C105.35 43.6749 105.335 43.6599 105.32 43.6299C105.155 43.1948 105.035 42.7451 104.945 42.28C104.945 42.27 104.94 42.26 104.93 42.25C104.84 41.7699 104.795 41.2752 104.795 40.78C104.795 38.515 105.77 36.3848 107.48 34.5098C111.38 30.25 119.09 27.3401 128 27.3401C130.82 27.3401 133.505 27.655 135.995 28.1802Z" fill="#3D3D3D"/>
<path d="M147.594 46.3915C147.594 42.7327 144.592 39.4873 139.95 37.4116L138.689 41.8442C138.679 42.4441 138.463 42.9832 138.081 43.4636C138.438 43.3757 138.806 43.3168 139.189 43.3168C141.138 43.3168 142.806 44.5205 143.49 46.2252C143.82 47.0485 143.23 47.9497 142.343 47.9497H136.035C135.148 47.9497 134.557 47.0485 134.888 46.2252C135.04 45.8455 135.248 45.4957 135.49 45.1735C129.182 47.6692 115.733 46.3358 115.808 41.4868C115.833 39.9297 116.17 38.4509 116.755 37.1062C111.711 39.1599 108.406 42.5496 108.406 46.3915C108.406 46.9939 108.511 47.5806 108.667 48.1574C108.913 48.376 109.137 48.6038 109.405 48.8125L109.445 48.8462C110.005 49.2791 110.619 49.687 111.264 50.0774C111.461 50.1961 111.675 50.3048 111.879 50.4195C112.331 50.6736 112.795 50.9197 113.28 51.1515C113.565 51.2874 113.858 51.417 114.154 51.5448C118.02 53.2206 122.798 54.2284 128 54.2284C133.233 54.2284 138.04 53.21 141.919 51.5155C142.153 51.4134 142.389 51.3127 142.617 51.2053C143.304 50.8809 143.971 50.5421 144.589 50.1752C144.609 50.1635 144.626 50.1503 144.646 50.1386C145.266 49.7669 145.842 49.371 146.387 48.9605C146.509 48.8682 146.626 48.7733 146.745 48.6792C146.955 48.5115 147.134 48.3306 147.333 48.1577C147.489 47.5806 147.594 46.9939 147.594 46.3915ZM117.388 47.6088H113.135C112.496 47.6088 112.013 46.965 112.256 46.3735C112.742 45.1918 113.905 44.3597 115.262 44.3597C116.619 44.3597 117.782 45.1918 118.268 46.3735C118.511 46.965 118.028 47.6088 117.388 47.6088ZM124.636 51.8191C123.997 51.8191 123.514 51.1753 123.757 50.5842C124.243 49.4025 125.405 48.5704 126.763 48.5704C128.12 48.5704 129.283 49.4025 129.769 50.5842C130.012 51.1753 129.528 51.8191 128.889 51.8191H124.636Z" fill="#FFC450"/>
<path d="M129.769 50.5841C129.283 49.4023 128.12 48.5703 126.763 48.5703C125.405 48.5703 124.243 49.4023 123.757 50.5841C123.514 51.1752 123.997 51.819 124.636 51.819H128.889C129.528 51.819 130.012 51.1752 129.769 50.5841Z" fill="#FFE3A0"/>
<path d="M115.262 44.3596C113.905 44.3596 112.742 45.1917 112.256 46.3734C112.013 46.9648 112.496 47.6086 113.135 47.6086H117.388C118.028 47.6086 118.511 46.9648 118.268 46.3734C117.782 45.1917 116.619 44.3596 115.262 44.3596Z" fill="#036D50"/>
<path d="M148.625 27.3848C148.595 28.705 147.5 29.7549 146.18 29.7249L144.665 29.6949L143.27 29.6648L142.58 30.3251L141.215 31.6299C141.185 31.5852 141.17 31.5252 141.125 31.4802L138.02 28.2399C137.99 28.2102 137.945 28.1949 137.9 28.1648L139.955 26.2001L139.985 24.7898L140.015 23.3052C140.045 21.97 141.14 20.9351 142.46 20.9501C143.795 20.9801 144.83 22.0751 144.815 23.4099L144.77 24.8949L146.285 24.94C147.605 24.97 148.655 26.065 148.625 27.3848Z" fill="#D5D5D5"/>
<path d="M141.365 32.4098L139.955 37.4049L138.695 41.8448C138.68 42.4447 138.47 42.9848 138.08 43.4649C137.03 43.7198 136.115 44.3351 135.485 45.1748C129.185 47.6646 115.73 46.3298 115.805 41.4848C115.835 39.9248 116.165 38.4548 116.75 37.105C118.28 33.6098 121.49 31.0449 125.345 30.3846L135.995 28.18L137.09 27.9548C137.39 27.8948 137.675 27.9848 137.9 28.1646C137.945 28.1947 137.99 28.2101 138.02 28.2397L141.125 31.48C141.17 31.525 141.185 31.5851 141.215 31.6297C141.365 31.87 141.44 32.1399 141.365 32.4098Z" fill="#F77F00"/>
<path d="M135.49 45.1733C135.248 45.4956 135.04 45.8453 134.888 46.2251C134.557 47.0483 135.148 47.9496 136.035 47.9496H142.343C143.23 47.9496 143.82 47.0483 143.49 46.2251C142.806 44.5204 141.138 43.3167 139.189 43.3167C138.806 43.3167 138.438 43.3756 138.081 43.4635C137.03 43.7224 136.122 44.3336 135.49 45.1733Z" fill="#C50010"/>
<path d="M150.228 34.5144H148.518C150.228 36.3876 151.206 38.5197 151.206 40.7861C151.206 41.7247 151.038 42.6402 150.722 43.5243C150.587 43.9029 150.418 44.2739 150.227 44.639C150.193 44.706 150.163 44.7738 150.127 44.8405L149.125 47.0582H150.228C153.692 47.0582 156.5 44.2501 156.5 40.7861C156.5 37.3225 153.692 34.5144 150.228 34.5144Z" fill="#4E5968"/>
<path d="M105.354 43.6953C105.346 43.6737 105.333 43.6525 105.325 43.6305C105.16 43.1874 105.032 42.7362 104.944 42.2773L104.93 42.244H104.935L104.937 42.2491C104.847 41.7683 104.794 41.2809 104.794 40.7861C104.794 38.5196 105.772 36.3876 107.482 34.5144H105.772C102.308 34.5144 99.5 37.3225 99.5 40.7861C99.5 44.2501 102.308 47.0582 105.772 47.0582H106.99L106.393 45.6641C105.966 45.0291 105.613 44.3732 105.354 43.6953Z" fill="#4E5968"/>
<path d="M150.188 44.7046C150.083 44.902 149.964 45.0957 149.844 45.2891C149.762 45.4205 149.684 45.5527 149.595 45.6824C149.406 45.9581 149.204 46.2306 148.984 46.4976C148.955 46.5335 148.925 46.5693 148.895 46.6049C148.644 46.9033 148.379 47.1967 148.094 47.4823C147.861 47.7159 147.59 47.9335 147.333 48.1576C147.134 48.3304 146.955 48.5114 146.745 48.6791C146.626 48.7732 146.509 48.8681 146.387 48.9603C145.842 49.3709 145.266 49.7667 144.646 50.1384C144.626 50.1502 144.609 50.1633 144.589 50.1751C143.971 50.542 143.304 50.8807 142.617 51.2052C142.389 51.3125 142.153 51.4132 141.919 51.5154C138.041 53.2099 133.233 54.2283 128 54.2283C122.798 54.2283 118.02 53.2205 114.154 51.5447C113.858 51.4169 113.565 51.2872 113.281 51.1514C112.795 50.9196 112.331 50.6735 111.879 50.4193C111.675 50.3047 111.461 50.1959 111.264 50.0773C110.619 49.6869 110.006 49.2789 109.445 48.8461L109.405 48.8124C109.137 48.6036 108.913 48.3759 108.667 48.1572C108.414 47.9324 108.14 47.7167 107.908 47.4838C107.293 46.8671 106.785 46.2123 106.34 45.5396L106.393 45.6641L106.99 47.0582L109.027 51.819H109.053C110.549 57.6037 117.597 62.044 128 62.044C138.403 62.044 145.451 57.6036 146.947 51.819H146.973L149.125 47.0582L150.127 44.8405L150.188 44.7046Z" fill="#4E5968"/>
<path d="M129.26 18.655C128.825 21.1749 126.44 22.8701 123.935 22.435C123.59 22.3749 123.26 22.2698 122.945 22.1347C122.075 23.155 120.725 23.7101 119.315 23.4549C117.2 23.0949 115.775 21.0551 116.135 18.9249C116.495 16.795 118.52 15.355 120.65 15.73H120.665C121.565 14.0048 123.485 12.9699 125.51 13.3149C128.015 13.7499 129.695 16.1347 129.26 18.655Z" fill="#D5D5D5"/>
<path d="M133.613 23.3685C135.441 23.3685 136.923 21.8799 136.923 20.0433C136.923 18.2072 135.441 16.7185 133.613 16.7185C131.784 16.7185 130.302 18.2072 130.302 20.0433C130.302 21.8799 131.784 23.3685 133.613 23.3685Z" fill="#D5D5D5"/>
</g>
<circle cx="156" cy="12" r="4.35" stroke="#36D399" stroke-width="1.3"/>
<rect x="176" width="80" height="80" rx="8" fill="white"/>
<path d="M244 12.9334L240.733 16.2C240.611 16.3223 240.456 16.3834 240.267 16.3834C240.078 16.3834 239.922 16.3223 239.8 16.2C239.678 16.0778 239.617 15.9223 239.617 15.7334C239.617 15.5445 239.678 15.3889 239.8 15.2667L243.067 12L239.8 8.73337C239.678 8.61114 239.617 8.45559 239.617 8.2667C239.617 8.07781 239.678 7.92225 239.8 7.80003C239.922 7.67781 240.078 7.6167 240.267 7.6167C240.456 7.6167 240.611 7.67781 240.733 7.80003L244 11.0667L247.267 7.80003C247.389 7.67781 247.544 7.6167 247.733 7.6167C247.922 7.6167 248.078 7.67781 248.2 7.80003C248.322 7.92225 248.383 8.07781 248.383 8.2667C248.383 8.45559 248.322 8.61114 248.2 8.73337L244.933 12L248.2 15.2667C248.322 15.3889 248.383 15.5445 248.383 15.7334C248.383 15.9223 248.322 16.0778 248.2 16.2C248.078 16.3223 247.922 16.3834 247.733 16.3834C247.544 16.3834 247.389 16.3223 247.267 16.2L244 12.9334Z" fill="#F87272"/>
<g clip-path="url(#clip2_261_1610)">
<path d="M230.435 20.0258C226.938 19.1933 222.693 23.6052 222.693 23.6052C222.693 23.6052 222.111 20.6086 217.782 21.2745C215.917 21.5614 214.673 22.8366 213.858 24.1941C214.843 23.5018 216.019 23.0667 217.314 23.0667C220.689 23.0665 223.425 25.8025 223.425 29.1777C223.425 29.2962 223.397 29.4063 223.391 29.5231C226.399 29.9886 228.9 30.9127 230.55 32.0953C232.357 32.1247 234.039 32.6739 235.437 33.619C235.733 33.1076 235.991 32.5741 236.178 32.0125C236.263 31.7583 236.318 31.5229 236.369 31.2911C237.312 26.9679 232.601 26.4355 232.601 26.4355C232.601 26.4355 233.931 20.8583 230.435 20.0258Z" fill="#036D50"/>
<path d="M203.941 40.5681C205.521 41.1431 206.769 42.2227 207.578 43.5569C208.691 43.2131 209.914 43.197 211.093 43.6261C211.838 43.8974 212.482 44.3191 213.019 44.8351C213.677 43.4147 214.801 42.2557 216.203 41.566C216.108 41.4589 216.014 41.3481 215.919 41.2469C214.873 40.1281 213.812 39.3427 212.779 38.8087C212.285 39.5181 211.642 40.1072 210.827 40.4674C208.129 41.6619 204.814 40.0808 203.422 36.9364C203.398 36.8832 203.38 36.8258 203.357 36.7716C201.62 35.3434 198.936 33.57 196.741 33.9856C196.423 34.0458 196.112 34.1352 195.82 34.2955C193.143 35.7655 194.629 40.9575 195.527 43.4358C197.274 40.6821 200.75 39.4068 203.941 40.5681Z" fill="#036D50"/>
<path d="M210.828 40.4674C211.642 40.1072 212.285 39.5181 212.779 38.8087C213.92 37.1672 214.165 34.807 213.193 32.6117C211.801 29.4673 207.915 26.5977 205.217 27.7922C202.565 28.9661 202.052 33.6267 203.357 36.7716C203.38 36.8258 203.399 36.8832 203.422 36.9364C204.814 40.0808 208.13 41.6619 210.828 40.4674ZM205.203 36.1483C204.464 34.4786 205.218 32.5262 206.888 31.7873C208.557 31.0481 210.51 31.8026 211.249 33.4723C211.988 35.1417 211.234 37.0943 209.564 37.8332C207.894 38.5721 205.942 37.8177 205.203 36.1483Z" fill="#FFFEFA"/>
<path d="M221.41 41.0769C221.41 41.1354 221.426 41.1893 221.427 41.2476C222.111 41.4897 222.747 41.8379 223.316 42.2694C223.692 41.9667 224.095 41.6948 224.518 41.4565C224.51 41.3285 224.48 41.2068 224.48 41.0768C224.48 37.8047 227.133 35.152 230.405 35.1519C233.677 35.1519 236.33 37.8046 236.33 41.0767C236.33 42.0357 236.081 42.9283 235.676 43.7296C236.381 44.6303 236.907 45.6629 237.217 46.7966C237.322 46.6995 237.433 46.6055 237.534 46.5071C238.688 44.9942 239.401 43.1268 239.401 41.0769C239.401 37.9727 237.829 35.2364 235.437 33.6195C234.039 32.6744 232.358 32.1252 230.55 32.0958C230.501 32.095 230.455 32.0811 230.405 32.0812C225.437 32.0812 221.409 36.1087 221.41 41.0769Z" fill="#D12030"/>
<path d="M235.676 43.7293C236.08 42.9281 236.33 42.0355 236.33 41.0765C236.33 37.8044 233.677 35.1517 230.405 35.1517C227.133 35.1517 224.48 37.8044 224.48 41.0766C224.48 41.2066 224.51 41.3283 224.518 41.4563C225.784 40.7449 227.242 40.3375 228.798 40.3375C231.603 40.3374 234.072 41.6792 235.676 43.7293Z" fill="#F56570"/>
<path d="M230.403 32.074C230.456 32.0844 230.509 32.095 230.551 32.095C228.897 30.907 226.404 29.9844 223.392 29.5176C223.392 29.4117 223.424 29.2949 223.434 29.1782C223.424 25.7949 220.687 23.0583 217.314 23.0582C216.021 23.0584 214.843 23.4931 213.867 24.193C213.687 24.3099 213.517 24.416 213.369 24.5432C212.489 22.2628 210.282 20.6506 207.684 20.64C204.311 20.6399 201.574 23.3764 201.574 26.7494C201.585 27.2054 201.638 27.6403 201.723 28.0645C199.898 28.404 198.371 29.5496 197.512 31.1088C197.035 31.9679 196.759 32.9436 196.738 33.983C198.933 33.5694 201.617 35.3408 203.367 36.7727C202.052 33.6331 202.561 28.9662 205.223 27.7888C207.917 26.6008 211.799 29.4648 213.189 32.6148C214.164 34.7998 213.92 37.165 212.785 38.809C213.814 39.35 214.875 40.135 215.925 41.2487C216.211 41.2805 216.498 41.3122 216.784 41.3229C216.593 41.4077 216.392 41.4819 216.201 41.5667C214.801 42.2457 213.677 43.4124 213.019 44.8336C212.478 44.3139 211.831 43.9002 211.088 43.6244C209.911 43.1896 208.691 43.2216 207.578 43.5502C206.761 42.2244 205.53 41.1424 203.939 40.5696C200.747 39.4138 197.279 40.6759 195.529 43.4442C195.263 43.8577 195.019 44.3139 194.839 44.8123C194.818 44.8759 194.807 44.9505 194.786 45.0139C198.509 49.9248 206.962 53.3718 216.827 53.372C217.187 53.3719 217.548 53.3509 217.919 53.3402C226.075 53.1174 233.15 50.5611 237.212 46.7959C236.905 45.6611 236.385 44.632 235.675 43.7307C234.073 41.6833 231.602 40.3365 228.801 40.3365C227.242 40.3471 225.779 40.7501 224.516 41.4608C224.092 41.694 223.689 41.97 223.307 42.2669C222.745 41.8319 222.109 41.4925 221.419 41.2486C221.419 41.1849 221.409 41.1318 221.409 41.0684C221.409 36.1044 225.439 32.0739 230.403 32.074ZM219.796 31.8406L219.552 31.0875C219.372 30.5253 219.68 29.942 220.231 29.751L220.995 29.5177C221.546 29.3267 222.141 29.6451 222.321 30.207L222.554 30.9497C222.745 31.5011 222.437 32.1056 221.875 32.286L221.122 32.5299C220.571 32.6997 219.977 32.4025 219.796 31.8406ZM218.746 41.079C218.492 41.6092 217.855 41.8214 217.325 41.5667L216.816 41.3123L216.614 41.2167C216.084 40.9623 215.872 40.326 216.127 39.8168L216.466 39.0953C216.731 38.5757 217.357 38.3529 217.887 38.6076L218.598 38.9576C219.128 39.2121 219.351 39.838 219.096 40.3682L218.831 40.888L218.746 41.079Z" fill="#23B169"/>
<path d="M209.564 37.8335C211.234 37.0946 211.988 35.142 211.249 33.4726C210.51 31.8029 208.558 31.0484 206.888 31.7876C205.219 32.5265 204.464 34.479 205.203 36.1486C205.942 37.818 207.895 38.5724 209.564 37.8335Z" fill="#FFD900"/>
<path d="M219.553 31.0903L219.796 31.8432C219.975 32.3997 220.572 32.7053 221.128 32.5258L221.881 32.2829C222.438 32.1034 222.743 31.5067 222.564 30.9502L222.321 30.1973C222.141 29.6408 221.545 29.3352 220.988 29.5147L220.235 29.7576C219.679 29.9371 219.373 30.5338 219.553 31.0903Z" fill="#FFD900"/>
<path d="M217.328 41.5681C217.854 41.8236 218.487 41.6045 218.743 41.0786L218.833 40.8938L219.089 40.3668C219.344 39.8407 219.125 39.2073 218.599 38.9521L217.887 38.6063C217.361 38.3508 216.728 38.5699 216.472 39.0958L216.127 39.8076C215.871 40.3335 216.09 40.9668 216.616 41.2224L216.811 41.3172L217.328 41.5681Z" fill="#FFD900"/>
<path d="M208.939 57.3245H223.056V62.3385C223.056 63.7263 221.929 64.8531 220.541 64.8531H211.454C210.066 64.8531 208.939 63.7263 208.939 62.3385L208.939 57.3245Z" fill="#AFB7C0"/>
<path fill-rule="evenodd" clip-rule="evenodd" d="M241.137 33.3269C242.598 33.3269 243.77 34.5826 243.629 36.0367C242.267 50.0974 230.416 61.0886 215.997 61.0886C201.579 61.0886 189.728 50.0974 188.366 36.0367C188.225 34.5826 189.397 33.3269 190.858 33.3269L241.137 33.3269Z" fill="#D0D5DA"/>
</g>
<defs>
<clipPath id="clip0_261_1610">
<rect width="60" height="60" fill="white" transform="translate(10 10)"/>
</clipPath>
<clipPath id="clip1_261_1610">
<rect width="60" height="60" fill="white" transform="translate(98 10)"/>
</clipPath>
<clipPath id="clip2_261_1610">
<rect width="60" height="60" fill="white" transform="translate(186 10)"/>
</clipPath>
</defs>
</svg>
