<svg width="157" height="166" viewBox="0 0 157 166" fill="none" xmlns="http://www.w3.org/2000/svg">
<path fill-rule="evenodd" clip-rule="evenodd" d="M65.1388 40.963C70.6644 40.5644 76.2469 42.7993 79.4369 46.0306C81.8721 48.4932 84.7062 53.4753 83.8375 59.6674C82.7694 67.2688 74.5949 72.8488 66.8904 72.8631C55.4832 72.8773 45.2723 61.8311 50.6128 50.2156C52.5211 46.0733 56.9501 41.5751 65.1388 40.9772V40.963Z" fill="#CC5A44"/>
<path fill-rule="evenodd" clip-rule="evenodd" d="M68.2151 54.3864C67.1043 54.1159 67.3321 52.0377 67.1185 50.6427C66.5631 47.0128 66.0504 42.4434 70.8639 43.6107C72.0887 43.9096 74.8942 44.9915 75.2645 46.2583C75.7344 47.8811 74.2533 49.7886 73.4986 50.6569C72.0744 52.3081 70.2231 54.8846 68.2151 54.4006V54.3864Z" fill="#EAC868"/>
<path fill-rule="evenodd" clip-rule="evenodd" d="M62.4898 44.4789C64.2415 44.9914 64.2842 47.7529 64.9108 49.5323C65.5375 51.2832 67.7306 53.518 66.4489 54.8134C65.3381 55.9379 62.9313 53.6604 60.9518 52.6212C59.2286 51.7102 56.6652 50.728 56.5513 48.8775C56.4089 46.7138 59.3995 43.5679 62.4898 44.4789Z" fill="#EAC868"/>
<path fill-rule="evenodd" clip-rule="evenodd" d="M77.671 52.4077C80.5478 51.9949 80.8468 53.1764 81.1886 56.1515C81.4307 58.1871 81.6871 60.4361 79.8642 60.9913C77.4432 61.7315 72.9572 58.8703 71.291 57.6888C70.8495 57.3757 69.4539 56.4077 69.5251 55.7102C69.6817 54.2725 72.9572 54.2013 73.6977 53.9451C75.4494 53.3615 76.0191 52.6355 77.6568 52.4077H77.671Z" fill="#EAC868"/>
<path fill-rule="evenodd" clip-rule="evenodd" d="M63.5865 56.365C63.4726 57.7742 61.2652 58.0874 59.8553 58.7849C57.7333 59.824 55.7111 61.1052 52.3787 60.3223C50.0431 56.849 51.6951 51.6391 56.3378 52.4077C57.5055 52.5928 58.7302 53.76 60.0831 54.3864C61.4076 54.9985 63.7004 55.0127 63.6007 56.365H63.5865Z" fill="#EAC868"/>
<path fill-rule="evenodd" clip-rule="evenodd" d="M67.7733 57.0198C69.9522 57.4468 71.3336 58.9272 73.2704 60.977C74.6803 62.4717 77.0016 64.8062 76.788 66.6994C76.5174 68.9912 71.0488 71.0552 68.8699 69.3471C66.6483 67.582 68.1009 60.8631 67.104 57.4753C67.104 57.2618 67.1752 57.034 67.7591 57.034L67.7733 57.0198Z" fill="#EAC868"/>
<path fill-rule="evenodd" clip-rule="evenodd" d="M63.8145 57.9024C68.0584 55.5537 66.3637 69.2333 63.8145 70.002C61.1514 70.7991 56.2239 67.2974 56.3379 64.7209C56.4376 62.4718 62.1625 58.8277 63.8145 57.9024Z" fill="#EAC868"/>
<path fill-rule="evenodd" clip-rule="evenodd" d="M89.1777 45.0342C92.1398 46.6712 87.2409 54.8988 90.7157 55.8099C92.8234 56.365 93.2649 52.422 95.9992 53.6035C97.6796 54.3295 95.4296 58.5714 97.3236 59.5394C100.998 59.5394 103.39 48.721 107.663 54.0448C110.141 57.1195 106.609 59.0127 106.566 62.4006C106.523 65.8311 108.66 68.8489 108.546 72.0802C108.417 75.6958 105.726 79.4253 101.724 78.6851C98.0357 78.0019 95.5435 72.2368 92.0401 72.5215C90.0321 72.6781 89.8755 74.5713 88.0811 76.7065C86.187 78.9414 82.4843 81.7741 77.9556 81.5463C72.131 81.2474 68.8982 75.6104 69.596 68.792C69.7527 67.3116 70.6784 65.0482 70.6926 64.3934C70.7211 62.7137 69.7954 60.4931 69.1546 58.6711C68.4568 56.6924 66.3775 50.9416 70.479 50.543C72.8715 50.301 73.7687 52.3366 74.8795 54.059C75.6913 55.3401 76.9302 57.8739 79.0664 57.575C81.0317 57.2903 81.0886 53.7316 81.9289 51.4256C83.1109 48.1373 85.4465 42.9844 89.1919 45.0484L89.1777 45.0342Z" fill="#3A9B61"/>
<path fill-rule="evenodd" clip-rule="evenodd" d="M6.23707 72.3079C6.94913 71.1833 9.0141 71.4111 10.1961 70.7705C9.38437 67.3115 9.72618 64.1656 12.6171 63.5108C16.4053 62.671 19.1681 66.6994 23.1841 67.2546C25.8329 67.6247 29.0515 66.9699 30.4471 65.0624C32.7399 61.9165 29.7066 53.9593 33.7511 52.9771C35.6024 52.5216 36.6705 53.8027 38.593 53.4184C40.7577 52.9771 41.4982 49.4042 43.435 47.9238C49.1885 43.5252 56.3091 50.3294 57.0781 55.8383C57.4626 58.5998 56.6651 60.9201 57.5196 63.098C58.7301 66.2012 63.4439 65.7599 64.1275 69.4752C64.5689 71.8809 62.9312 73.4182 61.9344 75.1976C61.1938 76.4929 59.8266 79.2972 60.8378 80.9199C62.2904 83.2544 66.1355 80.7633 68.7559 81.8025C69.4679 82.0872 70.892 83.4252 70.949 84.6637C71.0487 86.685 68.7131 88.1939 67.8729 89.0622C66.8048 90.1725 65.1671 91.6814 65.0105 93.6743C64.8396 95.8949 66.2494 98.144 66.3206 100.051C66.4203 102.5 65.6798 105.603 64.5547 107.311C63.1449 109.489 60.14 111.881 57.2917 112.364C55.3264 112.692 53.0194 111.98 51.1395 111.923C47.4795 111.809 43.2214 112.977 39.2624 111.482C37.4965 110.813 35.7591 109.076 33.5374 108.179C29.7208 106.656 25.0497 106.685 22.3154 105.105C20.2647 103.923 17.3879 101.219 16.5904 99.6102C15.5508 97.5034 15.978 94.9839 15.266 93.0052C14.6963 91.4252 10.1961 92.6494 8.94289 92.4786C6.05193 92.0515 -0.000542239 90.8131 0.739999 85.0907C1.23844 81.2758 7.16278 81.2189 7.56154 78.4858C7.88909 76.2082 4.78447 74.984 6.23707 72.3221V72.3079Z" fill="#3A9B61"/>
<path fill-rule="evenodd" clip-rule="evenodd" d="M68.7273 82.2011C65.0958 81.0623 61.8916 83.2544 58.8297 82.2011C53.888 80.4929 53.4181 70.5428 59.7127 70.1015C65.3522 69.7029 68.2289 76.863 68.7273 82.2011Z" fill="#14512F"/>
<path fill-rule="evenodd" clip-rule="evenodd" d="M81.0459 89.2472C85.1901 89.7028 87.6396 86.5569 90.2885 84.4074C92.8519 82.3149 95.7001 79.653 100.414 81.105C101.283 82.2295 100.029 84.8629 101.069 86.1583C102.906 86.8985 103.561 85.7882 105.028 86.1583C106.751 86.5853 107.478 89.5035 109.87 89.902C112.889 90.4145 115.766 87.9519 118.016 86.386C121.206 84.1512 124.724 82.0302 130.548 82.8701C132.741 83.1832 134.579 83.7811 134.336 86.3006C133.966 90.1867 126.02 84.9199 123.727 89.4608C120.722 95.4251 123.214 118.428 112.946 117.176C110.468 116.863 108.147 114.756 105.47 114.528C103.632 114.386 101.567 115.411 99.7446 114.528C91.1002 117.816 79.1946 119.596 67.1893 118.927C64.1702 118.756 61.208 117.816 57.7331 118.485C56.1523 116.735 54.9134 112.592 56.8502 110.357C58.1888 108.82 60.9801 108.977 62.5751 107.724C63.216 107.211 64.5831 105.503 64.7825 104.208C65.3094 100.763 63.0736 97.2899 63.2445 94.1013C63.4296 90.5426 65.5373 86.9839 69.4109 86.6281C71.3762 81.5605 75.5631 75.9947 81.5159 75.6388C87.9814 75.2402 84.5066 80.0943 82.8403 82.8985C81.6441 84.9056 80.22 86.3861 81.0744 89.2757L81.0459 89.2472Z" fill="#14512F"/>
<path fill-rule="evenodd" clip-rule="evenodd" d="M83.5525 71.7812C83.4956 71.5677 83.4101 71.0837 83.7661 70.8275C85.8596 69.2332 89.306 68.3506 92.3109 67.283C97.5943 65.404 103.163 63.1122 109.073 59.9236C111.764 58.4717 115.609 55.639 117.518 56.8632C119.483 58.1158 119.255 63.0553 118.614 65.9734C115.866 78.4146 101.354 82.9128 91.2997 78.6423C88.48 77.4466 84.8912 74.557 83.5525 71.7812Z" fill="#CC5A44"/>
<path fill-rule="evenodd" clip-rule="evenodd" d="M97.4663 67.2261C98.8762 67.9663 96.7685 70.0588 96.0565 71.7527C95.4868 73.1193 95.4156 75.3257 94.1624 76.1655C92.5817 77.2331 86.7997 73.6033 87.8821 71.3399C88.4375 70.1727 91.5278 69.6602 92.8095 69.1051C94.3333 68.4503 95.9425 66.4147 97.4663 67.2119V67.2261Z" fill="#EAC868"/>
<path fill-rule="evenodd" clip-rule="evenodd" d="M100.087 66.799C102.109 66.372 102.764 69.7171 103.69 71.4253C104.487 72.9057 105.655 75.3968 104.858 76.621C103.875 78.1014 99.0757 78.7989 97.5661 77.2189C96.498 76.0943 97.4094 74.8986 98.1784 72.621C98.9475 70.3719 97.7939 67.283 100.087 66.799Z" fill="#EAC868"/>
<path fill-rule="evenodd" clip-rule="evenodd" d="M113.203 68.0945C114.129 70.5855 110.198 74.8417 107.763 74.4431C104.915 71.824 101.596 66.7991 102.921 65.4041C104.16 64.1087 106.41 65.6461 108.005 66.1301C109.714 66.6567 111.665 66.9272 113.217 68.0945H113.203Z" fill="#EAC868"/>
<path fill-rule="evenodd" clip-rule="evenodd" d="M105.427 64.0517C105.128 63.0268 108.518 61.6318 110.397 60.7208C113.317 59.3115 116.649 57.8454 115.923 62.6567C115.752 63.7813 115.396 65.4752 114.413 66.2439C113.018 67.3684 106.139 66.4432 105.427 64.0517Z" fill="#EAC868"/>
<path fill-rule="evenodd" clip-rule="evenodd" d="M26.9437 63.8383C26.545 60.0234 24.3376 54.1017 24.7506 48.664C24.9215 46.3295 25.8187 43.753 27.613 43.3829C31.7857 42.5431 34.4488 49.4327 35.759 53.0626C38.2939 60.0518 39.419 66.2155 38.8351 74.8275C38.6357 77.8453 37.7955 83.3684 35.5311 83.8381C34.0216 84.1513 31.5294 82.3719 30.0341 81.4182C21.703 76.0944 15.1663 70.2297 10.4524 61.4041C8.78622 58.2867 4.54233 53.1765 8.03142 49.9736C11.6344 46.6569 16.0777 51.9523 18.812 54.5857C21.9023 57.5607 24.6936 60.5358 26.958 63.5963V63.8098L26.9437 63.8383Z" fill="#4FC67F"/>
<path fill-rule="evenodd" clip-rule="evenodd" d="M112.305 69.3328C114.014 69.0766 114.456 67.525 116.919 68.0232C119.198 70.0161 115.695 75.5107 118.899 76.8203C123.257 75.8666 126.732 67.4965 130.776 71.9805C135.547 77.2758 125.137 80.1655 121.092 84.08C118.899 86.201 116.72 90.5284 113.616 91.112C110.511 91.6956 106.452 89.4181 103.49 88.2508C98.5056 86.2864 90.7299 84.6209 85.005 86.927C82.0143 88.1369 79.3085 90.6707 76.4318 90.443C72.7149 90.144 69.24 85.1903 67.1893 81.8736C64.8395 78.0587 62.803 73.5748 62.3472 69.1193C61.92 64.9485 63.0593 61.3044 66.5342 61.2048C69.3824 61.1194 70.0233 65.2901 71.1483 68.0232C71.7892 69.589 73.6833 73.5605 75.7767 73.3043C77.329 73.105 77.7847 69.4894 78.4113 68.251C80.2769 64.6069 85.1759 60.4788 90.9578 62.5428C93.7776 63.5393 95.8568 68.8915 98.2208 70.8986C98.6765 71.283 100.528 72.7492 101.966 72.436C104.031 71.9947 103.447 68.8346 104.159 66.7279C104.772 64.9343 106.224 63.0126 108.788 63.6532C111.138 64.2368 110.525 67.7955 112.305 69.3613V69.3328Z" fill="#4FC67F"/>
<path fill-rule="evenodd" clip-rule="evenodd" d="M53.518 90.7989C53.575 90.5854 53.6605 90.1014 53.3044 89.8452C51.211 88.2366 47.7646 87.3683 44.7597 86.3007C39.4762 84.4217 33.9079 82.1299 28.0121 78.9413C25.3205 77.4894 21.4754 74.6567 19.5671 75.8809C17.6018 77.1335 17.8296 82.073 18.4705 84.9911C21.219 97.418 35.7451 101.916 45.7851 97.66C48.6048 96.4643 52.1936 93.5747 53.5323 90.7989H53.518Z" fill="#CC5A44"/>
<path fill-rule="evenodd" clip-rule="evenodd" d="M39.6048 86.2296C38.2092 86.9698 40.0463 90.0872 40.7584 91.7811C41.328 93.1476 41.6555 94.3291 42.9088 95.169C44.4895 96.2366 50.2715 92.6067 49.1891 90.3434C48.6337 89.1904 46.0276 88.2509 44.7459 87.6957C43.2221 87.0409 41.1286 85.4182 39.6048 86.2296Z" fill="#EAC868"/>
<path fill-rule="evenodd" clip-rule="evenodd" d="M36.984 85.8167C34.9618 85.3897 34.3067 88.7348 33.381 90.443C32.5835 91.9234 31.4157 94.4287 32.2133 95.6387C33.1959 97.1191 37.9952 97.8309 39.5047 96.2366C40.5728 95.112 39.6614 93.9163 38.8924 91.6387C38.1233 89.4039 39.2768 86.3007 36.984 85.8167Z" fill="#EAC868"/>
<path fill-rule="evenodd" clip-rule="evenodd" d="M23.8679 87.1122C22.9422 89.6032 26.8728 93.8594 29.3081 93.4608C32.1563 90.8417 35.4745 85.8168 34.1501 84.4218C32.9111 83.1264 30.6752 84.6638 29.0659 85.1478C27.357 85.6602 25.406 85.9449 23.8537 87.1122H23.8679Z" fill="#EAC868"/>
<path fill-rule="evenodd" clip-rule="evenodd" d="M31.6437 83.0694C32.1279 82.1015 28.5534 80.6495 26.6736 79.7385C23.7541 78.3292 20.4217 76.8631 21.1623 81.6744C21.3331 82.799 21.9598 84.2367 22.6718 85.2616C23.7541 86.8559 30.9887 84.3933 31.658 83.0694H31.6437Z" fill="#EAC868"/>
<path fill-rule="evenodd" clip-rule="evenodd" d="M71.0346 81.3328C74.367 76.9057 79.7217 74.1584 84.2362 73.8737C87.6968 73.646 93.322 74.7848 97.4093 79.5107C102.436 85.3043 101.297 95.1262 96.2557 100.948C88.7791 109.56 73.7404 110.016 68.4712 98.3575C66.5913 94.201 66.1071 87.895 71.0346 81.347V81.3328Z" fill="#CC5A44"/>
<path fill-rule="evenodd" clip-rule="evenodd" d="M83.1823 87.8096C82.2424 88.4786 80.8183 86.9413 79.6363 86.1868C76.5317 84.2224 72.7578 81.6175 76.7738 78.7421C77.7991 78.0161 80.4765 76.6068 81.6585 77.162C83.1823 77.8737 83.6665 80.2509 83.8232 81.3755C84.1222 83.5249 84.8628 86.6281 83.1823 87.8096Z" fill="#EAC868"/>
<path fill-rule="evenodd" clip-rule="evenodd" d="M71.96 85.6317C73.4981 84.6495 75.6058 86.4289 77.3717 87.1264C79.1091 87.8096 82.228 87.6246 82.3704 89.4324C82.4843 91.0125 79.1803 91.3256 77.1011 92.137C75.2782 92.8487 72.8572 94.1156 71.3904 93.0053C69.6672 91.6815 69.24 87.3684 71.9743 85.646L71.96 85.6317Z" fill="#EAC868"/>
<path fill-rule="evenodd" clip-rule="evenodd" d="M87.8958 79.3826C89.4765 76.9485 90.5589 77.4894 93.0226 79.1833C94.7173 80.3506 96.5829 81.6175 95.8138 83.3541C94.7885 85.6601 89.6902 87.169 87.6964 87.653C87.1695 87.7811 85.5175 88.1939 85.0475 87.6815C84.0649 86.6139 86.1584 84.0943 86.4574 83.3683C87.1695 81.6602 86.9986 80.7634 87.8958 79.3684V79.3826Z" fill="#EAC868"/>
<path fill-rule="evenodd" clip-rule="evenodd" d="M81.6443 92.5924C82.6411 93.6031 81.4164 95.4679 81.0176 97.0052C80.4053 99.297 80.0492 101.66 77.2722 103.653C73.1138 103.126 70.2798 98.4714 73.8971 95.4679C74.8085 94.7134 76.4889 94.5569 77.8418 93.9448C79.1805 93.3469 80.6901 91.6245 81.6443 92.5924Z" fill="#EAC868"/>
<path fill-rule="evenodd" clip-rule="evenodd" d="M84.8769 89.8737C86.6286 88.5071 88.6509 88.4502 91.4706 88.3221C93.5214 88.2367 96.8253 88.0232 98.0928 89.4182C99.6451 91.1263 97.6086 96.6067 94.8885 97.1192C92.0972 97.6459 87.9815 92.137 84.7773 90.6566C84.6206 90.5142 84.4924 90.315 84.8769 89.8737Z" fill="#EAC868"/>
<path fill-rule="evenodd" clip-rule="evenodd" d="M82.9403 93.4466C83.9514 88.7064 93.1654 98.9697 92.0689 101.39C90.9153 103.909 85.048 105.347 83.1681 103.567C81.5304 102.016 82.5415 95.3113 82.9403 93.4466Z" fill="#EAC868"/>
<path fill-rule="evenodd" clip-rule="evenodd" d="M32.8825 93.9589C36.7988 96.2223 28.0405 100.806 31.3444 104.735C34.4917 104.094 36.0867 100.863 38.6074 98.7988C39.6043 97.9874 41.1566 96.7917 42.5665 96.1653C44.0048 95.539 46.9243 94.2721 47.6221 96.3931C49.331 101.575 39.4904 101.745 39.704 107.382C42.3956 109.119 45.3577 106.13 47.1806 104.749C49.388 103.083 51.7378 100.962 54.4436 100.564C57.1352 100.165 59.4138 100.991 59.7271 102.77C60.254 105.731 56.2522 108.108 55.9959 110.898C55.7538 113.418 57.6763 116.464 56.651 119.041C55.6968 121.446 51.9372 121.987 47.8499 121.688C41.9968 121.247 36.101 118.628 29.3649 116.194C23.2982 114.001 17.559 111.155 14.1838 107.397C12.9448 106.002 11.5777 103.781 11.1077 102.343C10.5808 100.749 10.7089 98.6991 10.4384 97.5034C10.0538 95.781 6.63596 90.6423 10.6662 90.0302C15.4513 89.29 16.8042 94.9269 18.3707 97.5034C19.453 99.297 21.4041 102.016 24.0956 101.688C27.7414 101.233 27.542 90.9127 32.8967 93.9874L32.8825 93.9589Z" fill="#4FC67F"/>
<path fill-rule="evenodd" clip-rule="evenodd" d="M86.9988 89.1192C88.1381 90.5996 88.0668 93.1191 88.7647 95.2828C89.3628 97.176 90.2742 99.8095 92.0686 99.8949C93.7633 99.9803 94.5039 97.8166 95.7998 96.8202C97.2666 95.6814 98.6623 94.5142 100.642 95.5106C103.077 96.7205 101.069 102.201 104.159 102.543C108.432 103.012 109.329 92.6067 114.94 93.959C116.549 95.1547 116.065 97.7027 115.823 99.6814C115.581 101.603 115.424 104.208 114.726 105.617C113.772 107.539 109.87 109.589 107.463 111.112C100.086 115.795 89.9467 120.35 78.867 120.35C74.0393 120.35 69.4536 119.169 65.4518 118.585C66.6339 117.347 67.6307 116.621 67.8728 115.069C68.6561 109.817 62.2618 102.315 66.5627 98.5853C70.066 95.5248 74.0108 102.144 78.4398 99.0266C81.4304 96.9198 80.1772 86.3007 87.0272 89.1334L86.9988 89.1192Z" fill="#4FC67F"/>
<path fill-rule="evenodd" clip-rule="evenodd" d="M123.727 89.4608C124.439 89.6031 124.766 91.4109 124.852 92.023C125.706 97.7739 125.08 104.863 124.382 110.799C123.214 120.649 121.562 128.364 115.809 133.446C109.685 138.841 99.9582 140.421 95.1304 146.2C92.8518 148.919 91.8407 153.759 89.6333 156.535C85.5176 161.702 75.506 164.478 65.2097 165.118C59.4562 165.474 52.9338 164.834 49.1456 162.699C43.3637 159.425 39.9458 151.183 33.7509 147.524C30.1906 145.418 25.7901 144.208 21.8738 142.243C18.1568 140.393 14.2974 138.229 11.5346 135.425C7.11987 130.941 4.42829 124.037 4.05801 116.521C3.64502 108.322 5.05489 99.1262 5.38243 89.9163C5.5106 89.0195 6.10877 89.1049 6.26542 89.2615C7.80347 91.2543 9.28456 93.1333 10.8938 94.9838C26.7015 113.276 65.8505 123.596 97.352 112.792C107.563 109.29 116.635 103.895 121.334 95.6386C122.431 93.7027 123.143 91.5817 123.755 89.475L123.727 89.4608Z" fill="white"/>
<path d="M124.852 92.0231C124.766 91.411 124.353 89.4608 123.727 89.4608C123.114 91.5533 122.417 93.6743 121.306 95.6245C119.768 98.3291 117.745 100.735 115.381 102.856C115.253 104.621 115.097 106.329 114.911 107.938C113.744 117.788 112.092 125.517 106.324 130.585C100.2 135.98 90.4736 137.56 85.6458 143.339C83.3672 146.058 82.3561 150.898 80.1487 153.674C76.033 158.841 66.0214 161.617 55.7251 162.243C53.2898 162.4 50.7122 162.371 48.2627 162.115C48.5618 162.314 48.8466 162.514 49.1599 162.67C52.9338 164.805 59.4705 165.446 65.224 165.09C75.5061 164.45 85.5319 161.674 89.6476 156.507C91.855 153.731 92.8803 148.891 95.1447 146.172C99.9725 140.393 109.699 138.813 115.823 133.418C121.576 128.336 123.243 120.621 124.396 110.77C125.094 104.834 125.721 97.7454 124.866 91.9946L124.852 92.0231Z" fill="#E8E8E8"/>
<mask id="mask0_645_1939" style="mask-type:luminance" maskUnits="userSpaceOnUse" x="3" y="89" width="123" height="77">
<path d="M123.727 89.4606C124.382 89.6457 124.766 91.4108 124.852 92.0229C125.706 97.7737 125.08 104.863 124.382 110.799C123.214 120.649 121.562 128.364 115.809 133.446C109.685 138.841 99.9582 140.421 95.1304 146.2C92.8518 148.919 91.8407 153.759 89.6333 156.535C85.5176 161.702 75.506 164.478 65.2097 165.118C59.4562 165.474 52.9338 164.834 49.1456 162.698C43.3637 159.424 39.9458 151.183 33.7509 147.524C30.1906 145.417 25.7901 144.208 21.8738 142.243C18.1568 140.393 14.2974 138.229 11.5346 135.425C7.11987 130.941 4.42829 124.037 4.05801 116.521C3.64502 108.322 5.05489 99.1261 5.38243 89.9162C5.46788 88.9197 6.10877 89.2614 6.26542 89.2614C7.80347 91.2542 9.28456 93.1332 10.8938 94.9837C26.7015 113.275 65.8505 123.596 97.352 112.791C107.563 109.29 116.635 103.895 121.334 95.6385C122.431 93.7026 123.143 91.5816 123.755 89.4749L123.727 89.4606Z" fill="white"/>
</mask>
<g mask="url(#mask0_645_1939)">
<path fill-rule="evenodd" clip-rule="evenodd" d="M126.134 112.991C129.067 114.457 129.551 118.372 130.976 121.347C129.281 123.169 126.831 124.094 124.596 125.304C109.514 133.446 90.1746 139.254 67.6166 140.037C40.9286 140.962 18.1 133.93 1.83655 123.767C1.97896 121.987 1.03905 120.222 1.39508 118.927C3.74487 119.724 5.8953 120.905 8.21662 122.001C22.9562 128.976 43.8196 133.19 66.2922 132.122C90.4025 130.969 112.12 123.895 126.134 112.991Z" fill="#CC5A44"/>
</g>
<g filter="url(#filter0_d_645_1939)">
<rect x="101" y="4" width="50" height="32" rx="8" fill="white"/>
<path d="M104.552 39.8785C103.365 41.3398 101 40.5001 101 38.6172L101 26C101 24.8954 101.896 24 103 24L113.252 24C114.937 24 115.867 25.9542 114.805 27.2612L104.552 39.8785Z" fill="white"/>
<path d="M113.108 16.0879C113.114 17.4019 113.819 18.6841 115.33 19.249L114.581 20.2773C113.533 19.8774 112.829 19.1284 112.435 18.2017C112.016 19.2363 111.273 20.0996 110.188 20.582L109.426 19.5283C111.007 18.8555 111.743 17.4146 111.75 16.0625V15.123H113.108V16.0879ZM111.572 22.2324V21.1279H119.341V24.0605H112.994V24.9111H119.748V26.0283H111.584V23.0195H117.945V22.2324H111.572ZM115.533 20.6074V14.8564H116.853V17.0908H117.996V14.666H119.341V20.6836H117.996V18.2334H116.853V20.6074H115.533ZM130.374 14.6533V26.1426H128.964V20.0361H126.997V18.8809H128.964V14.6533H130.374ZM121.144 16.7988V15.6562H126.336V19.8584H122.579V22.2705C124.286 22.2642 125.657 22.207 127.2 21.9277L127.314 23.083C125.606 23.3813 124.07 23.4448 122.096 23.4512H121.182V18.7158H124.953V16.7988H121.144ZM141.317 20.0361V21.166H133.268V15.6562H141.228V16.7988H134.665V20.0361H141.317ZM131.999 24.6699V23.502H142.485V24.6699H131.999Z" fill="#008B47"/>
</g>
<defs>
<filter id="filter0_d_645_1939" x="95" y="0" width="62" height="48.6212" filterUnits="userSpaceOnUse" color-interpolation-filters="sRGB">
<feFlood flood-opacity="0" result="BackgroundImageFix"/>
<feColorMatrix in="SourceAlpha" type="matrix" values="0 0 0 0 0 0 0 0 0 0 0 0 0 0 0 0 0 0 127 0" result="hardAlpha"/>
<feOffset dy="2"/>
<feGaussianBlur stdDeviation="3"/>
<feComposite in2="hardAlpha" operator="out"/>
<feColorMatrix type="matrix" values="0 0 0 0 0 0 0 0 0 0.545098 0 0 0 0 0.278431 0 0 0 0.12 0"/>
<feBlend mode="normal" in2="BackgroundImageFix" result="effect1_dropShadow_645_1939"/>
<feBlend mode="normal" in="SourceGraphic" in2="effect1_dropShadow_645_1939" result="shape"/>
</filter>
</defs>
</svg>
