<svg width="168" height="80" viewBox="0 0 168 80" fill="none" xmlns="http://www.w3.org/2000/svg">
<rect width="80" height="80" rx="8" fill="white"/>
<g clip-path="url(#clip0_261_1691)">
<path d="M40 54.3161C47.9065 54.3161 54.316 47.9066 54.316 40.0001C54.316 32.0936 47.9065 25.6841 40 25.6841C32.0935 25.6841 25.684 32.0936 25.684 40.0001C25.684 47.9066 32.0935 54.3161 40 54.3161Z" fill="#D0D5DA"/>
<path d="M51.9463 40.181C51.9463 39.5224 51.7554 38.9085 51.4261 38.3913C51.0082 37.7351 50.7807 36.9596 50.862 36.186C50.9326 35.5137 50.8006 34.8148 50.4363 34.1839C50.1074 33.6143 49.6362 33.1786 49.0936 32.8952C48.3488 32.5063 47.8047 31.8518 47.4222 31.1037C47.1412 30.5542 46.705 30.0769 46.1299 29.745C45.5603 29.4161 44.9343 29.2743 44.3227 29.3003C43.4832 29.3358 42.6847 29.041 41.9794 28.5843C41.4614 28.249 40.845 28.0537 40.181 28.0537C39.5222 28.0537 38.9084 28.2446 38.3911 28.574C37.7348 28.9919 36.9593 29.2194 36.1856 29.1381C35.5134 29.0675 34.8146 29.1996 34.1836 29.564C33.6142 29.8928 33.1786 30.3639 32.8952 30.9064C32.5062 31.6512 31.8518 32.1954 31.1036 32.578C30.5541 32.8589 30.0768 33.2951 29.7448 33.8702C29.416 34.4397 29.2742 35.0656 29.3002 35.6772C29.3357 36.5168 29.041 37.3153 28.5844 38.0207C28.249 38.5387 28.0537 39.1551 28.0537 39.8192C28.0537 40.4779 28.2447 41.0918 28.5741 41.6092C28.9919 42.2653 29.2193 43.0407 29.1381 43.8144C29.0674 44.4866 29.1995 45.1855 29.5638 45.8168C29.8925 46.386 30.3637 46.8216 30.9062 47.1049C31.6511 47.4939 32.1954 48.1484 32.578 48.8967C32.8589 49.4461 33.2951 49.9235 33.8702 50.2556C34.4397 50.5842 35.0656 50.7259 35.6772 50.7C36.5167 50.6644 37.3153 50.9592 38.0207 51.4159C38.5387 51.7512 39.1551 51.9465 39.8191 51.9465C40.478 51.9465 41.0919 51.7555 41.6092 51.4261C42.2653 51.0084 43.0405 50.7809 43.814 50.8621C44.4864 50.9327 45.1854 50.8006 45.8165 50.4362C46.3859 50.1077 46.8215 49.6365 47.1048 49.094C47.4938 48.349 48.1483 47.8048 48.8965 47.4222C49.446 47.1413 49.9233 46.7051 50.2553 46.13C50.5841 45.5605 50.7258 44.9346 50.6999 44.3231C50.6643 43.4835 50.959 42.685 51.4157 41.9795C51.751 41.4615 51.9463 40.8451 51.9463 40.181Z" fill="#03905A"/>
<path d="M37.8708 42.2359C38.997 43.4751 38.9053 45.3927 37.6661 46.5188C36.4269 47.645 34.5094 47.5533 33.3832 46.3141C32.2571 45.0749 31.4713 42.1919 32.7105 41.0657C33.9497 39.9396 36.7447 40.9967 37.8708 42.2359Z" fill="white"/>
<path d="M35.9221 46.3148C36.8693 46.3148 37.6371 45.5469 37.6371 44.5998C37.6371 43.6526 36.8693 42.8848 35.9221 42.8848C34.975 42.8848 34.2071 43.6526 34.2071 44.5998C34.2071 45.5469 34.975 46.3148 35.9221 46.3148Z" fill="#FFC261"/>
<path d="M38.2858 39.178C39.3975 41.2922 42.0125 42.1049 44.1267 40.9932C46.2409 39.8816 47.0536 37.2665 45.9419 35.1523L38.2858 39.178Z" fill="#D14141"/>
<path d="M44.8207 35.7419C45.6068 37.2369 45.0321 39.086 43.5372 39.8721C42.0422 40.6581 40.1931 40.0835 39.407 38.5885L44.8207 35.7419Z" fill="#F25F5F"/>
<path d="M45.9796 47.585C47.3159 46.5425 47.6459 44.7319 46.7168 43.5409C45.9855 42.6036 45.4837 43.3464 44.6522 44.2133C44.6036 43.9663 44.4966 43.7173 44.3223 43.4939C43.8214 42.8518 43.4379 43.2409 42.9111 43.6519C42.3843 44.0629 41.9136 44.3402 42.4146 44.9823C42.5889 45.2057 42.8043 45.37 43.0321 45.4773C41.9891 46.0728 41.1465 46.3789 41.8777 47.3162C42.8069 48.5072 44.6434 48.6275 45.9796 47.585Z" fill="#E5E9EE"/>
<path d="M37.0401 34.444L35.7846 33.5779C35.434 33.336 34.9537 33.4241 34.7118 33.7748L33.8457 35.0303C33.6038 35.3809 33.6919 35.8612 34.0426 36.1031L35.2981 36.9692C35.6487 37.2111 36.129 37.123 36.3709 36.7723L37.237 35.5168C37.4789 35.1662 37.3908 34.6859 37.0401 34.444Z" fill="#FFD361"/>
<path d="M44.2454 33.2928L44.0795 32.3098C44.0332 32.0353 43.7731 31.8503 43.4986 31.8966L42.5156 32.0626C42.241 32.1089 42.0561 32.369 42.1024 32.6435L42.2683 33.6265C42.3147 33.9011 42.5748 34.086 42.8493 34.0397L43.8323 33.8738C44.1068 33.8274 44.2918 33.5673 44.2454 33.2928Z" fill="#FFD361"/>
</g>
<path d="M68 12.9334L64.7333 16.2C64.6111 16.3223 64.4556 16.3834 64.2667 16.3834C64.0778 16.3834 63.9222 16.3223 63.8 16.2C63.6778 16.0778 63.6167 15.9223 63.6167 15.7334C63.6167 15.5445 63.6778 15.3889 63.8 15.2667L67.0667 12L63.8 8.73337C63.6778 8.61114 63.6167 8.45559 63.6167 8.2667C63.6167 8.07781 63.6778 7.92225 63.8 7.80003C63.9222 7.67781 64.0778 7.6167 64.2667 7.6167C64.4556 7.6167 64.6111 7.67781 64.7333 7.80003L68 11.0667L71.2667 7.80003C71.3889 7.67781 71.5444 7.6167 71.7333 7.6167C71.9222 7.6167 72.0778 7.67781 72.2 7.80003C72.3222 7.92225 72.3833 8.07781 72.3833 8.2667C72.3833 8.45559 72.3222 8.61114 72.2 8.73337L68.9333 12L72.2 15.2667C72.3222 15.3889 72.3833 15.5445 72.3833 15.7334C72.3833 15.9223 72.3222 16.0778 72.2 16.2C72.0778 16.3223 71.9222 16.3834 71.7333 16.3834C71.5444 16.3834 71.3889 16.3223 71.2667 16.2L68 12.9334Z" fill="#F87272"/>
<rect x="88" width="80" height="80" rx="8" fill="white"/>
<g clip-path="url(#clip1_261_1691)">
<g filter="url(#filter0_f_261_1691)">
<path d="M151.205 40.7801C151.205 41.725 151.04 42.6401 150.725 43.5253L150.23 44.6349C150.215 44.6649 150.2 44.6803 150.185 44.7103C150.08 44.9052 149.96 45.1 149.84 45.2952C149.765 45.4149 149.69 45.55 149.6 45.6852C149.405 45.9551 149.21 46.225 148.985 46.4952C148.955 46.5399 148.925 46.5699 148.895 46.6C148.64 46.9003 148.385 47.2002 148.1 47.4851C147.86 47.7103 147.59 47.9352 147.335 48.16C147.485 47.5752 147.59 46.99 147.59 46.3901C147.59 42.7302 144.59 39.49 139.955 37.4051L141.365 32.41C141.44 32.1401 141.365 31.8702 141.215 31.63L142.58 30.3252C145.01 31.4802 147.035 32.8901 148.52 34.5099C150.23 36.3849 151.205 38.5151 151.205 40.7801Z" fill="#3D3D3D"/>
<path d="M135.995 28.1802L125.345 30.3848C121.49 31.0451 118.28 33.61 116.75 37.1051C111.71 39.1599 108.41 42.5499 108.41 46.39C108.41 46.9899 108.515 47.5751 108.665 48.1599C108.41 47.9351 108.14 47.7102 107.915 47.485C107.3 46.8701 106.79 46.2102 106.34 45.5349L106.4 45.6701C105.965 45.0252 105.62 44.3799 105.35 43.69C105.35 43.6749 105.335 43.6599 105.32 43.6299C105.155 43.1948 105.035 42.7451 104.945 42.28C104.945 42.27 104.94 42.26 104.93 42.25C104.84 41.7699 104.795 41.2752 104.795 40.78C104.795 38.515 105.77 36.3848 107.48 34.5098C111.38 30.25 119.09 27.3401 128 27.3401C130.82 27.3401 133.505 27.655 135.995 28.1802Z" fill="#3D3D3D"/>
<path d="M147.594 46.3915C147.594 42.7327 144.592 39.4873 139.95 37.4116L138.689 41.8442C138.679 42.4441 138.463 42.9832 138.081 43.4636C138.438 43.3757 138.806 43.3168 139.189 43.3168C141.138 43.3168 142.806 44.5205 143.49 46.2252C143.82 47.0485 143.23 47.9497 142.343 47.9497H136.035C135.148 47.9497 134.557 47.0485 134.888 46.2252C135.04 45.8455 135.248 45.4957 135.49 45.1735C129.182 47.6692 115.733 46.3358 115.808 41.4868C115.833 39.9297 116.17 38.4509 116.755 37.1062C111.711 39.1599 108.406 42.5496 108.406 46.3915C108.406 46.9939 108.511 47.5806 108.667 48.1574C108.913 48.376 109.137 48.6038 109.405 48.8125L109.445 48.8462C110.005 49.2791 110.619 49.687 111.264 50.0774C111.461 50.1961 111.675 50.3048 111.879 50.4195C112.331 50.6736 112.795 50.9197 113.28 51.1515C113.565 51.2874 113.858 51.417 114.154 51.5448C118.02 53.2206 122.798 54.2284 128 54.2284C133.233 54.2284 138.04 53.21 141.919 51.5155C142.153 51.4134 142.389 51.3127 142.617 51.2053C143.304 50.8809 143.971 50.5421 144.589 50.1752C144.609 50.1635 144.626 50.1503 144.646 50.1386C145.266 49.7669 145.842 49.371 146.387 48.9605C146.509 48.8682 146.626 48.7733 146.745 48.6792C146.955 48.5115 147.134 48.3306 147.333 48.1577C147.489 47.5806 147.594 46.9939 147.594 46.3915ZM117.388 47.6088H113.135C112.496 47.6088 112.013 46.965 112.256 46.3735C112.742 45.1918 113.905 44.3597 115.262 44.3597C116.619 44.3597 117.782 45.1918 118.268 46.3735C118.511 46.965 118.028 47.6088 117.388 47.6088ZM124.636 51.8191C123.997 51.8191 123.514 51.1753 123.757 50.5842C124.243 49.4025 125.405 48.5704 126.763 48.5704C128.12 48.5704 129.283 49.4025 129.769 50.5842C130.012 51.1753 129.528 51.8191 128.889 51.8191H124.636Z" fill="#FFC450"/>
<path d="M129.769 50.5841C129.283 49.4023 128.12 48.5703 126.763 48.5703C125.405 48.5703 124.243 49.4023 123.757 50.5841C123.514 51.1752 123.997 51.819 124.636 51.819H128.889C129.528 51.819 130.012 51.1752 129.769 50.5841Z" fill="#FFE3A0"/>
<path d="M115.262 44.3596C113.905 44.3596 112.742 45.1917 112.256 46.3734C112.013 46.9648 112.496 47.6086 113.135 47.6086H117.388C118.028 47.6086 118.511 46.9648 118.268 46.3734C117.782 45.1917 116.619 44.3596 115.262 44.3596Z" fill="#036D50"/>
<path d="M148.625 27.3848C148.595 28.705 147.5 29.7549 146.18 29.7249L144.665 29.6949L143.27 29.6648L142.58 30.3251L141.215 31.6299C141.185 31.5852 141.17 31.5252 141.125 31.4802L138.02 28.2399C137.99 28.2102 137.945 28.1949 137.9 28.1648L139.955 26.2001L139.985 24.7898L140.015 23.3052C140.045 21.97 141.14 20.9351 142.46 20.9501C143.795 20.9801 144.83 22.0751 144.815 23.4099L144.77 24.8949L146.285 24.94C147.605 24.97 148.655 26.065 148.625 27.3848Z" fill="#D5D5D5"/>
<path d="M141.365 32.4098L139.955 37.4049L138.695 41.8448C138.68 42.4447 138.47 42.9848 138.08 43.4649C137.03 43.7198 136.115 44.3351 135.485 45.1748C129.185 47.6646 115.73 46.3298 115.805 41.4848C115.835 39.9248 116.165 38.4548 116.75 37.105C118.28 33.6098 121.49 31.0449 125.345 30.3846L135.995 28.18L137.09 27.9548C137.39 27.8948 137.675 27.9848 137.9 28.1646C137.945 28.1947 137.99 28.2101 138.02 28.2397L141.125 31.48C141.17 31.525 141.185 31.5851 141.215 31.6297C141.365 31.87 141.44 32.1399 141.365 32.4098Z" fill="#F77F00"/>
<path d="M135.49 45.1733C135.248 45.4956 135.04 45.8453 134.888 46.2251C134.557 47.0483 135.148 47.9496 136.035 47.9496H142.343C143.23 47.9496 143.82 47.0483 143.49 46.2251C142.806 44.5204 141.138 43.3167 139.189 43.3167C138.806 43.3167 138.438 43.3756 138.081 43.4635C137.03 43.7224 136.122 44.3336 135.49 45.1733Z" fill="#C50010"/>
<path d="M150.228 34.5144H148.518C150.228 36.3876 151.206 38.5197 151.206 40.7861C151.206 41.7247 151.038 42.6402 150.722 43.5243C150.587 43.9029 150.418 44.2739 150.227 44.639C150.193 44.706 150.163 44.7738 150.127 44.8405L149.125 47.0582H150.228C153.692 47.0582 156.5 44.2501 156.5 40.7861C156.5 37.3225 153.692 34.5144 150.228 34.5144Z" fill="#4E5968"/>
<path d="M105.354 43.6953C105.346 43.6737 105.333 43.6525 105.325 43.6305C105.16 43.1874 105.032 42.7362 104.944 42.2773L104.93 42.244H104.935L104.937 42.2491C104.847 41.7683 104.794 41.2809 104.794 40.7861C104.794 38.5196 105.772 36.3876 107.482 34.5144H105.772C102.308 34.5144 99.5 37.3225 99.5 40.7861C99.5 44.2501 102.308 47.0582 105.772 47.0582H106.99L106.393 45.6641C105.966 45.0291 105.613 44.3732 105.354 43.6953Z" fill="#4E5968"/>
<path d="M150.188 44.7046C150.083 44.902 149.964 45.0957 149.844 45.2891C149.762 45.4205 149.684 45.5527 149.595 45.6824C149.406 45.9581 149.204 46.2306 148.984 46.4976C148.955 46.5335 148.925 46.5693 148.895 46.6049C148.644 46.9033 148.379 47.1967 148.094 47.4823C147.861 47.7159 147.59 47.9335 147.333 48.1576C147.134 48.3304 146.955 48.5114 146.745 48.6791C146.626 48.7732 146.509 48.8681 146.387 48.9603C145.842 49.3709 145.266 49.7667 144.646 50.1384C144.626 50.1502 144.609 50.1633 144.589 50.1751C143.971 50.542 143.304 50.8807 142.617 51.2052C142.389 51.3125 142.153 51.4132 141.919 51.5154C138.041 53.2099 133.233 54.2283 128 54.2283C122.798 54.2283 118.02 53.2205 114.154 51.5447C113.858 51.4169 113.565 51.2872 113.281 51.1514C112.795 50.9196 112.331 50.6735 111.879 50.4193C111.675 50.3047 111.461 50.1959 111.264 50.0773C110.619 49.6869 110.006 49.2789 109.445 48.8461L109.405 48.8124C109.137 48.6036 108.913 48.3759 108.667 48.1572C108.414 47.9324 108.14 47.7167 107.908 47.4838C107.293 46.8671 106.785 46.2123 106.34 45.5396L106.393 45.6641L106.99 47.0582L109.027 51.819H109.053C110.549 57.6037 117.597 62.044 128 62.044C138.403 62.044 145.451 57.6036 146.947 51.819H146.973L149.125 47.0582L150.127 44.8405L150.188 44.7046Z" fill="#4E5968"/>
<path d="M129.26 18.655C128.825 21.1749 126.44 22.8701 123.935 22.435C123.59 22.3749 123.26 22.2698 122.945 22.1347C122.075 23.155 120.725 23.7101 119.315 23.4549C117.2 23.0949 115.775 21.0551 116.135 18.9249C116.495 16.795 118.52 15.355 120.65 15.73H120.665C121.565 14.0048 123.485 12.9699 125.51 13.3149C128.015 13.7499 129.695 16.1347 129.26 18.655Z" fill="#D5D5D5"/>
<path d="M133.613 23.3685C135.441 23.3685 136.923 21.8799 136.923 20.0433C136.923 18.2072 135.441 16.7185 133.613 16.7185C131.784 16.7185 130.302 18.2072 130.302 20.0433C130.302 21.8799 131.784 23.3685 133.613 23.3685Z" fill="#D5D5D5"/>
</g>
</g>
<path d="M156 12.9334L152.733 16.2C152.611 16.3223 152.456 16.3834 152.267 16.3834C152.078 16.3834 151.922 16.3223 151.8 16.2C151.678 16.0778 151.617 15.9223 151.617 15.7334C151.617 15.5445 151.678 15.3889 151.8 15.2667L155.067 12L151.8 8.73337C151.678 8.61114 151.617 8.45559 151.617 8.2667C151.617 8.07781 151.678 7.92225 151.8 7.80003C151.922 7.67781 152.078 7.6167 152.267 7.6167C152.456 7.6167 152.611 7.67781 152.733 7.80003L156 11.0667L159.267 7.80003C159.389 7.67781 159.544 7.6167 159.733 7.6167C159.922 7.6167 160.078 7.67781 160.2 7.80003C160.322 7.92225 160.383 8.07781 160.383 8.2667C160.383 8.45559 160.322 8.61114 160.2 8.73337L156.933 12L160.2 15.2667C160.322 15.3889 160.383 15.5445 160.383 15.7334C160.383 15.9223 160.322 16.0778 160.2 16.2C160.078 16.3223 159.922 16.3834 159.733 16.3834C159.544 16.3834 159.389 16.3223 159.267 16.2L156 12.9334Z" fill="#F87272"/>
<defs>
<filter id="filter0_f_261_1691" x="95.5" y="9.24878" width="65" height="56.7952" filterUnits="userSpaceOnUse" color-interpolation-filters="sRGB">
<feFlood flood-opacity="0" result="BackgroundImageFix"/>
<feBlend mode="normal" in="SourceGraphic" in2="BackgroundImageFix" result="shape"/>
<feGaussianBlur stdDeviation="2" result="effect1_foregroundBlur_261_1691"/>
</filter>
<clipPath id="clip0_261_1691">
<rect width="32" height="32" fill="white" transform="translate(24 24)"/>
</clipPath>
<clipPath id="clip1_261_1691">
<rect width="60" height="60" fill="white" transform="translate(98 10)"/>
</clipPath>
</defs>
</svg>
