<svg width="594" height="998" viewBox="0 0 594 998" fill="none" xmlns="http://www.w3.org/2000/svg">
<path fill-rule="evenodd" clip-rule="evenodd" d="M320.693 901.09C318.528 918.798 313.444 941.331 314.498 960.705C315.053 970.726 319.027 980.192 326.318 984.32C331.032 987.011 341.798 989.431 348.264 990.512C355.57 991.751 363.16 992.377 370.21 992.776C377.131 993.16 384.636 993.53 394.961 992.776C403.149 992.178 414.913 991.082 415.781 986.029C416.878 979.623 403.89 973.189 398.336 970.285C390.546 966.2 381.873 962.257 377.515 957.915C374.468 954.869 370.01 947.225 369.64 940.477C368.971 928.15 374.14 899.979 374.14 899.979L320.693 901.104V901.09Z" fill="#FFD9CC"/>
<path d="M347.922 915.752C334.649 915.752 323.498 909.574 320.18 905.047L373.556 903.382C368.942 908.221 361.195 915.752 347.922 915.752Z" fill="#EABBA7"/>
<path fill-rule="evenodd" clip-rule="evenodd" d="M388.609 965.246C388.054 967.979 387.698 969.644 385.975 971.95C373.77 988.05 327.23 978.541 315.281 966.769C319.041 1002.37 394.491 997.317 406.795 994.456C412.392 993.146 419.114 990.328 419.171 985.459C419.242 980.221 411.651 976.619 406.795 973.644C400.187 969.616 388.794 965.26 388.609 965.26" fill="#006B33"/>
<path fill-rule="evenodd" clip-rule="evenodd" d="M109.226 901.545C103.672 920.164 97.3629 942.727 99.6557 963.41C101.436 979.424 113.94 984.79 128.921 988.719C144.003 992.662 156.692 994.911 176.743 994.897C185.915 994.897 196.951 995.068 198.119 989.844C199.686 982.826 187.652 976.79 182.369 973.531C175.091 969.047 168.412 964.89 163.812 960.036C160.993 957.089 157.632 952.235 157.062 947.097C156.15 938.84 164.069 910.656 166.632 902.67L109.24 901.545H109.226Z" fill="#FFD9CC"/>
<path d="M137.494 917.018C124.236 917.018 111.732 908.52 108.798 902.912L166.19 904.051C161.348 910.869 150.767 917.018 137.48 917.018" fill="#EABBA7"/>
<path fill-rule="evenodd" clip-rule="evenodd" d="M99.6558 963.41C100.254 966.47 100.923 972.933 103.601 976.349C113.099 988.491 145.099 996.249 168.868 997.715C180.076 998.413 200.469 998.427 202.064 990.399C203.374 983.794 193.947 978.029 189.674 975.766C183.237 972.363 177.441 969.089 171.602 966.57C171.916 975.253 162.887 979.381 154.242 980.264C133.564 982.399 105.794 969.943 99.6558 963.396" fill="#006B33"/>
<path fill-rule="evenodd" clip-rule="evenodd" d="M105.267 345.735C102.105 349.18 99.8123 353.806 97.961 358.119C84.7024 388.895 76.585 430.745 76.585 473.421C76.585 486.602 76.6704 498.972 78.8351 510.531C84.973 543.214 92.0224 574.972 96.8502 609.505C109.568 700.75 108.969 812.436 95.1555 902.527C119.764 903.495 147.535 903.396 173.368 904.221C183.536 861.716 194.046 816.934 202.634 771.497C205.61 755.739 208.259 740.508 208.259 723.113C208.259 652.921 190.571 537.506 181.813 473.407C183.736 473.876 187.567 477.819 189.489 480.41C204.428 500.595 228.852 574.274 239.76 598.815C252.264 626.943 263.629 657.192 272.971 688.238C291.912 751.283 304.501 822.671 300.542 904.777C324.809 905.488 355.769 904.805 379.324 903.083C380.948 897.688 380.777 891.851 381.005 886.215C382.628 845.66 384.494 802.4 382.144 760.792C380.791 737.191 378.683 714.942 375.379 693.305C372.09 671.754 367.105 651.54 362.448 631.996C352.964 592.267 341.129 553.605 329.252 516.709C317.233 479.343 303.518 443.699 287.041 410.973C290.331 401.293 293.521 391.571 296.056 381.165C232.027 369.806 168.797 357.65 105.309 345.735" fill="#008B47"/>
<path fill-rule="evenodd" clip-rule="evenodd" d="M295.942 381.322C295.942 381.322 285.745 407.827 285.873 410.987C285.987 413.792 316.463 486.545 327.5 517.848C340.218 553.89 350.457 594.388 360.127 633.149C369.996 672.594 377.53 715.696 379.267 761.945C380.976 807.98 376.447 903.41 376.447 903.41L383.411 902.983C383.411 902.983 395.388 807.212 393.323 760.251C391.272 713.86 385.077 668.537 374.753 628.082C359.472 568.182 340.018 513.15 315.68 461.051C310.098 449.108 304.073 435.158 297.665 422.233C295.415 417.678 291.869 412.71 291.47 409.863C290.801 405.023 295.913 381.336 295.913 381.336" fill="#006B33"/>
<path fill-rule="evenodd" clip-rule="evenodd" d="M105.267 345.735C110.778 355.899 164.994 373.237 189.104 376.681C223.696 381.621 261.307 383.215 295.956 381.336C295.956 381.336 121.046 348.881 105.267 345.735Z" fill="#006B33"/>
<path fill-rule="evenodd" clip-rule="evenodd" d="M238.792 162.733C251.865 175.132 284.492 176.057 303.889 168.028C305.313 152.584 307.833 138.221 309.528 123.047C327.443 125.054 342.596 118.264 337.654 98.2923C336.672 94.3635 333.225 88.1145 332.542 83.9579C332.129 81.4099 334.521 75.8157 333.695 74.1075C332.115 70.7908 326.019 71.1751 323.598 69.6093C317.845 65.8656 314 58.435 307.819 53.8514C301.881 49.4529 293.82 45.6665 285.873 44.8551C258.758 42.0508 240.045 59.4172 239.162 83.1039C238.678 96.2852 242.167 106.634 248.732 116.854C245.471 131.787 242.025 147.801 238.778 162.733" fill="#FFD9CC"/>
<path fill-rule="evenodd" clip-rule="evenodd" d="M283.068 116.285C283.595 122.05 296.64 129.21 308.731 129.694L309.514 123.032C300.157 122.121 290.188 120.598 283.068 116.285Z" fill="#EABBA7"/>
<path fill-rule="evenodd" clip-rule="evenodd" d="M314.014 57.3816C315.025 57.8656 314.384 61.3531 312.561 65.2107C310.767 69.0826 308.474 71.8299 307.477 71.3459C306.48 70.8762 307.135 67.3744 308.944 63.5025C310.753 59.6592 313.031 56.9119 314.028 57.3674" fill="#006B33"/>
<path fill-rule="evenodd" clip-rule="evenodd" d="M319.155 67.3744C320.664 68.5416 321.206 70.3779 320.365 71.474C319.511 72.5701 317.603 72.5274 316.093 71.3601C314.583 70.2071 314.057 68.3566 314.897 67.2605C315.751 66.1502 317.66 66.2214 319.155 67.3744Z" fill="#006B33"/>
<path d="M325.435 95.6304C324.054 95.303 322.516 94.7336 320.864 93.8226C320.152 93.4382 319.881 92.5699 320.266 91.8724C320.65 91.1607 321.533 90.9044 322.231 91.2888C329.679 95.3172 333.339 91.303 333.51 91.1322C334.023 90.5486 334.934 90.4774 335.532 91.0041C336.131 91.5308 336.202 92.4133 335.689 93.0254C335.504 93.2389 332.043 97.2104 325.435 95.6446" fill="#EABBA7"/>
<path d="M124.834 57.709C128.636 57.04 132.267 57.6236 134.518 58.3496C132.567 55.887 128.964 53.8372 126.13 53.282L127.696 47.887C129.547 47.7305 131.627 47.7447 132.994 48.2856C131.171 47.2322 129.547 46.6486 128.166 46.2358L141.425 0.77002C151.564 2.00844 158.386 6.40698 164.339 11.6881C169.594 16.3428 173.567 22.3214 179.52 26.8623C189.446 34.4495 205.524 33.8089 218.355 37.5526C232.739 41.7519 239.589 49.9369 245.357 60.5987C248.832 27.1613 209.084 31.4032 194.715 17.2966C192.194 14.8197 189.702 11.7165 188.364 8.72724L192.08 6.53508C192.864 8.21478 193.547 9.51014 195.826 12.229C204.812 22.8766 226.929 22.4923 239.148 33.0402C245.2 38.2501 248.832 45.2252 249.287 56.1005C255.696 48.0863 268.171 40.3426 281.358 40.3426C284.862 40.3426 290.33 40.8408 293.734 42.5917C305.398 48.6415 305.796 72.9118 296.54 81.3957C286.5 80.6982 279.45 83.6021 280.219 90.9757C280.846 96.9115 286.357 100.057 290.9 101.097C289.504 116.086 278.211 125.224 265.024 125.267C248.476 125.353 238.507 109.709 237.439 94.9044C236.983 88.4561 238.82 82.2925 239.133 75.7872C226.16 75.4882 219.181 83.9294 211.007 89.8369C202.847 95.7301 192.821 102.99 180.616 102.776C162.217 102.463 157.916 85.3102 144.615 80.2854C136.867 77.3672 126.699 82.3636 118.468 79.4597L124.805 57.709H124.834Z" fill="#008B47"/>
<path d="M158.728 53.8515C166.589 59.2891 174.749 68.314 184.604 70.7196C200.725 74.6911 208.216 62.9475 225.12 64.5275C212.303 66.5631 204.129 77.5523 189.674 77.4527C177.384 77.3815 166.219 68.072 157.047 61.709C152.903 58.8479 149.101 55.2892 142.407 52.1575C139.175 50.6344 132.011 47.8728 128.152 46.3924L130.032 39.9441C139.887 42.8337 151.109 48.5704 158.742 53.8372" fill="#006B33"/>
<path d="M120.448 72.7979C126.5 72.314 132.04 71.8157 137.338 72.3994C158.187 74.7339 168.697 94.9615 189.104 94.3351C209.241 93.7088 216.319 76.4705 235.815 75.8869C217.758 81.5523 206.379 98.3636 187.424 102.207C164.282 106.89 158.97 85.5096 145.227 80.8406C137.48 78.2072 127.597 82.7053 118.411 79.7872L120.448 72.7837V72.7979Z" fill="#006B33"/>
<path fill-rule="evenodd" clip-rule="evenodd" d="M267.303 43.1611C241.227 52.0579 222.201 93.7799 248.333 118.719C236.641 83.7302 257.448 52.7269 267.303 43.1611Z" fill="#006B33"/>
<path fill-rule="evenodd" clip-rule="evenodd" d="M568.903 108.968C570.412 105.595 581.819 103.445 580.153 96.5983C578.216 88.5841 556.342 97.8652 552.582 99.4168C541.688 103.872 532.103 110.392 527.133 115.73C523.616 109.68 522.733 95.0467 516.566 96.0432C512.322 96.7264 514.558 104.612 514.316 108.968C511.098 166.946 483.37 204.683 460.299 243.942C449.875 236.754 440.091 228.91 429.353 222.007C405.67 243.686 390.461 273.878 375.336 304.113C396.456 314.262 420.566 322.518 446.799 328.853C457.309 331.386 467.918 335.429 478.87 333.92C493.88 331.842 502.824 321.65 510.386 310.29C532.26 277.408 546.786 234.078 557.082 192.185C563.833 188.896 570.526 180.868 571.694 171.388C572.62 163.914 569.657 155.815 571.138 147.189C576.892 147.132 576.294 154.52 581.834 153.381C589.98 151.701 579.997 136.37 577.333 133.694C582.802 132.071 593.882 131.488 593.098 125.822C592.344 120.498 577.875 121.509 571.096 121.936C573.873 119.445 591.119 117.609 590.834 111.773C590.535 105.438 575.568 107.801 568.888 108.954" fill="#FFD9CC"/>
<path fill-rule="evenodd" clip-rule="evenodd" d="M579.755 95.6161C577.191 104.356 553.394 107.744 545.832 119.644C549.905 115.758 558.336 113.595 565.969 110.321C572.449 107.531 582.93 101.666 579.769 95.6161" fill="#EABBA7"/>
<path fill-rule="evenodd" clip-rule="evenodd" d="M517.777 96.0431C524.698 104.968 519.657 117.708 518.816 135.957C522.448 119.986 527.133 115.716 527.133 115.716C525.225 102.477 520.597 96.0431 517.777 96.0431Z" fill="#EABBA7"/>
<path fill-rule="evenodd" clip-rule="evenodd" d="M590.749 111.089C579.128 118.221 560.543 116.997 552.027 128.086C563.961 122.007 593.511 119.288 590.749 111.089Z" fill="#EABBA7"/>
<path fill-rule="evenodd" clip-rule="evenodd" d="M386.601 301.308C397.951 271.615 414.001 244.925 429.367 222.007C429.367 222.007 394.676 259.843 375.336 304.113C397.296 316.525 458.833 333.18 466.494 333.92C479.368 335.187 490.918 331.643 498.565 325.493C502.71 322.162 505.686 316.838 509.246 311.984C512.735 307.244 516.281 302.76 518.816 297.92C533.584 269.736 545.376 238.647 554.248 203.43C554.59 202.106 555.786 193.096 561.568 189.38C568.062 185.195 572.42 177.452 572.591 166.548C572.677 160.157 570.597 154.05 571.138 147.189C575.909 147.9 577.447 157.125 584.07 152.242C584.07 152.242 580.68 152.342 579.754 151.53C576.408 149.238 573.73 139.089 567.749 140.441C561.511 141.851 566.111 159.018 565.513 168C564.986 175.857 563.263 180.028 561.554 183.744C560.073 186.975 557.068 189.48 555.374 192.74C553.707 195.928 531.648 246.419 518.802 266.988C504.988 289.052 486.788 316.554 460.271 319.287C456.312 319.685 454.033 319.586 449.59 319.287C426.961 317.764 408.148 309.152 386.573 301.28" fill="#EABBA7"/>
<path fill-rule="evenodd" clip-rule="evenodd" d="M593.098 125.837C585.522 130.335 559.047 125.267 553.707 134.833C558.549 133.039 572.064 127.488 577.347 133.723C583.001 132.043 594.124 132.043 593.098 125.837Z" fill="#EABBA7"/>
<path fill-rule="evenodd" clip-rule="evenodd" d="M43.944 47.6593C37.1509 43.5882 19.321 26.8766 13.5533 32.4708C10.8047 35.1327 21.628 45.7661 25.3735 52.7269C19.7767 47.8301 9.02459 39.9583 4.55286 43.1611C-0.573966 46.8195 14.1799 58.25 18.0535 66.2214C13.6245 64.9688 2.64454 62.2784 1.1777 67.346C0.00991847 71.3602 16.487 77.5665 22.0553 81.7516C29.9449 127.773 35.499 177.11 44.4994 226.505C47.4758 242.804 49.2275 261.095 58 270.376C69.8487 282.903 101.906 286.547 123.196 281.664C130.943 272.355 135.387 261.209 139.018 252.384C146.452 234.348 127.554 215.288 125.446 193.025C119.935 196.142 117.087 197.807 113.056 200.327C106.036 166.804 94.7565 133.324 85.0013 101.011C83.6484 96.5699 83.2212 94.1785 82.9933 90.5486C82.4806 82.3494 90.6693 50.0223 86.696 48.2287C82.267 46.2358 75.9012 57.7945 74.0641 62.1361C63.2265 51.8159 56.5902 36.1434 43.3601 27.4175C39.3441 24.7698 34.3881 20.8126 28.7486 21.7948C26.3704 27.7164 41.2382 43.8017 43.9297 47.6593" fill="#FFD9CC"/>
<path fill-rule="evenodd" clip-rule="evenodd" d="M13.9236 31.7449C12.0295 33.5242 13.183 35.0473 14.2654 36.8694C21.0442 31.4317 37.1509 43.6878 43.944 47.6736C36.5813 40.0295 19.2498 26.7912 13.9236 31.7449Z" fill="#EABBA7"/>
<path fill-rule="evenodd" clip-rule="evenodd" d="M4.55279 43.1611C3.27109 44.1576 2.81537 45.5383 4.23949 47.8301C11.7446 43.9298 18.794 49.9369 25.3734 52.7269C21.4571 47.8301 9.36631 39.4316 4.55279 43.1611Z" fill="#EABBA7"/>
<path fill-rule="evenodd" clip-rule="evenodd" d="M2.47357 70.2356C4.58126 66.3069 11.1749 66.0933 18.0677 66.2215C8.28397 61.8514 -3.47925 64.9118 2.47357 70.2356Z" fill="#EABBA7"/>
<path fill-rule="evenodd" clip-rule="evenodd" d="M85.9412 48.0152C81.028 46.5348 74.0356 58.9475 73.3663 61.1112C68.8803 51.7732 63.0842 43.7163 55.7642 36.9832C48.5439 30.3498 34.8866 19.2183 29.3183 21.2396C27.2106 22.6915 28.3357 25.2538 29.5034 27.4887C36.2253 21.0688 67.5132 51.3034 73.1954 74.6769C75.4597 66.435 81.1562 53.7376 85.9555 48.0436" fill="#EABBA7"/>
<path fill-rule="evenodd" clip-rule="evenodd" d="M130.388 267.814C122.299 273.707 98.16 272.355 87.8209 267.572C53.0155 251.487 33.3057 156.014 33.3057 156.014C36.04 169.694 37.7204 189.793 41.1241 207.943C44.3568 225.352 45.8664 258.618 59.1107 271.487C66.3594 278.533 83.1213 284.668 99.8832 283.743C105.295 283.444 118.368 283.558 122.37 281.835C122.37 281.835 128.095 272.455 130.359 267.8" fill="#EABBA7"/>
<path fill-rule="evenodd" clip-rule="evenodd" d="M125.161 193.139C128.422 213.224 132.495 234.903 139.018 251.814C139.018 251.814 104.597 312.782 90.2134 343.073C90.2134 343.073 235.26 370.831 317.375 385.108C317.446 364.041 318.158 347.586 319.055 328.867C322.459 327.315 327.6 325.08 331.431 322.134C337.682 317.308 341.983 310.262 343.251 299.629L372.502 310.319C388.153 277.608 405.855 246.917 429.339 222.021C406.353 204.455 377.657 186.847 346.071 175.345C335.418 171.473 323.099 166.975 312.319 166.363C301.595 165.737 295.044 168.057 286.471 168.669C276.104 169.438 265.195 170.349 253.916 167.288C241.497 163.929 231.486 157.167 213.286 158.463C196.595 159.658 179.278 165.879 164.339 171.957C149.229 178.092 135.999 185.196 125.161 193.139Z" fill="#F8CD24"/>
<path fill-rule="evenodd" clip-rule="evenodd" d="M303.945 167.445L304.045 166.334C280.233 169.879 255.126 167.929 238.948 161.979L238.606 163.516C253.175 174.306 284.662 175.231 303.931 167.431" fill="#D8A400"/>
<path fill-rule="evenodd" clip-rule="evenodd" d="M295.941 381.322L317.389 385.108C318.172 361.507 318.514 347.628 319.069 328.867C331.815 323.244 342.325 317.066 343.265 299.643L326.873 293.209C325.933 309.906 314.284 308.924 311.179 315.387C308.744 320.468 308.815 326.817 307.819 332.824C304.928 349.721 299.957 365.877 295.941 381.336" fill="#D8A400"/>
</svg>
