<svg width="185" height="156" viewBox="0 0 185 156" fill="none" xmlns="http://www.w3.org/2000/svg">
<path fill-rule="evenodd" clip-rule="evenodd" d="M102.211 0.198424C95.1619 -0.556018 90.4053 3.37278 84.7658 5.03824C80.5362 6.27667 75.5518 6.27666 70.2541 6.71793C59.8153 7.58625 51.3987 8.7535 44.3921 13.0239C40.8318 15.1876 37.9835 17.5221 34.9359 19.7427C31.8883 21.9634 28.1429 23.9135 24.6253 25.4224C16.0806 29.095 10.199 30.8459 5.49939 38.4614C3.03566 42.4472 2.05301 48.5539 1.28399 53.3795C0.386791 59.0591 -0.125882 64.6676 0.871001 69.7779C2.67963 79.0305 8.16249 87.8133 11.5946 95.2154C15.6249 103.87 20.9511 109.806 28.8407 114.133C36.3458 118.247 46.2577 120.454 54.0761 124.852C65.056 131.03 74.7543 141.934 92.983 139.357C97.768 138.674 102.453 137.094 106.854 135.372C111.055 133.72 114.672 131.272 118.831 129.279C122.861 127.329 127.219 126.076 132.289 124.653C141.417 122.091 150.076 119.073 155.003 111.415C157.51 107.514 158.905 102.945 161.725 99.6424C165.812 94.8738 171.409 92.6389 175.183 88.4966C182.589 80.4255 186.59 65.2797 182.546 50.2478C179.342 38.3903 170.127 29.4508 159.831 23.9705C154.633 21.1947 148.467 19.515 141.958 17.4509C135.436 15.3869 129.782 13.209 124.499 10.3051C119.415 7.50085 114.601 4.04181 108.734 1.67884C106.811 0.910163 105.359 0.540051 102.211 0.212651V0.198424Z" fill="#EAC868"/>
<path fill-rule="evenodd" clip-rule="evenodd" d="M101.585 1.6789C99.8044 1.59349 97.7822 1.63619 97.5828 3.3586C97.3122 5.76427 103.165 7.13081 105.572 7.35856C107.737 7.55785 109.375 7.13081 109.574 5.89238C110.044 3.00273 104.476 1.83547 101.585 1.69312V1.6789Z" fill="#C19C27"/>
<path fill-rule="evenodd" clip-rule="evenodd" d="M118.603 13.6645C122.875 12.1129 113.988 6.1201 113.348 9.87808C112.949 12.241 116.794 12.8816 118.603 13.6645Z" fill="#C19C27"/>
<path fill-rule="evenodd" clip-rule="evenodd" d="M59.3166 18.0773C58.5618 17.8496 56.212 18.6894 56.5823 20.5969C56.6819 21.0666 57.1092 21.7214 57.6361 21.8638C59.0175 22.2054 62.4211 19.0026 59.3166 18.0773Z" fill="#C19C27"/>
<path fill-rule="evenodd" clip-rule="evenodd" d="M53.6348 24.7962C51.4416 24.1841 48.2089 26.3335 45.6455 27.5293C43.7229 28.4261 39.2939 29.8922 39.5502 31.942C39.8208 34.12 43.7087 33.2943 45.8591 32.7819C47.8386 32.3121 50.2596 31.7428 51.9543 30.6894C53.7345 29.5791 57.2663 25.8069 53.6348 24.7962Z" fill="#C19C27"/>
<path fill-rule="evenodd" clip-rule="evenodd" d="M158.564 27.1165C157.652 29.9776 161.042 31.1022 162.765 32.1556C164.687 33.3086 166.724 35.5719 169.074 35.1022C170.526 33.1378 168.404 31.6146 166.766 30.2623C164.374 28.3122 161.953 25.9919 158.564 27.1165Z" fill="#C19C27"/>
<path fill-rule="evenodd" clip-rule="evenodd" d="M19.7832 31.7285C21.1931 32.3833 27.1459 30.7605 25.2519 28.1556C22.8878 27.8709 18.9288 28.7819 19.7832 31.7285Z" fill="#C19C27"/>
<path fill-rule="evenodd" clip-rule="evenodd" d="M174.542 42.6607C177.006 40.981 171.196 34.6465 170.128 38.0344C169.686 39.4294 172.52 43.5575 174.542 42.6607Z" fill="#C19C27"/>
<path fill-rule="evenodd" clip-rule="evenodd" d="M5.07219 49.3938C2.67967 49.6073 2.3806 54.9311 4.44557 55.2727C7.02323 55.714 7.37926 50.2906 5.07219 49.3938Z" fill="#C19C27"/>
<path fill-rule="evenodd" clip-rule="evenodd" d="M3.80466 60.5253C2.38054 62.3047 3.07836 65.6783 3.80466 68.2975C4.37431 70.3758 5.42815 74.0626 7.80643 73.7636C11.6373 73.2654 6.95197 61.4791 6.12598 60.7388C5.55633 60.2264 4.65913 60.2406 3.80466 60.5396V60.5253Z" fill="#C19C27"/>
<path fill-rule="evenodd" clip-rule="evenodd" d="M181.064 72.7103C180.666 72.0128 179.541 71.5715 178.544 72.084C177.604 73.7352 174.841 80.3259 177.704 80.696C179.811 80.9807 181.235 75.7281 181.064 72.7103Z" fill="#C19C27"/>
<path fill-rule="evenodd" clip-rule="evenodd" d="M133.115 100.255C131.662 99.9272 126.763 104.269 126.806 105.934C126.834 106.632 127.603 107.714 128.273 107.827C129.697 108.069 130.822 106.134 131.847 105.094C132.531 104.397 136.575 101.052 133.115 100.255Z" fill="#C19C27"/>
<path fill-rule="evenodd" clip-rule="evenodd" d="M22.7314 101.507C21.7488 101.28 21.0795 101.351 20.8374 102.561C20.3816 104.838 25.2236 107.984 25.6651 105.08C25.8218 104.07 23.3296 101.65 22.7172 101.507H22.7314Z" fill="#C19C27"/>
<path fill-rule="evenodd" clip-rule="evenodd" d="M153.095 106.76C151.201 105.82 148.994 107.799 147.413 108.867C146.274 109.635 145.006 110.461 143.625 111.386C141.617 112.753 136.49 115.415 136.903 117.479C137.458 120.297 143.34 117.507 144.679 116.852C147.057 115.714 150.062 113.877 151.415 112.653C152.312 111.827 155.673 108.041 153.095 106.774V106.76Z" fill="#C19C27"/>
<path fill-rule="evenodd" clip-rule="evenodd" d="M34.5086 109.08C32.3724 108.753 31.5749 108.938 31.1477 109.92C29.8517 112.852 37.9692 115.201 38.7097 112.653C39.3221 110.589 36.1748 109.336 34.5086 109.08Z" fill="#C19C27"/>
<path fill-rule="evenodd" clip-rule="evenodd" d="M47.753 109.294C46.7988 109.194 45.0471 108.924 44.805 110.561C44.4775 112.852 49.1201 114.689 51.5269 115.813C53.1789 116.582 59.089 119.614 59.7298 116.867C60.2283 114.746 56.0128 112.724 54.6884 112.027C52.6804 110.988 50.3306 109.578 47.753 109.294Z" fill="#C19C27"/>
<path fill-rule="evenodd" clip-rule="evenodd" d="M132.702 118.745C131.107 118.005 127.091 119.728 127.447 121.692C128.016 124.895 136.532 120.496 132.702 118.745Z" fill="#C19C27"/>
<path fill-rule="evenodd" clip-rule="evenodd" d="M80.5503 125.678C78.4711 128.212 88.0696 131.187 87.4857 127.358C87.2579 125.863 82.0314 124.468 80.5503 125.678Z" fill="#C19C27"/>
<path fill-rule="evenodd" clip-rule="evenodd" d="M94.8485 131.984C92.9544 131.884 83.8686 131.87 83.9113 134.93C83.954 137.051 87.8134 137.464 90.4337 137.45C93.8232 137.436 99.0781 136.567 98.8503 133.877C98.7079 132.226 96.828 132.098 94.8485 131.984Z" fill="#C19C27"/>
<path fill-rule="evenodd" clip-rule="evenodd" d="M76.349 134.717C77.6023 135.571 79.596 135.101 79.71 133.877C79.9378 131.642 75.1528 131.557 76.349 134.717Z" fill="#C19C27"/>
<path fill-rule="evenodd" clip-rule="evenodd" d="M88.7531 9.45102C82.7291 8.83893 76.2636 11.2446 72.3616 13.6503C68.5734 15.9848 64.8564 19.7854 62.0509 23.3157C58.5476 27.7284 55.3006 32.1982 50.0741 34.4615C45.8017 36.2978 40.3616 36.4116 35.1493 37.1946C30.1934 37.9348 25.5508 39.344 21.905 41.3938C17.2766 43.9845 12.8191 48.5681 13.0755 56.5254C13.2749 62.5609 16.2798 66.7174 17.7039 73.1231C19.0568 79.2583 18.2878 86.9308 20.4382 91.614C25.095 101.792 40.561 103.101 51.1422 107.173C56.1266 109.094 60.755 111.358 65.2267 113.891C73.2588 118.432 83.5409 125.478 95.2898 125.023C101.186 124.795 106.398 122.802 110.855 119.77C119.144 114.119 123.473 103.628 131.462 98.7599C134.937 96.6389 139.551 95.0731 144.294 94.1336C148.936 93.2083 154.547 93.308 159.432 91.8275C166.695 89.6212 171.836 82.8881 174.357 76.0554C176.336 70.6889 176.465 64.5538 174.984 58.4043C172.178 46.6607 166.211 39.4863 158.578 34.0202C151.158 28.7106 139.324 26.0487 127.674 24.1413C121.679 23.1591 116.723 21.4936 112.123 19.3015C103.934 15.4011 99.904 10.5471 88.7816 9.42254L88.7531 9.45102Z" fill="#CC5A44"/>
<path fill-rule="evenodd" clip-rule="evenodd" d="M122.391 35.0878C118.218 34.4614 111.111 36.4401 112.094 43.0735C112.55 46.1339 115.199 47.7852 117.762 48.9524C121.65 50.7318 126.378 50.3047 129.753 52.3118C134.083 54.8883 135.791 59.2441 138.796 62.1907C140.804 64.1551 143.767 66.6035 146.999 66.39C149.477 66.2334 151.87 63.8562 152.254 61.9772C152.867 58.931 151.4 56.8385 150.147 55.0449C148.865 53.1944 146.828 51.5716 146.786 49.5787C146.714 46.7745 149.748 45.4791 149.734 42.6464C149.719 40.1126 147.512 38.1909 145.532 37.3938C141.573 35.8137 136.261 37.9205 131.662 37.6073C127.902 37.3511 125.922 35.6144 122.405 35.0878H122.391Z" fill="white"/>
<path fill-rule="evenodd" clip-rule="evenodd" d="M68.5732 37.8351C63.8167 37.3511 57.3796 37.9774 53.8621 39.7283C50.729 41.2799 46.7842 45.5788 48.3935 50.8741C49.3619 54.0769 53.2497 55.8421 57.4366 55.5004C62.6346 55.0734 66.7076 51.2869 71.1081 50.8741C74.8536 50.5325 82.4869 52.9666 83.5122 48.9809C84.4521 45.2799 80.1655 42.0628 78.4708 40.9952C75.3947 39.0593 72.518 38.2337 68.5874 37.8351H68.5732Z" fill="white"/>
<path fill-rule="evenodd" clip-rule="evenodd" d="M77.6162 68.511C77.1747 67.301 75.779 66.7744 74.4688 65.9915C71.8057 64.3972 67.6046 62.1196 67.9464 58.0058C68.3024 53.8777 73.0305 53.8777 75.5084 54.8599C78.6557 56.0841 81.1907 58.9879 84.1386 60.1125C86.1181 60.8669 87.9695 61.3794 90.6611 61.5787C98.2801 62.1481 103.692 57.8065 110.214 57.7922C115.569 57.7922 121.223 59.7709 121.992 63.2584C122.704 66.5466 120.909 69.18 118.83 70.4042C116.352 71.8704 112.963 71.2868 110.841 73.3508C111.937 75.8846 114.971 80.8952 112.108 83.429C109.986 85.308 104.973 83.8703 102.439 82.8027C99.5476 81.5927 97.0269 79.5999 93.8226 79.2298C90.7038 78.8739 87.9268 80.2832 85.2067 80.4824C81.091 80.7956 78.3994 80.6248 76.3772 77.9629C75.7505 73.2939 78.8551 71.8704 77.6446 68.4968L77.6162 68.511ZM73.6144 63.8847C75.2236 64.568 72.9451 63.5858 73.6144 63.8847Z" fill="white"/>
<path fill-rule="evenodd" clip-rule="evenodd" d="M58.2628 70.1907C54.9446 69.5786 49.7608 71.5572 49.006 75.2298C48.4648 77.8632 49.9601 80.3828 50.9001 82.1621C51.8969 84.0838 53.6059 86.219 53.6344 88.2546C53.6913 92.0125 48.2655 94.9876 49.2196 99.5997C49.7181 102.02 53.2071 103.756 55.3148 104.012C57.9779 104.34 59.8578 103.258 62.4639 103.585C66.4087 104.098 69.2285 107.955 74.455 107.158C77.9726 106.617 80.7781 103.215 79.9236 98.5463C79.4394 95.8987 77.346 93.7919 74.455 91.8275C71.8061 90.0197 69.0861 88.7243 67.7332 86.5749C65.6397 83.2724 66.366 77.5643 64.1586 73.9629C63.1475 72.3117 61.2107 70.7174 58.277 70.1764L58.2628 70.1907Z" fill="white"/>
<path fill-rule="evenodd" clip-rule="evenodd" d="M87.286 33.2088C86.0755 34.1625 83.0991 33.3654 82.031 34.4757C81.2335 40.7247 88.3826 41.7069 91.2878 45.1944C90.7751 46.7318 89.2656 46.2763 88.9807 47.714C88.5393 49.8777 91.0884 51.7424 92.9825 52.9666C95.1614 54.3901 97.4258 55.657 99.2914 55.9132C100.317 54.7887 99.6189 54.0342 99.7186 52.9666C99.8895 51.0449 100.488 49.1232 101.185 47.2869C102.225 44.5966 104.304 42.3048 102.652 39.0877C101.1 38.6892 100.075 39.6144 98.8641 40.1411C96.5855 36.8813 100.758 25.8209 96.3434 25.4224C94.3639 25.2516 93.9367 27.2729 92.9825 28.5683C90.234 26.732 89.1089 20.426 85.8334 18.6893C83.3697 17.3797 81.6038 19.2018 81.8459 22.2623C82.1877 26.6893 85.8192 29.8636 87.3145 33.1945L87.286 33.2088Z" fill="#14512F"/>
<path fill-rule="evenodd" clip-rule="evenodd" d="M33.6682 46.6606C30.6063 52.0129 35.0353 57.3224 35.5623 62.4185C33.2267 62.0911 32.5289 60.1267 29.6806 60.3117C28.4844 61.4078 28.8831 63.2014 29.2677 64.3117C30.35 67.5003 33.9103 70.2903 35.3629 72.9237C32.5431 71.5572 29.8088 71.8846 30.7345 76.0696C31.3041 78.6888 34.6508 83.1585 36.4167 84.6816C37.4848 85.6069 39.1225 86.6176 40.4185 86.1478C40.86 82.8881 41.3299 80.5678 42.7256 78.1621C44.0215 75.9415 46.3001 74.2333 46.9267 72.0696C47.2258 71.059 47.4252 69.4789 46.4995 68.4967C44.8617 67.9416 43.8079 69.1515 42.4977 69.5501C42.2271 64.2832 45.3602 60.3971 45.8586 55.899C46.001 54.6748 46.0153 52.81 45.232 51.6997C42.0277 50.7887 41.0309 53.778 39.977 55.6997C38.2111 52.4684 38.9374 45.6926 33.6682 46.6606Z" fill="#14512F"/>
<path fill-rule="evenodd" clip-rule="evenodd" d="M158.777 67.8846C157.965 66.4753 158.478 64.5821 156.883 64.3117C153.451 63.728 152.895 71.671 150.574 72.9237C149.648 72.2404 149.89 70.3899 148.893 69.7636C145.931 69.4789 144.906 72.4112 143.638 73.9628C142.2 75.7279 140.377 77.4076 138.383 78.1621C136.546 78.8738 135.421 78.3471 135.236 79.6283C134.937 81.6354 137.914 81.3649 140.705 81.735C143.61 82.1193 146.928 84.0126 148.694 84.2545C153.422 84.9093 153.679 80.4539 150.161 79.2155C153.123 77.55 161.44 77.8916 164.673 76.0553C165.84 75.4005 167.222 73.7635 166.353 72.2689C165.541 71.5287 164.203 71.3436 162.565 71.429C164.602 69.4219 169.543 66.817 168.447 62.1765C168.019 60.3686 166.04 59.5573 164.032 60.4968C161.668 61.5928 159.945 66.1907 158.777 67.8561V67.8846Z" fill="#14512F"/>
<path fill-rule="evenodd" clip-rule="evenodd" d="M87.2862 86.1621C87.0726 88.1265 88.5537 88.397 88.5394 90.1621C86.4602 90.276 80.835 88.098 80.3365 91.2154C79.6387 95.5997 89.6645 95.372 91.0601 98.3613C90.1914 100.084 87.4002 99.8844 87.8986 102.988C92.1567 107.087 98.4798 99.6282 103.464 102.774C103.564 104.354 100.644 105.621 101.784 108.24C104.589 110.19 106.626 107.258 108.306 105.934C109.317 105.151 110.414 104.653 111.468 104.041C112.493 103.443 113.718 102.888 114.416 101.934C113.647 100.625 112.422 100.795 111.468 100.255C110.428 99.6709 109.289 98.6887 108.52 97.735C106.512 95.2296 105.686 91.0589 101.798 91.2154C101.015 92.1122 101.613 94.3898 100.958 95.4147C98.1095 94.5606 96.6 91.2581 94.4353 89.1087C92.7548 87.429 90.1345 84.9237 87.2862 86.1621Z" fill="#14512F"/>
<path fill-rule="evenodd" clip-rule="evenodd" d="M68.3596 27.9561C70.3106 29.0095 70.0828 27.4152 71.9341 27.5291C74.4406 27.6857 74.4691 31.9703 76.7761 29.4223C77.0467 26.6038 74.2412 24.3832 71.3075 24.5825C69.8264 24.6822 67.4339 25.6501 68.3738 27.9419L68.3596 27.9561Z" fill="#EAC868"/>
<path fill-rule="evenodd" clip-rule="evenodd" d="M106.213 29.8352C106.27 28.369 106.312 26.9313 105.372 26.4758C101.186 26.789 103.421 31.7142 104.532 32.9953C107.566 36.4686 113.817 35.7141 113.988 30.6893C114.045 29.0807 112.422 25.4366 110.414 25.4366C109.858 25.4366 108.847 25.7498 108.733 26.7035C108.591 27.9704 111.169 28.4829 111.04 30.49C110.87 33.0522 106.982 32.3405 106.213 29.8637V29.8352Z" fill="#EAC868"/>
<path fill-rule="evenodd" clip-rule="evenodd" d="M153.094 48.3403C153.023 49.109 153.123 49.7069 153.308 50.2336C156.341 50.3617 158.535 51.7567 159.19 54.2193C159.66 55.9559 159.047 57.6499 160.656 57.7922C164.459 58.1196 160.87 50.6606 160.03 49.8065C158.264 48.0129 155.743 47.0307 153.094 48.3403Z" fill="#EAC868"/>
<path fill-rule="evenodd" clip-rule="evenodd" d="M49.4329 60.9524C52.6371 59.9417 55.286 61.1943 56.5819 63.2584C56.3968 63.7708 56.169 64.8812 56.5819 65.3651C57.8352 66.3473 59.4872 65.0093 59.5299 63.899C59.6438 60.7673 54.5027 56.7673 50.7003 57.593C49.1623 57.9204 47.7666 59.6997 49.4329 60.9524Z" fill="#EAC868"/>
<path fill-rule="evenodd" clip-rule="evenodd" d="M123.231 74.1906C125.338 74.2476 125.11 76.6532 126.805 77.123C129.782 76.3258 127.033 72.4255 125.338 71.6568C123.943 71.0305 121.949 71.2725 120.924 72.0839C120.169 72.6675 118.147 77.0945 120.924 77.123C122.746 77.1515 121.963 75.0732 123.231 74.1906Z" fill="#EAC868"/>
<path fill-rule="evenodd" clip-rule="evenodd" d="M124.712 85.1229V86.3898C125.481 87.372 127.703 86.9023 128.714 87.6567C128.059 89.5072 125.624 90.0339 123.459 89.7492C122.804 89.4218 123.06 88.1834 122.191 88.0695C118.802 87.7137 119.984 91.4005 121.351 92.2688C124.271 94.1478 131.149 92.0553 131.662 88.4823C132.103 85.4219 128.087 82.9735 124.726 85.1229H124.712Z" fill="#EAC868"/>
<path fill-rule="evenodd" clip-rule="evenodd" d="M28.3988 93.7349H30.0793C31.1046 93.1513 30.2217 90.6602 31.5603 90.3755C33.6538 90.3755 34.2235 91.9271 35.1349 93.1086C39.6209 93.0801 35.6903 87.557 32.187 87.4289C29.1678 87.3292 26.1345 90.7456 28.3988 93.7349Z" fill="#EAC868"/>
<path fill-rule="evenodd" clip-rule="evenodd" d="M85.5916 116.226C85.5916 116.027 85.8479 116.069 86.0046 116.012C86.8591 115.201 85.8907 112.525 87.2721 112.226C90.4906 112.012 88.9952 115.799 91.4732 115.799C94.2075 115.799 92.0001 111.656 91.046 110.76C88.8386 108.681 84.2244 108.738 83.4697 112.439C83.2703 113.422 82.8573 116.269 85.5774 116.226H85.5916Z" fill="#EAC868"/>
<g filter="url(#filter0_d_645_1997)">
<rect x="139" y="116" width="39" height="32" rx="8" fill="white"/>
<path d="M142.552 111.372C141.365 109.91 139 110.75 139 112.633L139 125.25C139 126.355 139.896 127.25 141 127.25L151.252 127.25C152.937 127.25 153.867 125.296 152.805 123.989L142.552 111.372Z" fill="white"/>
<path d="M157.23 126.653V138.13H155.809V126.653H157.23ZM147.62 134.258C148.064 134.258 148.541 134.251 149.042 134.245V128.926H147.925V127.771H154.438V128.926H153.333V134.074C153.879 134.029 154.425 133.979 154.945 133.915L155.021 134.969C152.559 135.369 149.874 135.413 147.76 135.413L147.62 134.258ZM150.4 134.22C150.908 134.207 151.429 134.188 151.949 134.156V128.926H150.4V134.22ZM162.994 129.916C162.988 131.687 164.054 133.706 165.863 134.55L165.076 135.667C163.781 135.058 162.823 133.826 162.309 132.392C161.788 133.966 160.785 135.312 159.465 135.946L158.64 134.842C160.468 133.972 161.579 131.827 161.585 129.916V128.951H159.084V127.783H165.394V128.951H162.994V129.916ZM166.46 138.13V126.653H167.869V131.122H169.634V132.303H167.869V138.13H166.46Z" fill="#008B47"/>
</g>
<defs>
<filter id="filter0_d_645_1997" x="133" y="106.629" width="51" height="49.3712" filterUnits="userSpaceOnUse" color-interpolation-filters="sRGB">
<feFlood flood-opacity="0" result="BackgroundImageFix"/>
<feColorMatrix in="SourceAlpha" type="matrix" values="0 0 0 0 0 0 0 0 0 0 0 0 0 0 0 0 0 0 127 0" result="hardAlpha"/>
<feOffset dy="2"/>
<feGaussianBlur stdDeviation="3"/>
<feComposite in2="hardAlpha" operator="out"/>
<feColorMatrix type="matrix" values="0 0 0 0 0 0 0 0 0 0.545098 0 0 0 0 0.278431 0 0 0 0.12 0"/>
<feBlend mode="normal" in2="BackgroundImageFix" result="effect1_dropShadow_645_1997"/>
<feBlend mode="normal" in="SourceGraphic" in2="effect1_dropShadow_645_1997" result="shape"/>
</filter>
</defs>
</svg>
