<svg width="571" height="135" viewBox="0 0 571 135" fill="none" xmlns="http://www.w3.org/2000/svg">
<path d="M0 8.19698H22.0103L64.6646 77.4154L107.319 8.19698H129.329V131.91H101.703V64.0575L73.0133 111.569H56.3159L27.6267 64.0575V131.91H0V8.19698Z" fill="white"/>
<path d="M192.187 134.035C183.281 134.035 175.287 132.011 168.203 127.963C161.22 124.016 155.756 118.501 151.809 111.417C147.862 104.334 145.889 96.3392 145.889 87.4339C145.889 78.5286 147.862 70.5341 151.809 63.4503C155.756 56.3666 161.22 50.8513 168.203 46.9047C175.287 42.8568 183.281 40.8329 192.187 40.8329C201.092 40.8329 209.036 42.8568 216.018 46.9047C223.102 50.8513 228.617 56.3666 232.564 63.4503C236.511 70.5341 238.484 78.5286 238.484 87.4339C238.484 90.3686 238.282 93.2527 237.877 96.0862H172.757C173.769 101.247 175.995 105.245 179.436 108.078C182.876 110.912 187.127 112.328 192.187 112.328C196.032 112.328 199.422 111.721 202.357 110.507C205.393 109.191 207.467 107.471 208.58 105.346H235.752C234.234 111.013 231.4 115.971 227.251 120.222C223.102 124.573 217.992 127.963 211.92 130.392C205.848 132.821 199.27 134.035 192.187 134.035ZM212.072 78.6298C210.959 73.2664 208.682 69.2185 205.241 66.4862C201.8 63.6527 197.449 62.236 192.187 62.236C186.924 62.236 182.623 63.6527 179.284 66.4862C175.944 69.2185 173.718 73.2664 172.605 78.6298H212.072Z" fill="white"/>
<path d="M293.065 134.035C284.666 134.035 277.177 132.011 270.599 127.963C264.022 124.016 258.911 118.501 255.268 111.417C251.625 104.334 249.803 96.3392 249.803 87.4339C249.803 78.5286 251.625 70.5341 255.268 63.4503C258.911 56.3666 264.022 50.8513 270.599 46.9047C277.177 42.8568 284.666 40.8329 293.065 40.8329C304.5 40.8329 313.001 44.5771 318.566 52.0657V42.958H345.586V131.91H318.566V122.802C313.001 130.291 304.5 134.035 293.065 134.035ZM297.315 110.962C303.893 110.962 309.155 108.786 313.102 104.435C317.049 99.9823 319.022 94.3153 319.022 87.4339C319.022 80.5525 317.049 74.9361 313.102 70.5847C309.155 66.132 303.893 63.9057 297.315 63.9057C290.94 63.9057 285.829 66.132 281.984 70.5847C278.138 74.9361 276.216 80.5525 276.216 87.4339C276.216 94.3153 278.138 99.9823 281.984 104.435C285.829 108.786 290.94 110.962 297.315 110.962Z" fill="white"/>
<path d="M392.999 131.91H365.98V4.4021H392.999V131.91Z" fill="white"/>
<path d="M489.772 107.926H441.805L433.153 131.91H404.615L452.582 8.19698H481.272L529.239 131.91H498.424L489.772 107.926ZM481.272 83.9426L465.789 40.8329L450.305 83.9426H481.272Z" fill="white"/>
<path d="M567.919 132.213H540.9V42.958H567.919V132.213Z" fill="white"/>
<path d="M566.249 4.70564C563.112 1.56855 559.166 0 554.409 0C549.653 0 545.707 1.56855 542.569 4.70564C539.432 7.84274 537.864 11.7894 537.864 16.5456C537.864 21.3019 539.432 25.2486 542.569 28.3856C545.707 31.5227 549.653 33.0913 554.409 33.0913C559.166 33.0913 563.112 31.5227 566.249 28.3856C569.387 25.2486 570.955 21.3019 570.955 16.5456C570.955 11.7894 569.387 7.84274 566.249 4.70564Z" fill="#008B47"/>
</svg>
